<svg width="30" height="30" viewBox="0 0 30 30" fill="none" xmlns="http://www.w3.org/2000/svg">
<path d="M15 13.9286L15 1.07141" stroke="black" stroke-width="1.71429" stroke-linecap="round" stroke-linejoin="round"/>
<path d="M20.3571 6.42855L15 1.07141L9.64286 6.42855" stroke="black" stroke-width="1.71429" stroke-linecap="round" stroke-linejoin="round"/>
<path d="M28.9286 26.7857V21.4286C28.9286 20.8602 28.7028 20.3152 28.301 19.9133C27.8991 19.5115 27.3541 19.2857 26.7857 19.2857L3.2143 19.2857C2.64598 19.2857 2.10094 19.5115 1.69908 19.9133C1.29721 20.3152 1.07145 20.8602 1.07145 21.4286V26.7857C1.07145 27.354 1.29721 27.8991 1.69908 28.3009C2.10094 28.7028 2.64598 28.9286 3.2143 28.9286L26.7857 28.9286C27.3541 28.9286 27.8991 28.7028 28.301 28.3009C28.7028 27.8991 28.9286 27.354 28.9286 26.7857Z" stroke="black" stroke-width="1.71429" stroke-linecap="round" stroke-linejoin="round"/>
</svg>
