<svg width="30" height="30" viewBox="0 0 30 30" fill="none" xmlns="http://www.w3.org/2000/svg">
<path d="M15 16.0714L15 28.9286" stroke="black" stroke-width="1.71429" stroke-linecap="round" stroke-linejoin="round"/>
<path d="M9.64285 23.5714L15 28.9286L20.3571 23.5714" stroke="black" stroke-width="1.71429" stroke-linecap="round" stroke-linejoin="round"/>
<path d="M1.07141 3.21429L1.07141 8.57144C1.07141 9.13976 1.29718 9.6848 1.69904 10.0867C2.1009 10.4885 2.64595 10.7143 3.21427 10.7143L26.7857 10.7143C27.354 10.7143 27.8991 10.4885 28.3009 10.0867C28.7028 9.6848 28.9286 9.13976 28.9286 8.57144V3.21429C28.9286 2.64597 28.7028 2.10093 28.3009 1.69907C27.8991 1.2972 27.354 1.07144 26.7857 1.07144L3.21427 1.07144C2.64595 1.07144 2.1009 1.2972 1.69904 1.69907C1.29718 2.10093 1.07141 2.64597 1.07141 3.21429Z" stroke="black" stroke-width="1.71429" stroke-linecap="round" stroke-linejoin="round"/>
</svg>
