<svg width="30" height="30" viewBox="0 0 30 30" fill="none" xmlns="http://www.w3.org/2000/svg">
<path d="M12.0429 15.8143L24.6429 3.21429L28.9286 7.50001" stroke="black" stroke-width="1.71429" stroke-linecap="round" stroke-linejoin="round"/>
<path d="M19.8214 8.03571L23.5714 11.7857" stroke="black" stroke-width="1.71429" stroke-linecap="round" stroke-linejoin="round"/>
<path d="M7.50001 26.7857C8.34423 26.7857 9.18017 26.6195 9.96012 26.2964C10.7401 25.9733 11.4488 25.4998 12.0457 24.9028C12.6426 24.3059 13.1162 23.5972 13.4392 22.8173C13.7623 22.0373 13.9286 21.2014 13.9286 20.3572C13.9286 19.5129 13.7623 18.677 13.4392 17.8971C13.1162 17.1171 12.6426 16.4084 12.0457 15.8115C11.4488 15.2145 10.7401 14.741 9.96012 14.4179C9.18017 14.0949 8.34423 13.9286 7.50001 13.9286C5.79505 13.9286 4.15992 14.6059 2.95433 15.8115C1.74874 17.0171 1.07144 18.6522 1.07144 20.3572C1.07144 22.0621 1.74874 23.6973 2.95433 24.9028C4.15992 26.1084 5.79505 26.7857 7.50001 26.7857Z" stroke="black" stroke-width="1.71429" stroke-linecap="round" stroke-linejoin="round"/>
</svg>
