<svg width="30" height="30" viewBox="0 0 30 30" fill="none" xmlns="http://www.w3.org/2000/svg">
<path d="M26.7857 1.07141H3.2143C2.64598 1.07141 2.10093 1.29718 1.69907 1.69904C1.29721 2.1009 1.07144 2.64595 1.07144 3.21427V26.7857C1.07144 27.354 1.29721 27.8991 1.69907 28.3009C2.10093 28.7028 2.64598 28.9286 3.2143 28.9286H26.7857C27.3541 28.9286 27.8991 28.7028 28.301 28.3009C28.7028 27.8991 28.9286 27.354 28.9286 26.7857V3.21427C28.9286 2.64595 28.7028 2.1009 28.301 1.69904C27.8991 1.29718 27.3541 1.07141 26.7857 1.07141Z" stroke="black" stroke-width="1.71429" stroke-linecap="round" stroke-linejoin="round"/>
<path d="M1.07144 7.5H28.9286" stroke="black" stroke-width="1.71429" stroke-linecap="round" stroke-linejoin="round"/>
<path d="M15 7.5V28.9286" stroke="black" stroke-width="1.71429" stroke-linecap="round" stroke-linejoin="round"/>
<path d="M1.07144 18.2143H28.9286" stroke="black" stroke-width="1.71429" stroke-linecap="round" stroke-linejoin="round"/>
</svg>
