<svg width="317" height="195" viewBox="0 0 317 195" fill="none" xmlns="http://www.w3.org/2000/svg">
<g id="Property 1=Padrao">
<g id="Bottom">
<path d="M0 55H317V145C317 172.614 294.614 195 267 195H50C22.3858 195 0 172.614 0 145V55Z" fill="#6C5555"/>
<g id="Frame Professor">
<path id="Nome do Professor" d="M101.335 119.545V137H98.1477L90.554 126.014H90.4261V137H86.7358V119.545H89.9744L97.5085 130.523H97.6619V119.545H101.335ZM110.231 137.256C108.907 137.256 107.762 136.974 106.796 136.412C105.836 135.844 105.094 135.054 104.572 134.043C104.049 133.026 103.788 131.847 103.788 130.506C103.788 129.153 104.049 127.972 104.572 126.96C105.094 125.943 105.836 125.153 106.796 124.591C107.762 124.023 108.907 123.739 110.231 123.739C111.555 123.739 112.697 124.023 113.657 124.591C114.623 125.153 115.367 125.943 115.89 126.96C116.413 127.972 116.674 129.153 116.674 130.506C116.674 131.847 116.413 133.026 115.89 134.043C115.367 135.054 114.623 135.844 113.657 136.412C112.697 136.974 111.555 137.256 110.231 137.256ZM110.248 134.443C110.85 134.443 111.353 134.273 111.756 133.932C112.16 133.585 112.464 133.114 112.668 132.517C112.879 131.92 112.984 131.241 112.984 130.48C112.984 129.719 112.879 129.04 112.668 128.443C112.464 127.847 112.16 127.375 111.756 127.028C111.353 126.682 110.85 126.509 110.248 126.509C109.64 126.509 109.129 126.682 108.714 127.028C108.305 127.375 107.995 127.847 107.785 128.443C107.58 129.04 107.478 129.719 107.478 130.48C107.478 131.241 107.58 131.92 107.785 132.517C107.995 133.114 108.305 133.585 108.714 133.932C109.129 134.273 109.64 134.443 110.248 134.443ZM119.035 137V123.909H122.495V126.219H122.648C122.921 125.452 123.376 124.847 124.012 124.403C124.648 123.96 125.41 123.739 126.296 123.739C127.194 123.739 127.958 123.963 128.589 124.412C129.219 124.855 129.64 125.457 129.85 126.219H129.987C130.254 125.469 130.737 124.869 131.435 124.42C132.14 123.966 132.972 123.739 133.933 123.739C135.154 123.739 136.146 124.128 136.907 124.906C137.674 125.679 138.058 126.776 138.058 128.196V137H134.435V128.912C134.435 128.185 134.242 127.639 133.856 127.276C133.469 126.912 132.987 126.73 132.407 126.73C131.748 126.73 131.234 126.94 130.864 127.361C130.495 127.776 130.31 128.324 130.31 129.006V137H126.79V128.835C126.79 128.193 126.606 127.682 126.237 127.301C125.873 126.92 125.393 126.73 124.796 126.73C124.393 126.73 124.029 126.832 123.705 127.037C123.387 127.236 123.134 127.517 122.947 127.881C122.759 128.239 122.665 128.659 122.665 129.142V137H119.035ZM146.891 137.256C145.545 137.256 144.386 136.983 143.414 136.438C142.448 135.886 141.704 135.108 141.181 134.102C140.658 133.091 140.397 131.895 140.397 130.514C140.397 129.168 140.658 127.986 141.181 126.969C141.704 125.952 142.44 125.159 143.388 124.591C144.343 124.023 145.462 123.739 146.746 123.739C147.61 123.739 148.414 123.878 149.158 124.156C149.908 124.429 150.562 124.841 151.119 125.392C151.681 125.943 152.119 126.636 152.431 127.472C152.744 128.301 152.9 129.273 152.9 130.386V131.384H141.846V129.134H149.482C149.482 128.611 149.369 128.148 149.141 127.744C148.914 127.341 148.599 127.026 148.195 126.798C147.798 126.565 147.335 126.449 146.806 126.449C146.255 126.449 145.766 126.577 145.34 126.832C144.92 127.082 144.59 127.42 144.352 127.847C144.113 128.267 143.991 128.736 143.985 129.253V131.392C143.985 132.04 144.104 132.599 144.343 133.071C144.587 133.543 144.931 133.906 145.374 134.162C145.817 134.418 146.343 134.545 146.951 134.545C147.354 134.545 147.724 134.489 148.059 134.375C148.394 134.261 148.681 134.091 148.92 133.864C149.158 133.636 149.34 133.358 149.465 133.028L152.823 133.25C152.653 134.057 152.303 134.761 151.775 135.364C151.252 135.96 150.576 136.426 149.746 136.761C148.923 137.091 147.971 137.256 146.891 137.256ZM165.648 137.213C164.653 137.213 163.753 136.957 162.946 136.446C162.145 135.929 161.509 135.17 161.037 134.17C160.571 133.165 160.338 131.932 160.338 130.472C160.338 128.972 160.58 127.724 161.062 126.73C161.545 125.73 162.188 124.983 162.989 124.489C163.795 123.989 164.679 123.739 165.639 123.739C166.372 123.739 166.983 123.864 167.472 124.114C167.966 124.358 168.364 124.665 168.665 125.034C168.972 125.398 169.205 125.756 169.364 126.108H169.474V119.545H173.097V137H169.517V134.903H169.364C169.193 135.267 168.952 135.628 168.639 135.986C168.332 136.338 167.932 136.631 167.438 136.864C166.949 137.097 166.352 137.213 165.648 137.213ZM166.798 134.324C167.384 134.324 167.878 134.165 168.281 133.847C168.69 133.523 169.003 133.071 169.219 132.491C169.44 131.912 169.551 131.233 169.551 130.455C169.551 129.676 169.443 129 169.227 128.426C169.011 127.852 168.699 127.409 168.29 127.097C167.881 126.784 167.384 126.628 166.798 126.628C166.202 126.628 165.699 126.79 165.29 127.114C164.881 127.437 164.571 127.886 164.361 128.46C164.151 129.034 164.045 129.699 164.045 130.455C164.045 131.216 164.151 131.889 164.361 132.474C164.577 133.054 164.886 133.509 165.29 133.838C165.699 134.162 166.202 134.324 166.798 134.324ZM181.996 137.256C180.673 137.256 179.528 136.974 178.562 136.412C177.602 135.844 176.86 135.054 176.337 134.043C175.815 133.026 175.553 131.847 175.553 130.506C175.553 129.153 175.815 127.972 176.337 126.96C176.86 125.943 177.602 125.153 178.562 124.591C179.528 124.023 180.673 123.739 181.996 123.739C183.32 123.739 184.462 124.023 185.423 124.591C186.388 125.153 187.133 125.943 187.656 126.96C188.178 127.972 188.44 129.153 188.44 130.506C188.44 131.847 188.178 133.026 187.656 134.043C187.133 135.054 186.388 135.844 185.423 136.412C184.462 136.974 183.32 137.256 181.996 137.256ZM182.013 134.443C182.616 134.443 183.119 134.273 183.522 133.932C183.925 133.585 184.229 133.114 184.434 132.517C184.644 131.92 184.749 131.241 184.749 130.48C184.749 129.719 184.644 129.04 184.434 128.443C184.229 127.847 183.925 127.375 183.522 127.028C183.119 126.682 182.616 126.509 182.013 126.509C181.406 126.509 180.894 126.682 180.479 127.028C180.07 127.375 179.761 127.847 179.55 128.443C179.346 129.04 179.244 129.719 179.244 130.48C179.244 131.241 179.346 131.92 179.55 132.517C179.761 133.114 180.07 133.585 180.479 133.932C180.894 134.273 181.406 134.443 182.013 134.443ZM196.423 137V119.545H203.31C204.634 119.545 205.761 119.798 206.693 120.304C207.625 120.804 208.335 121.5 208.824 122.392C209.318 123.278 209.565 124.301 209.565 125.46C209.565 126.619 209.315 127.642 208.815 128.528C208.315 129.415 207.591 130.105 206.642 130.599C205.699 131.094 204.557 131.341 203.216 131.341H198.827V128.384H202.619C203.33 128.384 203.915 128.261 204.375 128.017C204.841 127.767 205.188 127.423 205.415 126.986C205.648 126.543 205.764 126.034 205.764 125.46C205.764 124.881 205.648 124.375 205.415 123.943C205.188 123.506 204.841 123.168 204.375 122.929C203.909 122.685 203.318 122.562 202.602 122.562H200.114V137H196.423ZM211.894 137V123.909H215.414V126.193H215.55C215.789 125.381 216.19 124.767 216.752 124.352C217.315 123.932 217.962 123.722 218.695 123.722C218.877 123.722 219.073 123.733 219.283 123.756C219.494 123.778 219.678 123.81 219.837 123.849V127.071C219.667 127.02 219.431 126.974 219.13 126.935C218.829 126.895 218.553 126.875 218.303 126.875C217.769 126.875 217.292 126.991 216.871 127.224C216.457 127.452 216.127 127.77 215.883 128.179C215.644 128.588 215.525 129.06 215.525 129.594V137H211.894ZM227.02 137.256C225.696 137.256 224.551 136.974 223.585 136.412C222.625 135.844 221.884 135.054 221.361 134.043C220.838 133.026 220.577 131.847 220.577 130.506C220.577 129.153 220.838 127.972 221.361 126.96C221.884 125.943 222.625 125.153 223.585 124.591C224.551 124.023 225.696 123.739 227.02 123.739C228.344 123.739 229.486 124.023 230.446 124.591C231.412 125.153 232.156 125.943 232.679 126.96C233.202 127.972 233.463 129.153 233.463 130.506C233.463 131.847 233.202 133.026 232.679 134.043C232.156 135.054 231.412 135.844 230.446 136.412C229.486 136.974 228.344 137.256 227.02 137.256ZM227.037 134.443C227.639 134.443 228.142 134.273 228.545 133.932C228.949 133.585 229.253 133.114 229.457 132.517C229.668 131.92 229.773 131.241 229.773 130.48C229.773 129.719 229.668 129.04 229.457 128.443C229.253 127.847 228.949 127.375 228.545 127.028C228.142 126.682 227.639 126.509 227.037 126.509C226.429 126.509 225.918 126.682 225.503 127.028C225.094 127.375 224.784 127.847 224.574 128.443C224.369 129.04 224.267 129.719 224.267 130.48C224.267 131.241 224.369 131.92 224.574 132.517C224.784 133.114 225.094 133.585 225.503 133.932C225.918 134.273 226.429 134.443 227.037 134.443ZM242.864 123.909V126.636H234.784V123.909H242.864ZM236.634 137V122.963C236.634 122.014 236.818 121.227 237.188 120.602C237.562 119.977 238.074 119.509 238.722 119.196C239.369 118.884 240.105 118.727 240.929 118.727C241.486 118.727 241.994 118.77 242.455 118.855C242.92 118.94 243.267 119.017 243.494 119.085L242.847 121.812C242.705 121.767 242.528 121.724 242.318 121.685C242.114 121.645 241.903 121.625 241.688 121.625C241.153 121.625 240.781 121.75 240.571 122C240.361 122.244 240.256 122.588 240.256 123.031V137H236.634ZM250.579 137.256C249.232 137.256 248.073 136.983 247.102 136.438C246.136 135.886 245.391 135.108 244.869 134.102C244.346 133.091 244.085 131.895 244.085 130.514C244.085 129.168 244.346 127.986 244.869 126.969C245.391 125.952 246.127 125.159 247.076 124.591C248.031 124.023 249.15 123.739 250.434 123.739C251.298 123.739 252.102 123.878 252.846 124.156C253.596 124.429 254.249 124.841 254.806 125.392C255.369 125.943 255.806 126.636 256.119 127.472C256.431 128.301 256.587 129.273 256.587 130.386V131.384H245.533V129.134H253.17C253.17 128.611 253.056 128.148 252.829 127.744C252.602 127.341 252.286 127.026 251.883 126.798C251.485 126.565 251.022 126.449 250.494 126.449C249.942 126.449 249.454 126.577 249.028 126.832C248.607 127.082 248.278 127.42 248.039 127.847C247.8 128.267 247.678 128.736 247.673 129.253V131.392C247.673 132.04 247.792 132.599 248.031 133.071C248.275 133.543 248.619 133.906 249.062 134.162C249.505 134.418 250.031 134.545 250.638 134.545C251.042 134.545 251.411 134.489 251.746 134.375C252.082 134.261 252.369 134.091 252.607 133.864C252.846 133.636 253.028 133.358 253.153 133.028L256.511 133.25C256.34 134.057 255.991 134.761 255.462 135.364C254.94 135.96 254.263 136.426 253.434 136.761C252.61 137.091 251.658 137.256 250.579 137.256ZM269.849 127.642L266.525 127.847C266.468 127.562 266.346 127.307 266.158 127.08C265.971 126.847 265.724 126.662 265.417 126.526C265.116 126.384 264.755 126.312 264.335 126.312C263.772 126.312 263.298 126.432 262.911 126.67C262.525 126.903 262.332 127.216 262.332 127.608C262.332 127.92 262.457 128.185 262.707 128.401C262.957 128.616 263.386 128.79 263.994 128.92L266.363 129.398C267.636 129.659 268.585 130.08 269.21 130.659C269.835 131.239 270.147 132 270.147 132.943C270.147 133.801 269.894 134.554 269.388 135.202C268.888 135.849 268.201 136.355 267.326 136.719C266.457 137.077 265.454 137.256 264.317 137.256C262.585 137.256 261.204 136.895 260.175 136.173C259.153 135.446 258.553 134.457 258.377 133.207L261.948 133.02C262.056 133.548 262.317 133.952 262.732 134.23C263.147 134.503 263.678 134.639 264.326 134.639C264.962 134.639 265.474 134.517 265.86 134.273C266.252 134.023 266.451 133.702 266.457 133.31C266.451 132.98 266.312 132.71 266.039 132.5C265.766 132.284 265.346 132.119 264.778 132.006L262.511 131.554C261.232 131.298 260.281 130.855 259.656 130.224C259.036 129.594 258.727 128.79 258.727 127.812C258.727 126.972 258.954 126.247 259.408 125.639C259.869 125.031 260.513 124.562 261.343 124.233C262.178 123.903 263.156 123.739 264.275 123.739C265.928 123.739 267.229 124.088 268.178 124.787C269.133 125.486 269.69 126.437 269.849 127.642ZM283.325 127.642L280.001 127.847C279.945 127.562 279.822 127.307 279.635 127.08C279.447 126.847 279.2 126.662 278.893 126.526C278.592 126.384 278.232 126.312 277.811 126.312C277.249 126.312 276.774 126.432 276.388 126.67C276.001 126.903 275.808 127.216 275.808 127.608C275.808 127.92 275.933 128.185 276.183 128.401C276.433 128.616 276.862 128.79 277.47 128.92L279.839 129.398C281.112 129.659 282.061 130.08 282.686 130.659C283.311 131.239 283.624 132 283.624 132.943C283.624 133.801 283.371 134.554 282.865 135.202C282.365 135.849 281.678 136.355 280.803 136.719C279.933 137.077 278.93 137.256 277.794 137.256C276.061 137.256 274.68 136.895 273.652 136.173C272.629 135.446 272.03 134.457 271.854 133.207L275.425 133.02C275.533 133.548 275.794 133.952 276.209 134.23C276.624 134.503 277.155 134.639 277.803 134.639C278.439 134.639 278.95 134.517 279.337 134.273C279.729 134.023 279.928 133.702 279.933 133.31C279.928 132.98 279.788 132.71 279.516 132.5C279.243 132.284 278.822 132.119 278.254 132.006L275.987 131.554C274.709 131.298 273.757 130.855 273.132 130.224C272.513 129.594 272.203 128.79 272.203 127.812C272.203 126.972 272.43 126.247 272.885 125.639C273.345 125.031 273.99 124.562 274.82 124.233C275.655 123.903 276.632 123.739 277.751 123.739C279.405 123.739 280.706 124.088 281.655 124.787C282.609 125.486 283.166 126.437 283.325 127.642ZM291.825 137.256C290.501 137.256 289.356 136.974 288.39 136.412C287.43 135.844 286.688 135.054 286.165 134.043C285.643 133.026 285.381 131.847 285.381 130.506C285.381 129.153 285.643 127.972 286.165 126.96C286.688 125.943 287.43 125.153 288.39 124.591C289.356 124.023 290.501 123.739 291.825 123.739C293.148 123.739 294.29 124.023 295.251 124.591C296.217 125.153 296.961 125.943 297.484 126.96C298.006 127.972 298.268 129.153 298.268 130.506C298.268 131.847 298.006 133.026 297.484 134.043C296.961 135.054 296.217 135.844 295.251 136.412C294.29 136.974 293.148 137.256 291.825 137.256ZM291.842 134.443C292.444 134.443 292.947 134.273 293.35 133.932C293.754 133.585 294.058 133.114 294.262 132.517C294.472 131.92 294.577 131.241 294.577 130.48C294.577 129.719 294.472 129.04 294.262 128.443C294.058 127.847 293.754 127.375 293.35 127.028C292.947 126.682 292.444 126.509 291.842 126.509C291.234 126.509 290.722 126.682 290.308 127.028C289.898 127.375 289.589 127.847 289.379 128.443C289.174 129.04 289.072 129.719 289.072 130.48C289.072 131.241 289.174 131.92 289.379 132.517C289.589 133.114 289.898 133.585 290.308 133.932C290.722 134.273 291.234 134.443 291.842 134.443ZM300.629 137V123.909H304.148V126.193H304.285C304.523 125.381 304.924 124.767 305.487 124.352C306.049 123.932 306.697 123.722 307.43 123.722C307.612 123.722 307.808 123.733 308.018 123.756C308.228 123.778 308.413 123.81 308.572 123.849V127.071C308.401 127.02 308.165 126.974 307.864 126.935C307.563 126.895 307.288 126.875 307.038 126.875C306.504 126.875 306.026 126.991 305.606 127.224C305.191 127.452 304.862 127.77 304.617 128.179C304.379 128.588 304.259 129.06 304.259 129.594V137H300.629Z" fill="white"/>
</g>
<line id="Line 1" x1="41" y1="110.5" x2="301" y2="110.5" stroke="white"/>
<g id="Frame Disciplina">
<path id="Nome da disciplina" d="M40.1165 74.0455V91.5H36.929L29.3352 80.5142H29.2074V91.5H25.517V74.0455H28.7557L36.2898 85.0227H36.4432V74.0455H40.1165ZM49.0121 91.7557C47.6882 91.7557 46.5433 91.4744 45.5774 90.9119C44.6172 90.3437 43.8757 89.554 43.353 88.5426C42.8303 87.5256 42.5689 86.3466 42.5689 85.0057C42.5689 83.6534 42.8303 82.4716 43.353 81.4602C43.8757 80.4432 44.6172 79.6534 45.5774 79.0909C46.5433 78.5227 47.6882 78.2386 49.0121 78.2386C50.3359 78.2386 51.478 78.5227 52.4382 79.0909C53.4041 79.6534 54.1484 80.4432 54.6712 81.4602C55.1939 82.4716 55.4553 83.6534 55.4553 85.0057C55.4553 86.3466 55.1939 87.5256 54.6712 88.5426C54.1484 89.554 53.4041 90.3437 52.4382 90.9119C51.478 91.4744 50.3359 91.7557 49.0121 91.7557ZM49.0291 88.9432C49.6314 88.9432 50.1342 88.7727 50.5376 88.4318C50.9411 88.0852 51.245 87.6136 51.4496 87.017C51.6598 86.4205 51.7649 85.7415 51.7649 84.9801C51.7649 84.2188 51.6598 83.5398 51.4496 82.9432C51.245 82.3466 50.9411 81.875 50.5376 81.5284C50.1342 81.1818 49.6314 81.0085 49.0291 81.0085C48.4212 81.0085 47.9098 81.1818 47.495 81.5284C47.0859 81.875 46.7763 82.3466 46.5661 82.9432C46.3615 83.5398 46.2592 84.2188 46.2592 84.9801C46.2592 85.7415 46.3615 86.4205 46.5661 87.017C46.7763 87.6136 47.0859 88.0852 47.495 88.4318C47.9098 88.7727 48.4212 88.9432 49.0291 88.9432ZM57.8161 91.5V78.4091H61.2763V80.7188H61.4297C61.7024 79.9517 62.157 79.3466 62.7933 78.9034C63.4297 78.4602 64.1911 78.2386 65.0774 78.2386C65.9751 78.2386 66.7393 78.4631 67.37 78.9119C68.0007 79.3551 68.4212 79.9574 68.6314 80.7188H68.7678C69.0348 79.9688 69.5178 79.3693 70.2166 78.9205C70.9212 78.4659 71.7536 78.2386 72.7138 78.2386C73.9354 78.2386 74.9268 78.6278 75.6882 79.4062C76.4553 80.179 76.8388 81.2756 76.8388 82.696V91.5H73.2166V83.4119C73.2166 82.6847 73.0234 82.1392 72.6371 81.7756C72.2507 81.4119 71.7678 81.2301 71.1882 81.2301C70.5291 81.2301 70.0149 81.4403 69.6456 81.8608C69.2763 82.2756 69.0916 82.8239 69.0916 83.5057V91.5H65.5717V83.3352C65.5717 82.6932 65.3871 82.1818 65.0178 81.8011C64.6541 81.4205 64.174 81.2301 63.5774 81.2301C63.174 81.2301 62.8104 81.3324 62.4865 81.5369C62.1683 81.7358 61.9155 82.017 61.728 82.3807C61.5405 82.7386 61.4467 83.1591 61.4467 83.642V91.5H57.8161ZM85.6726 91.7557C84.326 91.7557 83.1669 91.483 82.1953 90.9375C81.2294 90.3864 80.4851 89.608 79.9624 88.6023C79.4396 87.5909 79.1783 86.3949 79.1783 85.0142C79.1783 83.6676 79.4396 82.4858 79.9624 81.4688C80.4851 80.4517 81.2209 79.6591 82.1697 79.0909C83.1243 78.5227 84.2436 78.2386 85.5277 78.2386C86.3913 78.2386 87.1953 78.3778 87.9396 78.6562C88.6896 78.929 89.343 79.3409 89.8999 79.892C90.4624 80.4432 90.8999 81.1364 91.2124 81.9716C91.5249 82.8011 91.6811 83.7727 91.6811 84.8864V85.8835H80.6271V83.6335H88.2635C88.2635 83.1108 88.1499 82.6477 87.9226 82.2443C87.6953 81.8409 87.38 81.5256 86.9766 81.2983C86.5788 81.0653 86.1158 80.9489 85.5874 80.9489C85.0362 80.9489 84.5476 81.0767 84.1214 81.3324C83.701 81.5824 83.3714 81.9205 83.1328 82.3466C82.8942 82.767 82.772 83.2358 82.7663 83.7528V85.892C82.7663 86.5398 82.8857 87.0994 83.1243 87.571C83.3686 88.0426 83.7124 88.4062 84.1555 88.6619C84.5987 88.9176 85.1243 89.0455 85.7322 89.0455C86.1357 89.0455 86.505 88.9886 86.8402 88.875C87.1754 88.7614 87.4624 88.5909 87.701 88.3636C87.9396 88.1364 88.1214 87.858 88.2464 87.5284L91.6044 87.75C91.4339 88.5568 91.0845 89.2614 90.5561 89.8636C90.0334 90.4602 89.3572 90.9261 88.5277 91.2614C87.7038 91.5909 86.7521 91.7557 85.6726 91.7557ZM104.429 91.7131C103.435 91.7131 102.534 91.4574 101.727 90.946C100.926 90.429 100.29 89.6705 99.8182 88.6705C99.3523 87.6648 99.1193 86.4318 99.1193 84.9716C99.1193 83.4716 99.3608 82.2244 99.8438 81.2301C100.327 80.2301 100.969 79.483 101.77 78.9886C102.577 78.4886 103.46 78.2386 104.42 78.2386C105.153 78.2386 105.764 78.3636 106.253 78.6136C106.747 78.858 107.145 79.1648 107.446 79.5341C107.753 79.8977 107.986 80.2557 108.145 80.608H108.256V74.0455H111.878V91.5H108.298V89.4034H108.145C107.974 89.767 107.733 90.1278 107.42 90.4858C107.114 90.8381 106.713 91.1307 106.219 91.3636C105.73 91.5966 105.134 91.7131 104.429 91.7131ZM105.58 88.8239C106.165 88.8239 106.659 88.6648 107.062 88.3466C107.472 88.0227 107.784 87.571 108 86.9915C108.222 86.4119 108.332 85.733 108.332 84.9545C108.332 84.1761 108.224 83.5 108.009 82.9261C107.793 82.3523 107.48 81.9091 107.071 81.5966C106.662 81.2841 106.165 81.1278 105.58 81.1278C104.983 81.1278 104.48 81.2898 104.071 81.6136C103.662 81.9375 103.352 82.3864 103.142 82.9602C102.932 83.5341 102.827 84.1989 102.827 84.9545C102.827 85.7159 102.932 86.3892 103.142 86.9744C103.358 87.554 103.668 88.0085 104.071 88.3381C104.48 88.6619 104.983 88.8239 105.58 88.8239ZM118.596 91.7472C117.761 91.7472 117.016 91.6023 116.363 91.3125C115.71 91.017 115.192 90.5824 114.812 90.0085C114.437 89.429 114.249 88.7074 114.249 87.8438C114.249 87.1165 114.383 86.5057 114.65 86.0114C114.917 85.517 115.281 85.1193 115.741 84.8182C116.201 84.517 116.724 84.2898 117.309 84.1364C117.9 83.983 118.519 83.875 119.167 83.8125C119.928 83.733 120.542 83.6591 121.008 83.5909C121.474 83.517 121.812 83.4091 122.022 83.267C122.232 83.125 122.337 82.9148 122.337 82.6364V82.5852C122.337 82.0455 122.167 81.6278 121.826 81.3324C121.491 81.0369 121.013 80.8892 120.394 80.8892C119.741 80.8892 119.221 81.0341 118.835 81.3239C118.448 81.608 118.192 81.9659 118.067 82.3977L114.71 82.125C114.88 81.3295 115.215 80.642 115.715 80.0625C116.215 79.4773 116.86 79.0284 117.65 78.7159C118.445 78.3977 119.366 78.2386 120.411 78.2386C121.138 78.2386 121.835 78.3239 122.499 78.4943C123.17 78.6648 123.763 78.929 124.281 79.2869C124.803 79.6449 125.215 80.1051 125.516 80.6676C125.817 81.2244 125.968 81.892 125.968 82.6705V91.5H122.525V89.6847H122.423C122.212 90.0938 121.931 90.4545 121.579 90.767C121.227 91.0739 120.803 91.3153 120.309 91.4915C119.815 91.6619 119.244 91.7472 118.596 91.7472ZM119.636 89.2415C120.17 89.2415 120.641 89.1364 121.05 88.9261C121.46 88.7102 121.781 88.4205 122.013 88.0568C122.246 87.6932 122.363 87.2812 122.363 86.821V85.4318C122.249 85.5057 122.093 85.5739 121.894 85.6364C121.701 85.6932 121.482 85.7472 121.238 85.7983C120.994 85.8437 120.749 85.8864 120.505 85.9261C120.261 85.9602 120.039 85.9915 119.84 86.0199C119.414 86.0824 119.042 86.1818 118.724 86.3182C118.406 86.4545 118.158 86.6392 117.982 86.8722C117.806 87.0994 117.718 87.3835 117.718 87.7244C117.718 88.2188 117.897 88.5966 118.255 88.858C118.619 89.1136 119.079 89.2415 119.636 89.2415ZM139.163 91.7131C138.169 91.7131 137.268 91.4574 136.462 90.946C135.661 90.429 135.024 89.6705 134.553 88.6705C134.087 87.6648 133.854 86.4318 133.854 84.9716C133.854 83.4716 134.095 82.2244 134.578 81.2301C135.061 80.2301 135.703 79.483 136.504 78.9886C137.311 78.4886 138.195 78.2386 139.155 78.2386C139.888 78.2386 140.499 78.3636 140.987 78.6136C141.482 78.858 141.879 79.1648 142.18 79.5341C142.487 79.8977 142.72 80.2557 142.879 80.608H142.99V74.0455H146.612V91.5H143.033V89.4034H142.879C142.709 89.767 142.467 90.1278 142.155 90.4858C141.848 90.8381 141.447 91.1307 140.953 91.3636C140.464 91.5966 139.868 91.7131 139.163 91.7131ZM140.314 88.8239C140.899 88.8239 141.393 88.6648 141.797 88.3466C142.206 88.0227 142.518 87.571 142.734 86.9915C142.956 86.4119 143.067 85.733 143.067 84.9545C143.067 84.1761 142.959 83.5 142.743 82.9261C142.527 82.3523 142.214 81.9091 141.805 81.5966C141.396 81.2841 140.899 81.1278 140.314 81.1278C139.717 81.1278 139.214 81.2898 138.805 81.6136C138.396 81.9375 138.087 82.3864 137.876 82.9602C137.666 83.5341 137.561 84.1989 137.561 84.9545C137.561 85.7159 137.666 86.3892 137.876 86.9744C138.092 87.554 138.402 88.0085 138.805 88.3381C139.214 88.6619 139.717 88.8239 140.314 88.8239ZM149.597 91.5V78.4091H153.228V91.5H149.597ZM151.421 76.7216C150.881 76.7216 150.418 76.5426 150.032 76.1847C149.651 75.821 149.461 75.3864 149.461 74.8807C149.461 74.3807 149.651 73.9517 150.032 73.5938C150.418 73.2301 150.881 73.0483 151.421 73.0483C151.961 73.0483 152.421 73.2301 152.802 73.5938C153.188 73.9517 153.381 74.3807 153.381 74.8807C153.381 75.3864 153.188 75.821 152.802 76.1847C152.421 76.5426 151.961 76.7216 151.421 76.7216ZM167.028 82.142L163.705 82.3466C163.648 82.0625 163.526 81.8068 163.338 81.5795C163.151 81.3466 162.903 81.1619 162.597 81.0256C162.295 80.8835 161.935 80.8125 161.514 80.8125C160.952 80.8125 160.477 80.9318 160.091 81.1705C159.705 81.4034 159.511 81.7159 159.511 82.108C159.511 82.4205 159.636 82.6847 159.886 82.9006C160.136 83.1165 160.565 83.2898 161.173 83.4205L163.543 83.8977C164.815 84.1591 165.764 84.5795 166.389 85.1591C167.014 85.7386 167.327 86.5 167.327 87.4432C167.327 88.3011 167.074 89.054 166.568 89.7017C166.068 90.3494 165.381 90.8551 164.506 91.2188C163.636 91.5767 162.634 91.7557 161.497 91.7557C159.764 91.7557 158.384 91.3949 157.355 90.6733C156.332 89.946 155.733 88.9574 155.557 87.7074L159.128 87.5199C159.236 88.0483 159.497 88.4517 159.912 88.7301C160.327 89.0028 160.858 89.1392 161.506 89.1392C162.142 89.1392 162.653 89.017 163.04 88.7727C163.432 88.5227 163.631 88.2017 163.636 87.8097C163.631 87.4801 163.491 87.2102 163.219 87C162.946 86.7841 162.526 86.6193 161.957 86.5057L159.69 86.054C158.412 85.7983 157.46 85.3551 156.835 84.7244C156.216 84.0937 155.906 83.2898 155.906 82.3125C155.906 81.4716 156.134 80.7472 156.588 80.1392C157.048 79.5312 157.693 79.0625 158.523 78.733C159.358 78.4034 160.335 78.2386 161.455 78.2386C163.108 78.2386 164.409 78.5881 165.358 79.2869C166.313 79.9858 166.869 80.9375 167.028 82.142ZM175.528 91.7557C174.187 91.7557 173.033 91.4716 172.067 90.9034C171.107 90.3295 170.369 89.5341 169.852 88.517C169.34 87.5 169.085 86.3295 169.085 85.0057C169.085 83.6648 169.343 82.4886 169.86 81.4773C170.383 80.4602 171.124 79.6676 172.085 79.0994C173.045 78.5256 174.187 78.2386 175.511 78.2386C176.653 78.2386 177.653 78.446 178.511 78.8608C179.369 79.2756 180.048 79.858 180.548 80.608C181.048 81.358 181.323 82.2386 181.374 83.25H177.948C177.852 82.5966 177.596 82.071 177.181 81.6733C176.772 81.2699 176.235 81.0682 175.57 81.0682C175.008 81.0682 174.516 81.2216 174.096 81.5284C173.681 81.8295 173.357 82.2699 173.124 82.8494C172.891 83.429 172.775 84.1307 172.775 84.9545C172.775 85.7898 172.888 86.5 173.116 87.0852C173.349 87.6705 173.675 88.1165 174.096 88.4233C174.516 88.7301 175.008 88.8835 175.57 88.8835C175.985 88.8835 176.357 88.7983 176.687 88.6278C177.022 88.4574 177.298 88.2102 177.513 87.8864C177.735 87.5568 177.88 87.1619 177.948 86.7017H181.374C181.317 87.7017 181.045 88.5824 180.556 89.3438C180.073 90.0994 179.406 90.6903 178.553 91.1165C177.701 91.5426 176.692 91.7557 175.528 91.7557ZM183.699 91.5V78.4091H187.33V91.5H183.699ZM185.523 76.7216C184.983 76.7216 184.52 76.5426 184.134 76.1847C183.753 75.821 183.562 75.3864 183.562 74.8807C183.562 74.3807 183.753 73.9517 184.134 73.5938C184.52 73.2301 184.983 73.0483 185.523 73.0483C186.063 73.0483 186.523 73.2301 186.903 73.5938C187.29 73.9517 187.483 74.3807 187.483 74.8807C187.483 75.3864 187.29 75.821 186.903 76.1847C186.523 76.5426 186.063 76.7216 185.523 76.7216ZM190.238 96.4091V78.4091H193.817V80.608H193.979C194.138 80.2557 194.369 79.8977 194.67 79.5341C194.977 79.1648 195.374 78.858 195.863 78.6136C196.357 78.3636 196.971 78.2386 197.704 78.2386C198.658 78.2386 199.539 78.4886 200.346 78.9886C201.153 79.483 201.798 80.2301 202.281 81.2301C202.763 82.2244 203.005 83.4716 203.005 84.9716C203.005 86.4318 202.769 87.6648 202.298 88.6705C201.832 89.6705 201.195 90.429 200.388 90.946C199.587 91.4574 198.69 91.7131 197.695 91.7131C196.991 91.7131 196.391 91.5966 195.897 91.3636C195.408 91.1307 195.008 90.8381 194.695 90.4858C194.383 90.1278 194.144 89.767 193.979 89.4034H193.869V96.4091H190.238ZM193.792 84.9545C193.792 85.733 193.9 86.4119 194.116 86.9915C194.332 87.571 194.644 88.0227 195.053 88.3466C195.462 88.6648 195.96 88.8239 196.545 88.8239C197.136 88.8239 197.636 88.6619 198.045 88.3381C198.454 88.0085 198.763 87.554 198.974 86.9744C199.19 86.3892 199.298 85.7159 199.298 84.9545C199.298 84.1989 199.192 83.5341 198.982 82.9602C198.772 82.3864 198.462 81.9375 198.053 81.6136C197.644 81.2898 197.141 81.1278 196.545 81.1278C195.954 81.1278 195.454 81.2841 195.045 81.5966C194.641 81.9091 194.332 82.3523 194.116 82.9261C193.9 83.5 193.792 84.1761 193.792 84.9545ZM209.056 74.0455V91.5H205.425V74.0455H209.056ZM211.964 91.5V78.4091H215.595V91.5H211.964ZM213.788 76.7216C213.249 76.7216 212.786 76.5426 212.399 76.1847C212.018 75.821 211.828 75.3864 211.828 74.8807C211.828 74.3807 212.018 73.9517 212.399 73.5938C212.786 73.2301 213.249 73.0483 213.788 73.0483C214.328 73.0483 214.788 73.2301 215.169 73.5938C215.555 73.9517 215.749 74.3807 215.749 74.8807C215.749 75.3864 215.555 75.821 215.169 76.1847C214.788 76.5426 214.328 76.7216 213.788 76.7216ZM222.134 83.9318V91.5H218.504V78.4091H221.964V80.7188H222.117C222.407 79.9574 222.893 79.3551 223.575 78.9119C224.256 78.4631 225.083 78.2386 226.055 78.2386C226.964 78.2386 227.756 78.4375 228.433 78.8352C229.109 79.233 229.634 79.8011 230.009 80.5398C230.384 81.2727 230.572 82.1477 230.572 83.1648V91.5H226.941V83.8125C226.947 83.0114 226.742 82.3864 226.327 81.9375C225.913 81.483 225.342 81.2557 224.614 81.2557C224.126 81.2557 223.694 81.3608 223.319 81.571C222.95 81.7812 222.66 82.0881 222.45 82.4915C222.245 82.8892 222.14 83.3693 222.134 83.9318ZM237.166 91.7472C236.331 91.7472 235.587 91.6023 234.933 91.3125C234.28 91.017 233.763 90.5824 233.382 90.0085C233.007 89.429 232.82 88.7074 232.82 87.8438C232.82 87.1165 232.953 86.5057 233.22 86.0114C233.487 85.517 233.851 85.1193 234.311 84.8182C234.771 84.517 235.294 84.2898 235.879 84.1364C236.47 83.983 237.089 83.875 237.737 83.8125C238.499 83.733 239.112 83.6591 239.578 83.5909C240.044 83.517 240.382 83.4091 240.592 83.267C240.803 83.125 240.908 82.9148 240.908 82.6364V82.5852C240.908 82.0455 240.737 81.6278 240.396 81.3324C240.061 81.0369 239.584 80.8892 238.964 80.8892C238.311 80.8892 237.791 81.0341 237.405 81.3239C237.018 81.608 236.763 81.9659 236.638 82.3977L233.28 82.125C233.45 81.3295 233.786 80.642 234.286 80.0625C234.786 79.4773 235.43 79.0284 236.22 78.7159C237.016 78.3977 237.936 78.2386 238.982 78.2386C239.709 78.2386 240.405 78.3239 241.07 78.4943C241.74 78.6648 242.334 78.929 242.851 79.2869C243.374 79.6449 243.786 80.1051 244.087 80.6676C244.388 81.2244 244.538 81.892 244.538 82.6705V91.5H241.095V89.6847H240.993C240.783 90.0938 240.501 90.4545 240.149 90.767C239.797 91.0739 239.374 91.3153 238.879 91.4915C238.385 91.6619 237.814 91.7472 237.166 91.7472ZM238.206 89.2415C238.74 89.2415 239.212 89.1364 239.621 88.9261C240.03 88.7102 240.351 88.4205 240.584 88.0568C240.817 87.6932 240.933 87.2812 240.933 86.821V85.4318C240.82 85.5057 240.663 85.5739 240.464 85.6364C240.271 85.6932 240.053 85.7472 239.808 85.7983C239.564 85.8437 239.32 85.8864 239.075 85.9261C238.831 85.9602 238.609 85.9915 238.411 86.0199C237.984 86.0824 237.612 86.1818 237.294 86.3182C236.976 86.4545 236.729 86.6392 236.553 86.8722C236.376 87.0994 236.288 87.3835 236.288 87.7244C236.288 88.2188 236.467 88.5966 236.825 88.858C237.189 89.1136 237.649 89.2415 238.206 89.2415Z" fill="white"/>
</g>
<g id="Fita de conflitos">
<path d="M124 188C124 165.909 141.909 148 164 148H317C317 173.957 295.957 195 270 195H124V188Z" fill="#A11C1C"/>
<path id="N&#195;&#186;mero de conflitos" d="M149.136 160.727V184H144.216V165.398H144.08L138.75 168.739V164.375L144.511 160.727H149.136ZM163.27 184.318C161.573 184.318 160.062 184.027 158.736 183.443C157.418 182.852 156.376 182.042 155.611 181.011C154.853 179.973 154.463 178.777 154.44 177.42H159.395C159.425 177.989 159.611 178.489 159.952 178.92C160.3 179.345 160.762 179.674 161.338 179.909C161.914 180.144 162.562 180.261 163.281 180.261C164.031 180.261 164.694 180.129 165.27 179.864C165.846 179.598 166.296 179.231 166.622 178.761C166.948 178.292 167.111 177.75 167.111 177.136C167.111 176.515 166.937 175.966 166.588 175.489C166.247 175.004 165.755 174.625 165.111 174.352C164.474 174.08 163.717 173.943 162.838 173.943H160.668V170.33H162.838C163.58 170.33 164.236 170.201 164.804 169.943C165.38 169.686 165.827 169.33 166.145 168.875C166.463 168.413 166.622 167.875 166.622 167.261C166.622 166.678 166.482 166.167 166.202 165.727C165.929 165.28 165.543 164.932 165.043 164.682C164.55 164.432 163.974 164.307 163.315 164.307C162.649 164.307 162.039 164.428 161.486 164.67C160.933 164.905 160.49 165.242 160.156 165.682C159.823 166.121 159.645 166.636 159.622 167.227H154.906C154.929 165.886 155.312 164.705 156.054 163.682C156.796 162.659 157.796 161.86 159.054 161.284C160.319 160.701 161.747 160.409 163.338 160.409C164.944 160.409 166.349 160.701 167.554 161.284C168.759 161.867 169.694 162.655 170.361 163.648C171.035 164.633 171.368 165.739 171.361 166.966C171.368 168.269 170.963 169.356 170.145 170.227C169.334 171.098 168.277 171.652 166.974 171.886V172.068C168.687 172.288 169.99 172.883 170.884 173.852C171.785 174.814 172.232 176.019 172.224 177.466C172.232 178.792 171.849 179.97 171.077 181C170.312 182.03 169.255 182.841 167.906 183.432C166.558 184.023 165.012 184.318 163.27 184.318Z" fill="white"/>
<g id="User Remove Subtract">
<g id="user-remove-subtract--actions-remove-close-geometric-human-person-minus-single-up-user">
<path id="Vector" d="M187.393 169.964C188.814 169.964 190.176 169.4 191.181 168.395C192.186 167.391 192.75 166.028 192.75 164.607C192.75 163.186 192.186 161.824 191.181 160.819C190.176 159.814 188.814 159.25 187.393 159.25C185.972 159.25 184.609 159.814 183.605 160.819C182.6 161.824 182.036 163.186 182.036 164.607C182.036 166.028 182.6 167.391 183.605 168.395C184.609 169.4 185.972 169.964 187.393 169.964Z" stroke="white" stroke-width="1.71429" stroke-linecap="round" stroke-linejoin="round"/>
<path id="Vector_2" d="M190.607 184.964H177.75V183.803C177.764 182.507 178.038 181.228 178.556 180.04C179.074 178.853 179.826 177.782 180.766 176.891C181.706 176 182.816 175.306 184.03 174.853C185.243 174.399 186.536 174.194 187.83 174.25C189.112 174.311 190.369 174.626 191.528 175.178C192.687 175.73 193.725 176.507 194.58 177.464" stroke="white" stroke-width="1.71429" stroke-linecap="round" stroke-linejoin="round"/>
</g>
<g id="X">
<path id="Vector_3" d="M192.75 180.5L200.25 188" stroke="white" stroke-width="1.71429" stroke-linecap="round" stroke-linejoin="round"/>
<path id="Vector_3_2" d="M200.25 180.5L192.75 188" stroke="white" stroke-width="1.71429" stroke-linecap="round" stroke-linejoin="round"/>
</g>
</g>
</g>
<g id="Fita de inscritos">
<path d="M206 188C206 165.909 223.909 148 246 148H317C317 173.957 295.957 195 270 195H206V188Z" fill="#7F7F7F"/>
<path id="N&#195;&#186;mero de alunos inscritos" d="M224.793 184V180.455L233.077 172.784C233.781 172.102 234.372 171.489 234.849 170.943C235.334 170.398 235.702 169.864 235.952 169.341C236.202 168.811 236.327 168.239 236.327 167.625C236.327 166.943 236.171 166.356 235.861 165.864C235.55 165.364 235.126 164.981 234.588 164.716C234.05 164.443 233.44 164.307 232.759 164.307C232.046 164.307 231.425 164.451 230.895 164.739C230.365 165.027 229.955 165.439 229.668 165.977C229.38 166.515 229.236 167.155 229.236 167.898H224.565C224.565 166.375 224.91 165.053 225.599 163.932C226.289 162.811 227.255 161.943 228.497 161.33C229.74 160.716 231.171 160.409 232.793 160.409C234.459 160.409 235.91 160.705 237.145 161.295C238.387 161.879 239.353 162.689 240.043 163.727C240.732 164.765 241.077 165.955 241.077 167.295C241.077 168.174 240.902 169.042 240.554 169.898C240.213 170.754 239.603 171.705 238.724 172.75C237.846 173.788 236.607 175.034 235.009 176.489L231.611 179.818V179.977H241.384V184H224.793ZM245.869 184L255.517 164.909V164.75H244.278V160.727H260.608V164.807L250.949 184H245.869Z" fill="white"/>
<g id="User Multiple Group">
<g id="user-multiple-group--close-geometric-human-multiple-person-up-user">
<path id="Vector_4" d="M272.714 170.929C274.135 170.929 275.498 170.364 276.502 169.36C277.507 168.355 278.071 166.992 278.071 165.571C278.071 164.151 277.507 162.788 276.502 161.783C275.498 160.779 274.135 160.214 272.714 160.214C271.294 160.214 269.931 160.779 268.926 161.783C267.922 162.788 267.357 164.151 267.357 165.571C267.357 166.992 267.922 168.355 268.926 169.36C269.931 170.364 271.294 170.929 272.714 170.929Z" stroke="white" stroke-width="1.71429" stroke-linecap="round" stroke-linejoin="round"/>
<path id="Vector_2_2" d="M263.071 185.929H282.357V184.767C282.343 183.472 282.069 182.192 281.551 181.005C281.033 179.817 280.282 178.746 279.341 177.855C278.401 176.964 277.291 176.271 276.077 175.817C274.864 175.364 273.571 175.158 272.277 175.214C269.813 175.331 267.488 176.386 265.776 178.162C264.065 179.938 263.097 182.301 263.071 184.767V185.929Z" stroke="white" stroke-width="1.71429" stroke-linecap="round" stroke-linejoin="round"/>
<path id="Vector_3_3" d="M281.286 170.929C282.706 170.929 284.069 170.364 285.074 169.36C286.078 168.355 286.643 166.992 286.643 165.571C286.643 164.151 286.078 162.788 285.074 161.783C284.069 160.779 282.706 160.214 281.286 160.214" stroke="white" stroke-width="1.71429" stroke-linecap="round" stroke-linejoin="round"/>
<path id="Vector_4_2" d="M286.643 185.929H290.929V184.767C290.906 182.598 290.154 180.499 288.793 178.809C287.433 177.119 285.543 175.936 283.429 175.45" stroke="white" stroke-width="1.71429" stroke-linecap="round" stroke-linejoin="round"/>
</g>
</g>
</g>
</g>
<g id="Top">
<path d="M0 56C0 50.428 0 47.6421 0.221902 45.2946C2.48064 21.3996 21.3996 2.48064 45.2946 0.221902C47.6421 0 50.428 0 56 0H261C266.572 0 269.358 0 271.705 0.221902C295.6 2.48064 314.519 21.3996 316.778 45.2946C317 47.6421 317 50.428 317 56H0Z" fill="#887AC1"/>
<g id="Pencil">
<g id="pencil--change-edit-modify-pencil-write-writing">
<g id="Vector_5" filter="url(#filter0_d_38_1496)">
<path d="M231.714 38.2286L222.071 40.9286L224.771 31.2857L242.429 13.7143C242.628 13.5102 242.866 13.348 243.13 13.2373C243.393 13.1266 243.675 13.0695 243.961 13.0695C244.246 13.0695 244.529 13.1266 244.792 13.2373C245.055 13.348 245.293 13.5102 245.493 13.7143L249.286 17.5286C249.486 17.7279 249.645 17.965 249.754 18.2261C249.863 18.4872 249.919 18.7672 249.919 19.05C249.919 19.3328 249.863 19.6128 249.754 19.8739C249.645 20.135 249.486 20.3721 249.286 20.5714L231.714 38.2286Z" stroke="white" stroke-width="1.71429" stroke-linecap="round" stroke-linejoin="round" shape-rendering="crispEdges"/>
</g>
</g>
</g>
<g id="Class Lock Icon" filter="url(#filter1_d_38_1496)">
<g id="browser-lock--secure-password-window-browser-lock-security-login-encryption">
<path id="Vector 2567" d="M187.179 34.5V30.2143C187.179 29.9302 187.291 29.6576 187.492 29.4567C187.693 29.2558 187.966 29.1429 188.25 29.1429H195.75C196.034 29.1429 196.307 29.2558 196.508 29.4567C196.709 29.6576 196.821 29.9302 196.821 30.2143V34.5C196.821 34.7842 196.709 35.0567 196.508 35.2576C196.307 35.4586 196.034 35.5715 195.75 35.5715H188.25C187.966 35.5715 187.693 35.4586 187.492 35.2576C187.291 35.0567 187.179 34.7842 187.179 34.5Z" stroke="white" stroke-width="1.71429" stroke-linejoin="round"/>
<path id="Vector 2568" d="M188.786 29.1429V27C188.786 26.1475 189.124 25.33 189.727 24.7272C190.33 24.1244 191.148 23.7857 192 23.7857C192.852 23.7857 193.67 24.1244 194.273 24.7272C194.876 25.33 195.214 26.1475 195.214 27V29.1429" stroke="white" stroke-width="1.71429" stroke-linecap="round" stroke-linejoin="round"/>
<path id="Vector_6" d="M178.071 19.4872H205.929" stroke="white" stroke-width="1.71429" stroke-linecap="round" stroke-linejoin="round"/>
<path id="Vector_2_3" d="M203.786 13.0714H180.214C179.646 13.0714 179.101 13.2972 178.699 13.6991C178.297 14.1009 178.071 14.646 178.071 15.2143V38.7857C178.071 39.3541 178.297 39.8991 178.699 40.301C179.101 40.7028 179.646 40.9286 180.214 40.9286H203.786C204.354 40.9286 204.899 40.7028 205.301 40.301C205.703 39.8991 205.929 39.3541 205.929 38.7857V15.2143C205.929 14.646 205.703 14.1009 205.301 13.6991C204.899 13.2972 204.354 13.0714 203.786 13.0714Z" stroke="white" stroke-width="1.71429" stroke-linecap="round" stroke-linejoin="round"/>
</g>
</g>
<g id="Classcode">
<path d="M0 50C0 22.3858 22.3858 0 50 0H105V6C105 33.6142 82.6142 56 55 56H0V50Z" fill="#0BC28B"/>
<path id="C&#195;&#179;digo Disciplina" d="M29.6076 23.2727V32H27.7624V23.2727H29.6076ZM38.4254 23.2727V32H36.8317L33.0348 26.5071H32.9709V32H31.1257V23.2727H32.745L36.5121 28.7614H36.5888V23.2727H38.4254ZM39.9499 32V23.2727H45.7283V24.794H41.7951V26.8736H45.3448V28.3949H41.7951V32H39.9499ZM50.3402 32.1918C49.6072 32.1889 48.9766 32.0085 48.4482 31.6506C47.9226 31.2926 47.5178 30.7741 47.2337 30.0952C46.9524 29.4162 46.8132 28.5994 46.8161 27.6449C46.8161 26.6932 46.9567 25.8821 47.2379 25.2116C47.522 24.5412 47.9268 24.0312 48.4524 23.6818C48.9808 23.3295 49.6101 23.1534 50.3402 23.1534C51.0703 23.1534 51.6982 23.3295 52.2237 23.6818C52.7521 24.0341 53.1584 24.5455 53.4425 25.2159C53.7266 25.8835 53.8672 26.6932 53.8643 27.6449C53.8643 28.6023 53.7223 29.4205 53.4382 30.0994C53.157 30.7784 52.7536 31.2969 52.228 31.6548C51.7024 32.0128 51.0732 32.1918 50.3402 32.1918ZM50.3402 30.6619C50.8402 30.6619 51.2393 30.4105 51.5376 29.9077C51.8359 29.4048 51.9837 28.6506 51.9808 27.6449C51.9808 26.983 51.9126 26.4318 51.7763 25.9915C51.6428 25.5511 51.4524 25.2202 51.2053 24.9986C50.9609 24.777 50.6726 24.6662 50.3402 24.6662C49.843 24.6662 49.4453 24.9148 49.147 25.4119C48.8487 25.9091 48.6982 26.6534 48.6953 27.6449C48.6953 28.3153 48.7621 28.875 48.8956 29.3239C49.032 29.7699 49.2237 30.1051 49.4709 30.3295C49.718 30.5511 50.0078 30.6619 50.3402 30.6619ZM58.9769 23.2727V32H57.1317V25.0241H57.0806L55.082 26.277V24.6406L57.2425 23.2727H58.9769ZM64.848 23.2727V32H63.0028V25.0241H62.9517L60.9531 26.277V24.6406L63.1136 23.2727H64.848ZM70.1481 32.1193C69.5117 32.1193 68.945 32.0099 68.4478 31.7912C67.9535 31.5696 67.5629 31.2656 67.2759 30.8793C66.9918 30.4901 66.8455 30.0412 66.837 29.5327H68.695C68.7063 29.7457 68.7759 29.9332 68.9038 30.0952C69.0344 30.2543 69.2077 30.3778 69.4237 30.4659C69.6396 30.554 69.8825 30.598 70.1523 30.598C70.4336 30.598 70.6822 30.5483 70.8981 30.4489C71.114 30.3494 71.283 30.2116 71.4052 30.0355C71.5273 29.8594 71.5884 29.6562 71.5884 29.4261C71.5884 29.1932 71.5231 28.9872 71.3924 28.8082C71.2646 28.6264 71.0799 28.4844 70.8384 28.3821C70.5998 28.2798 70.3157 28.2287 69.9862 28.2287H69.1722V26.8736H69.9862C70.2646 26.8736 70.5103 26.8253 70.7234 26.7287C70.9393 26.6321 71.1069 26.4986 71.2262 26.3281C71.3455 26.1548 71.4052 25.9531 71.4052 25.723C71.4052 25.5043 71.3526 25.3125 71.2475 25.1477C71.1452 24.9801 71.0004 24.8494 70.8129 24.7557C70.6282 24.6619 70.4123 24.6151 70.1651 24.6151C69.9151 24.6151 69.6864 24.6605 69.479 24.7514C69.2717 24.8395 69.1055 24.9659 68.9805 25.1307C68.8555 25.2955 68.7887 25.4886 68.7802 25.7102H67.0117C67.0202 25.2074 67.1637 24.7642 67.4421 24.3807C67.7205 23.9972 68.0955 23.6974 68.5671 23.4815C69.0415 23.2628 69.5771 23.1534 70.1737 23.1534C70.7759 23.1534 71.3029 23.2628 71.7546 23.4815C72.2063 23.7003 72.5572 23.9957 72.8072 24.3679C73.06 24.7372 73.185 25.152 73.1822 25.6122C73.185 26.1009 73.033 26.5085 72.7262 26.8352C72.4222 27.1619 72.0259 27.3693 71.5373 27.4574V27.5256C72.1793 27.608 72.668 27.831 73.0032 28.1946C73.3413 28.5554 73.5089 29.0071 73.506 29.5497C73.5089 30.0469 73.3654 30.4886 73.0756 30.875C72.7887 31.2614 72.3924 31.5653 71.8867 31.7869C71.381 32.0085 70.8015 32.1193 70.1481 32.1193ZM78.6293 23.2727V32H76.7841V25.0241H76.733L74.7344 26.277V24.6406L76.8949 23.2727H78.6293Z" fill="white"/>
</g>
<g id="Collapse" filter="url(#filter2_d_38_1496)">
<g id="Collapse_2">
<g id="Collapse Group">
<path id="Arrow base" d="M280 25.9286V13.0714" stroke="white" stroke-width="1.71429" stroke-linecap="round" stroke-linejoin="round"/>
<path id="Arrow" d="M285.357 18.4286L280 13.0714L274.643 18.4286" stroke="white" stroke-width="1.71429" stroke-linecap="round" stroke-linejoin="round"/>
<path id="Base" d="M293.929 38.7857V33.4286C293.929 32.8602 293.703 32.3152 293.301 31.9133C292.899 31.5115 292.354 31.2857 291.786 31.2857L268.214 31.2857C267.646 31.2857 267.101 31.5115 266.699 31.9133C266.297 32.3152 266.071 32.8602 266.071 33.4286V38.7857C266.071 39.354 266.297 39.8991 266.699 40.3009C267.101 40.7028 267.646 40.9286 268.214 40.9286H291.786C292.354 40.9286 292.899 40.7028 293.301 40.3009C293.703 39.8991 293.929 39.354 293.929 38.7857Z" stroke="white" stroke-width="1.71429" stroke-linecap="round" stroke-linejoin="round"/>
</g>
</g>
</g>
</g>
</g>
<defs>
<filter id="filter0_d_38_1496" x="217.214" y="12.2124" width="37.5615" height="37.5733" filterUnits="userSpaceOnUse" color-interpolation-filters="sRGB">
<feFlood flood-opacity="0" result="BackgroundImageFix"/>
<feColorMatrix in="SourceAlpha" type="matrix" values="0 0 0 0 0 0 0 0 0 0 0 0 0 0 0 0 0 0 127 0" result="hardAlpha"/>
<feOffset dy="4"/>
<feGaussianBlur stdDeviation="2"/>
<feComposite in2="hardAlpha" operator="out"/>
<feColorMatrix type="matrix" values="0 0 0 0 0 0 0 0 0 0 0 0 0 0 0 0 0 0 0.25 0"/>
<feBlend mode="normal" in2="BackgroundImageFix" result="effect1_dropShadow_38_1496"/>
<feBlend mode="normal" in="SourceGraphic" in2="effect1_dropShadow_38_1496" result="shape"/>
</filter>
<filter id="filter1_d_38_1496" x="173" y="12" width="38" height="38" filterUnits="userSpaceOnUse" color-interpolation-filters="sRGB">
<feFlood flood-opacity="0" result="BackgroundImageFix"/>
<feColorMatrix in="SourceAlpha" type="matrix" values="0 0 0 0 0 0 0 0 0 0 0 0 0 0 0 0 0 0 127 0" result="hardAlpha"/>
<feOffset dy="4"/>
<feGaussianBlur stdDeviation="2"/>
<feComposite in2="hardAlpha" operator="out"/>
<feColorMatrix type="matrix" values="0 0 0 0 0 0 0 0 0 0 0 0 0 0 0 0 0 0 0.25 0"/>
<feBlend mode="normal" in2="BackgroundImageFix" result="effect1_dropShadow_38_1496"/>
<feBlend mode="normal" in="SourceGraphic" in2="effect1_dropShadow_38_1496" result="shape"/>
</filter>
<filter id="filter2_d_38_1496" x="261" y="12" width="38" height="38" filterUnits="userSpaceOnUse" color-interpolation-filters="sRGB">
<feFlood flood-opacity="0" result="BackgroundImageFix"/>
<feColorMatrix in="SourceAlpha" type="matrix" values="0 0 0 0 0 0 0 0 0 0 0 0 0 0 0 0 0 0 127 0" result="hardAlpha"/>
<feOffset dy="4"/>
<feGaussianBlur stdDeviation="2"/>
<feComposite in2="hardAlpha" operator="out"/>
<feColorMatrix type="matrix" values="0 0 0 0 0 0 0 0 0 0 0 0 0 0 0 0 0 0 0.25 0"/>
<feBlend mode="normal" in2="BackgroundImageFix" result="effect1_dropShadow_38_1496"/>
<feBlend mode="normal" in="SourceGraphic" in2="effect1_dropShadow_38_1496" result="shape"/>
</filter>
</defs>
</svg>
