<svg width="317" height="195" viewBox="0 0 317 195" fill="none" xmlns="http://www.w3.org/2000/svg">
<g id="Property 1=Professor Superior">
<g id="Bottom">
<path d="M0 56H317V145C317 172.614 294.614 195 267 195H50C22.3858 195 0 172.614 0 145V56Z" fill="#6C5555"/>
<g id="Fita de conflitos">
<path d="M124 188C124 165.909 141.909 148 164 148H317C317 173.957 295.957 195 270 195H124V188Z" fill="#A11C1C"/>
<path id="N&#195;&#186;mero de conflitos" d="M149.136 160.727V184H144.216V165.398H144.08L138.75 168.739V164.375L144.511 160.727H149.136ZM163.27 184.318C161.573 184.318 160.062 184.027 158.736 183.443C157.418 182.852 156.376 182.042 155.611 181.011C154.853 179.973 154.463 178.777 154.44 177.42H159.395C159.425 177.989 159.611 178.489 159.952 178.92C160.3 179.345 160.762 179.674 161.338 179.909C161.914 180.144 162.562 180.261 163.281 180.261C164.031 180.261 164.694 180.129 165.27 179.864C165.846 179.598 166.296 179.231 166.622 178.761C166.948 178.292 167.111 177.75 167.111 177.136C167.111 176.515 166.937 175.966 166.588 175.489C166.247 175.004 165.755 174.625 165.111 174.352C164.474 174.08 163.717 173.943 162.838 173.943H160.668V170.33H162.838C163.58 170.33 164.236 170.201 164.804 169.943C165.38 169.686 165.827 169.33 166.145 168.875C166.463 168.413 166.622 167.875 166.622 167.261C166.622 166.678 166.482 166.167 166.202 165.727C165.929 165.28 165.543 164.932 165.043 164.682C164.55 164.432 163.974 164.307 163.315 164.307C162.649 164.307 162.039 164.428 161.486 164.67C160.933 164.905 160.49 165.242 160.156 165.682C159.823 166.121 159.645 166.636 159.622 167.227H154.906C154.929 165.886 155.312 164.705 156.054 163.682C156.796 162.659 157.796 161.86 159.054 161.284C160.319 160.701 161.747 160.409 163.338 160.409C164.944 160.409 166.349 160.701 167.554 161.284C168.759 161.867 169.694 162.655 170.361 163.648C171.035 164.633 171.368 165.739 171.361 166.966C171.368 168.269 170.963 169.356 170.145 170.227C169.334 171.098 168.277 171.652 166.974 171.886V172.068C168.687 172.288 169.99 172.883 170.884 173.852C171.785 174.814 172.232 176.019 172.224 177.466C172.232 178.792 171.849 179.97 171.077 181C170.312 182.03 169.255 182.841 167.906 183.432C166.558 184.023 165.012 184.318 163.27 184.318Z" fill="white"/>
<g id="User Remove Subtract">
<g id="user-remove-subtract--actions-remove-close-geometric-human-person-minus-single-up-user">
<path id="Vector" d="M187.393 169.964C188.814 169.964 190.176 169.4 191.181 168.395C192.186 167.391 192.75 166.028 192.75 164.607C192.75 163.186 192.186 161.824 191.181 160.819C190.176 159.814 188.814 159.25 187.393 159.25C185.972 159.25 184.609 159.814 183.605 160.819C182.6 161.824 182.036 163.186 182.036 164.607C182.036 166.028 182.6 167.391 183.605 168.395C184.609 169.4 185.972 169.964 187.393 169.964Z" stroke="white" stroke-width="1.71429" stroke-linecap="round" stroke-linejoin="round"/>
<path id="Vector_2" d="M190.607 184.964H177.75V183.803C177.764 182.507 178.038 181.228 178.556 180.04C179.074 178.853 179.826 177.782 180.766 176.891C181.706 176 182.816 175.306 184.03 174.853C185.243 174.399 186.536 174.194 187.83 174.25C189.112 174.311 190.369 174.626 191.528 175.178C192.687 175.73 193.725 176.507 194.58 177.464" stroke="white" stroke-width="1.71429" stroke-linecap="round" stroke-linejoin="round"/>
</g>
<g id="X">
<path id="Vector_3" d="M192.75 180.5L200.25 188" stroke="white" stroke-width="1.71429" stroke-linecap="round" stroke-linejoin="round"/>
<path id="Vector_3_2" d="M200.25 180.5L192.75 188" stroke="white" stroke-width="1.71429" stroke-linecap="round" stroke-linejoin="round"/>
</g>
</g>
</g>
<g id="Fita de inscritos">
<path d="M206 188C206 165.909 223.909 148 246 148H317C317 173.957 295.957 195 270 195H206V188Z" fill="#7F7F7F"/>
<path id="N&#195;&#186;mero de alunos inscritos" d="M224.793 184V180.455L233.077 172.784C233.781 172.102 234.372 171.489 234.849 170.943C235.334 170.398 235.702 169.864 235.952 169.341C236.202 168.811 236.327 168.239 236.327 167.625C236.327 166.943 236.171 166.356 235.861 165.864C235.55 165.364 235.126 164.981 234.588 164.716C234.05 164.443 233.44 164.307 232.759 164.307C232.046 164.307 231.425 164.451 230.895 164.739C230.365 165.027 229.955 165.439 229.668 165.977C229.38 166.515 229.236 167.155 229.236 167.898H224.565C224.565 166.375 224.91 165.053 225.599 163.932C226.289 162.811 227.255 161.943 228.497 161.33C229.74 160.716 231.171 160.409 232.793 160.409C234.459 160.409 235.91 160.705 237.145 161.295C238.387 161.879 239.353 162.689 240.043 163.727C240.732 164.765 241.077 165.955 241.077 167.295C241.077 168.174 240.902 169.042 240.554 169.898C240.213 170.754 239.603 171.705 238.724 172.75C237.846 173.788 236.607 175.034 235.009 176.489L231.611 179.818V179.977H241.384V184H224.793ZM245.869 184L255.517 164.909V164.75H244.278V160.727H260.608V164.807L250.949 184H245.869Z" fill="white"/>
<g id="User Multiple Group">
<g id="user-multiple-group--close-geometric-human-multiple-person-up-user">
<path id="Vector_4" d="M272.714 170.929C274.135 170.929 275.498 170.364 276.502 169.36C277.507 168.355 278.071 166.992 278.071 165.571C278.071 164.151 277.507 162.788 276.502 161.783C275.498 160.779 274.135 160.214 272.714 160.214C271.294 160.214 269.931 160.779 268.926 161.783C267.922 162.788 267.357 164.151 267.357 165.571C267.357 166.992 267.922 168.355 268.926 169.36C269.931 170.364 271.294 170.929 272.714 170.929Z" stroke="white" stroke-width="1.71429" stroke-linecap="round" stroke-linejoin="round"/>
<path id="Vector_2_2" d="M263.071 185.929H282.357V184.767C282.343 183.472 282.069 182.192 281.551 181.005C281.033 179.817 280.282 178.746 279.341 177.855C278.401 176.964 277.291 176.271 276.077 175.817C274.864 175.364 273.571 175.158 272.277 175.214C269.813 175.331 267.488 176.386 265.776 178.162C264.065 179.938 263.097 182.301 263.071 184.767V185.929Z" stroke="white" stroke-width="1.71429" stroke-linecap="round" stroke-linejoin="round"/>
<path id="Vector_3_3" d="M281.286 170.929C282.706 170.929 284.069 170.364 285.074 169.36C286.078 168.355 286.643 166.992 286.643 165.571C286.643 164.151 286.078 162.788 285.074 161.783C284.069 160.779 282.706 160.214 281.286 160.214" stroke="white" stroke-width="1.71429" stroke-linecap="round" stroke-linejoin="round"/>
<path id="Vector_4_2" d="M286.643 185.929H290.929V184.767C290.906 182.598 290.154 180.499 288.793 178.809C287.433 177.119 285.543 175.936 283.429 175.45" stroke="white" stroke-width="1.71429" stroke-linecap="round" stroke-linejoin="round"/>
</g>
</g>
</g>
<g id="Frame Disciplina">
<path id="Nome da disciplina" d="M40.1165 73.0455V90.5H36.929L29.3352 79.5142H29.2074V90.5H25.517V73.0455H28.7557L36.2898 84.0227H36.4432V73.0455H40.1165ZM49.0121 90.7557C47.6882 90.7557 46.5433 90.4744 45.5774 89.9119C44.6172 89.3437 43.8757 88.554 43.353 87.5426C42.8303 86.5256 42.5689 85.3466 42.5689 84.0057C42.5689 82.6534 42.8303 81.4716 43.353 80.4602C43.8757 79.4432 44.6172 78.6534 45.5774 78.0909C46.5433 77.5227 47.6882 77.2386 49.0121 77.2386C50.3359 77.2386 51.478 77.5227 52.4382 78.0909C53.4041 78.6534 54.1484 79.4432 54.6712 80.4602C55.1939 81.4716 55.4553 82.6534 55.4553 84.0057C55.4553 85.3466 55.1939 86.5256 54.6712 87.5426C54.1484 88.554 53.4041 89.3437 52.4382 89.9119C51.478 90.4744 50.3359 90.7557 49.0121 90.7557ZM49.0291 87.9432C49.6314 87.9432 50.1342 87.7727 50.5376 87.4318C50.9411 87.0852 51.245 86.6136 51.4496 86.017C51.6598 85.4205 51.7649 84.7415 51.7649 83.9801C51.7649 83.2188 51.6598 82.5398 51.4496 81.9432C51.245 81.3466 50.9411 80.875 50.5376 80.5284C50.1342 80.1818 49.6314 80.0085 49.0291 80.0085C48.4212 80.0085 47.9098 80.1818 47.495 80.5284C47.0859 80.875 46.7763 81.3466 46.5661 81.9432C46.3615 82.5398 46.2592 83.2188 46.2592 83.9801C46.2592 84.7415 46.3615 85.4205 46.5661 86.017C46.7763 86.6136 47.0859 87.0852 47.495 87.4318C47.9098 87.7727 48.4212 87.9432 49.0291 87.9432ZM57.8161 90.5V77.4091H61.2763V79.7188H61.4297C61.7024 78.9517 62.157 78.3466 62.7933 77.9034C63.4297 77.4602 64.1911 77.2386 65.0774 77.2386C65.9751 77.2386 66.7393 77.4631 67.37 77.9119C68.0007 78.3551 68.4212 78.9574 68.6314 79.7188H68.7678C69.0348 78.9688 69.5178 78.3693 70.2166 77.9205C70.9212 77.4659 71.7536 77.2386 72.7138 77.2386C73.9354 77.2386 74.9268 77.6278 75.6882 78.4062C76.4553 79.179 76.8388 80.2756 76.8388 81.696V90.5H73.2166V82.4119C73.2166 81.6847 73.0234 81.1392 72.6371 80.7756C72.2507 80.4119 71.7678 80.2301 71.1882 80.2301C70.5291 80.2301 70.0149 80.4403 69.6456 80.8608C69.2763 81.2756 69.0916 81.8239 69.0916 82.5057V90.5H65.5717V82.3352C65.5717 81.6932 65.3871 81.1818 65.0178 80.8011C64.6541 80.4205 64.174 80.2301 63.5774 80.2301C63.174 80.2301 62.8104 80.3324 62.4865 80.5369C62.1683 80.7358 61.9155 81.017 61.728 81.3807C61.5405 81.7386 61.4467 82.1591 61.4467 82.642V90.5H57.8161ZM85.6726 90.7557C84.326 90.7557 83.1669 90.483 82.1953 89.9375C81.2294 89.3864 80.4851 88.608 79.9624 87.6023C79.4396 86.5909 79.1783 85.3949 79.1783 84.0142C79.1783 82.6676 79.4396 81.4858 79.9624 80.4688C80.4851 79.4517 81.2209 78.6591 82.1697 78.0909C83.1243 77.5227 84.2436 77.2386 85.5277 77.2386C86.3913 77.2386 87.1953 77.3778 87.9396 77.6562C88.6896 77.929 89.343 78.3409 89.8999 78.892C90.4624 79.4432 90.8999 80.1364 91.2124 80.9716C91.5249 81.8011 91.6811 82.7727 91.6811 83.8864V84.8835H80.6271V82.6335H88.2635C88.2635 82.1108 88.1499 81.6477 87.9226 81.2443C87.6953 80.8409 87.38 80.5256 86.9766 80.2983C86.5788 80.0653 86.1158 79.9489 85.5874 79.9489C85.0362 79.9489 84.5476 80.0767 84.1214 80.3324C83.701 80.5824 83.3714 80.9205 83.1328 81.3466C82.8942 81.767 82.772 82.2358 82.7663 82.7528V84.892C82.7663 85.5398 82.8857 86.0994 83.1243 86.571C83.3686 87.0426 83.7124 87.4062 84.1555 87.6619C84.5987 87.9176 85.1243 88.0455 85.7322 88.0455C86.1357 88.0455 86.505 87.9886 86.8402 87.875C87.1754 87.7614 87.4624 87.5909 87.701 87.3636C87.9396 87.1364 88.1214 86.858 88.2464 86.5284L91.6044 86.75C91.4339 87.5568 91.0845 88.2614 90.5561 88.8636C90.0334 89.4602 89.3572 89.9261 88.5277 90.2614C87.7038 90.5909 86.7521 90.7557 85.6726 90.7557ZM104.429 90.7131C103.435 90.7131 102.534 90.4574 101.727 89.946C100.926 89.429 100.29 88.6705 99.8182 87.6705C99.3523 86.6648 99.1193 85.4318 99.1193 83.9716C99.1193 82.4716 99.3608 81.2244 99.8438 80.2301C100.327 79.2301 100.969 78.483 101.77 77.9886C102.577 77.4886 103.46 77.2386 104.42 77.2386C105.153 77.2386 105.764 77.3636 106.253 77.6136C106.747 77.858 107.145 78.1648 107.446 78.5341C107.753 78.8977 107.986 79.2557 108.145 79.608H108.256V73.0455H111.878V90.5H108.298V88.4034H108.145C107.974 88.767 107.733 89.1278 107.42 89.4858C107.114 89.8381 106.713 90.1307 106.219 90.3636C105.73 90.5966 105.134 90.7131 104.429 90.7131ZM105.58 87.8239C106.165 87.8239 106.659 87.6648 107.062 87.3466C107.472 87.0227 107.784 86.571 108 85.9915C108.222 85.4119 108.332 84.733 108.332 83.9545C108.332 83.1761 108.224 82.5 108.009 81.9261C107.793 81.3523 107.48 80.9091 107.071 80.5966C106.662 80.2841 106.165 80.1278 105.58 80.1278C104.983 80.1278 104.48 80.2898 104.071 80.6136C103.662 80.9375 103.352 81.3864 103.142 81.9602C102.932 82.5341 102.827 83.1989 102.827 83.9545C102.827 84.7159 102.932 85.3892 103.142 85.9744C103.358 86.554 103.668 87.0085 104.071 87.3381C104.48 87.6619 104.983 87.8239 105.58 87.8239ZM118.596 90.7472C117.761 90.7472 117.016 90.6023 116.363 90.3125C115.71 90.017 115.192 89.5824 114.812 89.0085C114.437 88.429 114.249 87.7074 114.249 86.8438C114.249 86.1165 114.383 85.5057 114.65 85.0114C114.917 84.517 115.281 84.1193 115.741 83.8182C116.201 83.517 116.724 83.2898 117.309 83.1364C117.9 82.983 118.519 82.875 119.167 82.8125C119.928 82.733 120.542 82.6591 121.008 82.5909C121.474 82.517 121.812 82.4091 122.022 82.267C122.232 82.125 122.337 81.9148 122.337 81.6364V81.5852C122.337 81.0455 122.167 80.6278 121.826 80.3324C121.491 80.0369 121.013 79.8892 120.394 79.8892C119.741 79.8892 119.221 80.0341 118.835 80.3239C118.448 80.608 118.192 80.9659 118.067 81.3977L114.71 81.125C114.88 80.3295 115.215 79.642 115.715 79.0625C116.215 78.4773 116.86 78.0284 117.65 77.7159C118.445 77.3977 119.366 77.2386 120.411 77.2386C121.138 77.2386 121.835 77.3239 122.499 77.4943C123.17 77.6648 123.763 77.929 124.281 78.2869C124.803 78.6449 125.215 79.1051 125.516 79.6676C125.817 80.2244 125.968 80.892 125.968 81.6705V90.5H122.525V88.6847H122.423C122.212 89.0938 121.931 89.4545 121.579 89.767C121.227 90.0739 120.803 90.3153 120.309 90.4915C119.815 90.6619 119.244 90.7472 118.596 90.7472ZM119.636 88.2415C120.17 88.2415 120.641 88.1364 121.05 87.9261C121.46 87.7102 121.781 87.4205 122.013 87.0568C122.246 86.6932 122.363 86.2812 122.363 85.821V84.4318C122.249 84.5057 122.093 84.5739 121.894 84.6364C121.701 84.6932 121.482 84.7472 121.238 84.7983C120.994 84.8437 120.749 84.8864 120.505 84.9261C120.261 84.9602 120.039 84.9915 119.84 85.0199C119.414 85.0824 119.042 85.1818 118.724 85.3182C118.406 85.4545 118.158 85.6392 117.982 85.8722C117.806 86.0994 117.718 86.3835 117.718 86.7244C117.718 87.2188 117.897 87.5966 118.255 87.858C118.619 88.1136 119.079 88.2415 119.636 88.2415ZM139.163 90.7131C138.169 90.7131 137.268 90.4574 136.462 89.946C135.661 89.429 135.024 88.6705 134.553 87.6705C134.087 86.6648 133.854 85.4318 133.854 83.9716C133.854 82.4716 134.095 81.2244 134.578 80.2301C135.061 79.2301 135.703 78.483 136.504 77.9886C137.311 77.4886 138.195 77.2386 139.155 77.2386C139.888 77.2386 140.499 77.3636 140.987 77.6136C141.482 77.858 141.879 78.1648 142.18 78.5341C142.487 78.8977 142.72 79.2557 142.879 79.608H142.99V73.0455H146.612V90.5H143.033V88.4034H142.879C142.709 88.767 142.467 89.1278 142.155 89.4858C141.848 89.8381 141.447 90.1307 140.953 90.3636C140.464 90.5966 139.868 90.7131 139.163 90.7131ZM140.314 87.8239C140.899 87.8239 141.393 87.6648 141.797 87.3466C142.206 87.0227 142.518 86.571 142.734 85.9915C142.956 85.4119 143.067 84.733 143.067 83.9545C143.067 83.1761 142.959 82.5 142.743 81.9261C142.527 81.3523 142.214 80.9091 141.805 80.5966C141.396 80.2841 140.899 80.1278 140.314 80.1278C139.717 80.1278 139.214 80.2898 138.805 80.6136C138.396 80.9375 138.087 81.3864 137.876 81.9602C137.666 82.5341 137.561 83.1989 137.561 83.9545C137.561 84.7159 137.666 85.3892 137.876 85.9744C138.092 86.554 138.402 87.0085 138.805 87.3381C139.214 87.6619 139.717 87.8239 140.314 87.8239ZM149.597 90.5V77.4091H153.228V90.5H149.597ZM151.421 75.7216C150.881 75.7216 150.418 75.5426 150.032 75.1847C149.651 74.821 149.461 74.3864 149.461 73.8807C149.461 73.3807 149.651 72.9517 150.032 72.5938C150.418 72.2301 150.881 72.0483 151.421 72.0483C151.961 72.0483 152.421 72.2301 152.802 72.5938C153.188 72.9517 153.381 73.3807 153.381 73.8807C153.381 74.3864 153.188 74.821 152.802 75.1847C152.421 75.5426 151.961 75.7216 151.421 75.7216ZM167.028 81.142L163.705 81.3466C163.648 81.0625 163.526 80.8068 163.338 80.5795C163.151 80.3466 162.903 80.1619 162.597 80.0256C162.295 79.8835 161.935 79.8125 161.514 79.8125C160.952 79.8125 160.477 79.9318 160.091 80.1705C159.705 80.4034 159.511 80.7159 159.511 81.108C159.511 81.4205 159.636 81.6847 159.886 81.9006C160.136 82.1165 160.565 82.2898 161.173 82.4205L163.543 82.8977C164.815 83.1591 165.764 83.5795 166.389 84.1591C167.014 84.7386 167.327 85.5 167.327 86.4432C167.327 87.3011 167.074 88.054 166.568 88.7017C166.068 89.3494 165.381 89.8551 164.506 90.2188C163.636 90.5767 162.634 90.7557 161.497 90.7557C159.764 90.7557 158.384 90.3949 157.355 89.6733C156.332 88.946 155.733 87.9574 155.557 86.7074L159.128 86.5199C159.236 87.0483 159.497 87.4517 159.912 87.7301C160.327 88.0028 160.858 88.1392 161.506 88.1392C162.142 88.1392 162.653 88.017 163.04 87.7727C163.432 87.5227 163.631 87.2017 163.636 86.8097C163.631 86.4801 163.491 86.2102 163.219 86C162.946 85.7841 162.526 85.6193 161.957 85.5057L159.69 85.054C158.412 84.7983 157.46 84.3551 156.835 83.7244C156.216 83.0937 155.906 82.2898 155.906 81.3125C155.906 80.4716 156.134 79.7472 156.588 79.1392C157.048 78.5312 157.693 78.0625 158.523 77.733C159.358 77.4034 160.335 77.2386 161.455 77.2386C163.108 77.2386 164.409 77.5881 165.358 78.2869C166.313 78.9858 166.869 79.9375 167.028 81.142ZM175.528 90.7557C174.187 90.7557 173.033 90.4716 172.067 89.9034C171.107 89.3295 170.369 88.5341 169.852 87.517C169.34 86.5 169.085 85.3295 169.085 84.0057C169.085 82.6648 169.343 81.4886 169.86 80.4773C170.383 79.4602 171.124 78.6676 172.085 78.0994C173.045 77.5256 174.187 77.2386 175.511 77.2386C176.653 77.2386 177.653 77.446 178.511 77.8608C179.369 78.2756 180.048 78.858 180.548 79.608C181.048 80.358 181.323 81.2386 181.374 82.25H177.948C177.852 81.5966 177.596 81.071 177.181 80.6733C176.772 80.2699 176.235 80.0682 175.57 80.0682C175.008 80.0682 174.516 80.2216 174.096 80.5284C173.681 80.8295 173.357 81.2699 173.124 81.8494C172.891 82.429 172.775 83.1307 172.775 83.9545C172.775 84.7898 172.888 85.5 173.116 86.0852C173.349 86.6705 173.675 87.1165 174.096 87.4233C174.516 87.7301 175.008 87.8835 175.57 87.8835C175.985 87.8835 176.357 87.7983 176.687 87.6278C177.022 87.4574 177.298 87.2102 177.513 86.8864C177.735 86.5568 177.88 86.1619 177.948 85.7017H181.374C181.317 86.7017 181.045 87.5824 180.556 88.3438C180.073 89.0994 179.406 89.6903 178.553 90.1165C177.701 90.5426 176.692 90.7557 175.528 90.7557ZM183.699 90.5V77.4091H187.33V90.5H183.699ZM185.523 75.7216C184.983 75.7216 184.52 75.5426 184.134 75.1847C183.753 74.821 183.562 74.3864 183.562 73.8807C183.562 73.3807 183.753 72.9517 184.134 72.5938C184.52 72.2301 184.983 72.0483 185.523 72.0483C186.063 72.0483 186.523 72.2301 186.903 72.5938C187.29 72.9517 187.483 73.3807 187.483 73.8807C187.483 74.3864 187.29 74.821 186.903 75.1847C186.523 75.5426 186.063 75.7216 185.523 75.7216ZM190.238 95.4091V77.4091H193.817V79.608H193.979C194.138 79.2557 194.369 78.8977 194.67 78.5341C194.977 78.1648 195.374 77.858 195.863 77.6136C196.357 77.3636 196.971 77.2386 197.704 77.2386C198.658 77.2386 199.539 77.4886 200.346 77.9886C201.153 78.483 201.798 79.2301 202.281 80.2301C202.763 81.2244 203.005 82.4716 203.005 83.9716C203.005 85.4318 202.769 86.6648 202.298 87.6705C201.832 88.6705 201.195 89.429 200.388 89.946C199.587 90.4574 198.69 90.7131 197.695 90.7131C196.991 90.7131 196.391 90.5966 195.897 90.3636C195.408 90.1307 195.008 89.8381 194.695 89.4858C194.383 89.1278 194.144 88.767 193.979 88.4034H193.869V95.4091H190.238ZM193.792 83.9545C193.792 84.733 193.9 85.4119 194.116 85.9915C194.332 86.571 194.644 87.0227 195.053 87.3466C195.462 87.6648 195.96 87.8239 196.545 87.8239C197.136 87.8239 197.636 87.6619 198.045 87.3381C198.454 87.0085 198.763 86.554 198.974 85.9744C199.19 85.3892 199.298 84.7159 199.298 83.9545C199.298 83.1989 199.192 82.5341 198.982 81.9602C198.772 81.3864 198.462 80.9375 198.053 80.6136C197.644 80.2898 197.141 80.1278 196.545 80.1278C195.954 80.1278 195.454 80.2841 195.045 80.5966C194.641 80.9091 194.332 81.3523 194.116 81.9261C193.9 82.5 193.792 83.1761 193.792 83.9545ZM209.056 73.0455V90.5H205.425V73.0455H209.056ZM211.964 90.5V77.4091H215.595V90.5H211.964ZM213.788 75.7216C213.249 75.7216 212.786 75.5426 212.399 75.1847C212.018 74.821 211.828 74.3864 211.828 73.8807C211.828 73.3807 212.018 72.9517 212.399 72.5938C212.786 72.2301 213.249 72.0483 213.788 72.0483C214.328 72.0483 214.788 72.2301 215.169 72.5938C215.555 72.9517 215.749 73.3807 215.749 73.8807C215.749 74.3864 215.555 74.821 215.169 75.1847C214.788 75.5426 214.328 75.7216 213.788 75.7216ZM222.134 82.9318V90.5H218.504V77.4091H221.964V79.7188H222.117C222.407 78.9574 222.893 78.3551 223.575 77.9119C224.256 77.4631 225.083 77.2386 226.055 77.2386C226.964 77.2386 227.756 77.4375 228.433 77.8352C229.109 78.233 229.634 78.8011 230.009 79.5398C230.384 80.2727 230.572 81.1477 230.572 82.1648V90.5H226.941V82.8125C226.947 82.0114 226.742 81.3864 226.327 80.9375C225.913 80.483 225.342 80.2557 224.614 80.2557C224.126 80.2557 223.694 80.3608 223.319 80.571C222.95 80.7812 222.66 81.0881 222.45 81.4915C222.245 81.8892 222.14 82.3693 222.134 82.9318ZM237.166 90.7472C236.331 90.7472 235.587 90.6023 234.933 90.3125C234.28 90.017 233.763 89.5824 233.382 89.0085C233.007 88.429 232.82 87.7074 232.82 86.8438C232.82 86.1165 232.953 85.5057 233.22 85.0114C233.487 84.517 233.851 84.1193 234.311 83.8182C234.771 83.517 235.294 83.2898 235.879 83.1364C236.47 82.983 237.089 82.875 237.737 82.8125C238.499 82.733 239.112 82.6591 239.578 82.5909C240.044 82.517 240.382 82.4091 240.592 82.267C240.803 82.125 240.908 81.9148 240.908 81.6364V81.5852C240.908 81.0455 240.737 80.6278 240.396 80.3324C240.061 80.0369 239.584 79.8892 238.964 79.8892C238.311 79.8892 237.791 80.0341 237.405 80.3239C237.018 80.608 236.763 80.9659 236.638 81.3977L233.28 81.125C233.45 80.3295 233.786 79.642 234.286 79.0625C234.786 78.4773 235.43 78.0284 236.22 77.7159C237.016 77.3977 237.936 77.2386 238.982 77.2386C239.709 77.2386 240.405 77.3239 241.07 77.4943C241.74 77.6648 242.334 77.929 242.851 78.2869C243.374 78.6449 243.786 79.1051 244.087 79.6676C244.388 80.2244 244.538 80.892 244.538 81.6705V90.5H241.095V88.6847H240.993C240.783 89.0938 240.501 89.4545 240.149 89.767C239.797 90.0739 239.374 90.3153 238.879 90.4915C238.385 90.6619 237.814 90.7472 237.166 90.7472ZM238.206 88.2415C238.74 88.2415 239.212 88.1364 239.621 87.9261C240.03 87.7102 240.351 87.4205 240.584 87.0568C240.817 86.6932 240.933 86.2812 240.933 85.821V84.4318C240.82 84.5057 240.663 84.5739 240.464 84.6364C240.271 84.6932 240.053 84.7472 239.808 84.7983C239.564 84.8437 239.32 84.8864 239.075 84.9261C238.831 84.9602 238.609 84.9915 238.411 85.0199C237.984 85.0824 237.612 85.1818 237.294 85.3182C236.976 85.4545 236.729 85.6392 236.553 85.8722C236.376 86.0994 236.288 86.3835 236.288 86.7244C236.288 87.2188 236.467 87.5966 236.825 87.858C237.189 88.1136 237.649 88.2415 238.206 88.2415Z" fill="white"/>
</g>
<g id="Class Lock Icon" filter="url(#filter0_d_40_362)">
<g id="browser-lock--secure-password-window-browser-lock-security-login-encryption">
<path id="Vector 2567" d="M41.1785 179.5V175.214C41.1785 174.93 41.2914 174.658 41.4923 174.457C41.6933 174.256 41.9658 174.143 42.25 174.143H49.75C50.0341 174.143 50.3066 174.256 50.5076 174.457C50.7085 174.658 50.8214 174.93 50.8214 175.214V179.5C50.8214 179.784 50.7085 180.057 50.5076 180.258C50.3066 180.459 50.0341 180.571 49.75 180.571H42.25C41.9658 180.571 41.6933 180.459 41.4923 180.258C41.2914 180.057 41.1785 179.784 41.1785 179.5Z" stroke="white" stroke-width="1.71429" stroke-linejoin="round"/>
<path id="Vector 2568" d="M42.7857 174.143V172C42.7857 171.148 43.1244 170.33 43.7271 169.727C44.3299 169.124 45.1475 168.786 46 168.786C46.8525 168.786 47.67 169.124 48.2728 169.727C48.8756 170.33 49.2143 171.148 49.2143 172V174.143" stroke="white" stroke-width="1.71429" stroke-linecap="round" stroke-linejoin="round"/>
<path id="Vector_5" d="M32.0714 164.487H59.9286" stroke="white" stroke-width="1.71429" stroke-linecap="round" stroke-linejoin="round"/>
<path id="Vector_2_3" d="M57.7857 158.071H34.2143C33.6459 158.071 33.1009 158.297 32.699 158.699C32.2972 159.101 32.0714 159.646 32.0714 160.214V183.786C32.0714 184.354 32.2972 184.899 32.699 185.301C33.1009 185.703 33.6459 185.929 34.2143 185.929H57.7857C58.354 185.929 58.8991 185.703 59.3009 185.301C59.7028 184.899 59.9286 184.354 59.9286 183.786V160.214C59.9286 159.646 59.7028 159.101 59.3009 158.699C58.8991 158.297 58.354 158.071 57.7857 158.071Z" stroke="white" stroke-width="1.71429" stroke-linecap="round" stroke-linejoin="round"/>
</g>
</g>
<g id="Pencil">
<g id="pencil--change-edit-modify-pencil-write-writing">
<g id="Vector_6" filter="url(#filter1_d_40_362)">
<path d="M88.7143 182.229L79.0714 184.929L81.7714 175.286L99.4286 157.714C99.6281 157.51 99.8665 157.348 100.13 157.237C100.393 157.127 100.675 157.07 100.961 157.07C101.246 157.07 101.529 157.127 101.792 157.237C102.055 157.348 102.293 157.51 102.493 157.714L106.286 161.529C106.486 161.728 106.645 161.965 106.754 162.226C106.863 162.487 106.919 162.767 106.919 163.05C106.919 163.333 106.863 163.613 106.754 163.874C106.645 164.135 106.486 164.372 106.286 164.571L88.7143 182.229Z" stroke="white" stroke-width="1.71429" stroke-linecap="round" stroke-linejoin="round" shape-rendering="crispEdges"/>
</g>
</g>
</g>
</g>
<g id="Top">
<path d="M0 56C0 50.428 0 47.6421 0.221902 45.2946C2.48064 21.3996 21.3996 2.48064 45.2946 0.221902C47.6421 0 50.428 0 56 0H261C266.572 0 269.358 0 271.705 0.221902C295.6 2.48064 314.519 21.3996 316.778 45.2946C317 47.6421 317 50.428 317 56H0Z" fill="#4984AE"/>
<path id="Nome do Professor" d="M133.116 3.54545V21H129.929L122.335 10.0142H122.207V21H118.517V3.54545H121.756L129.29 14.5227H129.443V3.54545H133.116ZM142.012 21.2557C140.688 21.2557 139.543 20.9744 138.577 20.4119C137.617 19.8437 136.876 19.054 136.353 18.0426C135.83 17.0256 135.569 15.8466 135.569 14.5057C135.569 13.1534 135.83 11.9716 136.353 10.9602C136.876 9.94318 137.617 9.15341 138.577 8.59091C139.543 8.02273 140.688 7.73864 142.012 7.73864C143.336 7.73864 144.478 8.02273 145.438 8.59091C146.404 9.15341 147.148 9.94318 147.671 10.9602C148.194 11.9716 148.455 13.1534 148.455 14.5057C148.455 15.8466 148.194 17.0256 147.671 18.0426C147.148 19.054 146.404 19.8437 145.438 20.4119C144.478 20.9744 143.336 21.2557 142.012 21.2557ZM142.029 18.4432C142.631 18.4432 143.134 18.2727 143.538 17.9318C143.941 17.5852 144.245 17.1136 144.45 16.517C144.66 15.9205 144.765 15.2415 144.765 14.4801C144.765 13.7188 144.66 13.0398 144.45 12.4432C144.245 11.8466 143.941 11.375 143.538 11.0284C143.134 10.6818 142.631 10.5085 142.029 10.5085C141.421 10.5085 140.91 10.6818 140.495 11.0284C140.086 11.375 139.776 11.8466 139.566 12.4432C139.362 13.0398 139.259 13.7188 139.259 14.4801C139.259 15.2415 139.362 15.9205 139.566 16.517C139.776 17.1136 140.086 17.5852 140.495 17.9318C140.91 18.2727 141.421 18.4432 142.029 18.4432ZM150.816 21V7.90909H154.276V10.2188H154.43C154.702 9.4517 155.157 8.84659 155.793 8.40341C156.43 7.96023 157.191 7.73864 158.077 7.73864C158.975 7.73864 159.739 7.96307 160.37 8.41193C161.001 8.85511 161.421 9.45739 161.631 10.2188H161.768C162.035 9.46875 162.518 8.86932 163.217 8.42045C163.921 7.96591 164.754 7.73864 165.714 7.73864C166.935 7.73864 167.927 8.12784 168.688 8.90625C169.455 9.67898 169.839 10.7756 169.839 12.196V21H166.217V12.9119C166.217 12.1847 166.023 11.6392 165.637 11.2756C165.251 10.9119 164.768 10.7301 164.188 10.7301C163.529 10.7301 163.015 10.9403 162.646 11.3608C162.276 11.7756 162.092 12.3239 162.092 13.0057V21H158.572V12.8352C158.572 12.1932 158.387 11.6818 158.018 11.3011C157.654 10.9205 157.174 10.7301 156.577 10.7301C156.174 10.7301 155.81 10.8324 155.487 11.0369C155.168 11.2358 154.915 11.517 154.728 11.8807C154.54 12.2386 154.447 12.6591 154.447 13.142V21H150.816ZM178.673 21.2557C177.326 21.2557 176.167 20.983 175.195 20.4375C174.229 19.8864 173.485 19.108 172.962 18.1023C172.44 17.0909 172.178 15.8949 172.178 14.5142C172.178 13.1676 172.44 11.9858 172.962 10.9688C173.485 9.9517 174.221 9.15909 175.17 8.59091C176.124 8.02273 177.244 7.73864 178.528 7.73864C179.391 7.73864 180.195 7.87784 180.94 8.15625C181.69 8.42898 182.343 8.84091 182.9 9.39205C183.462 9.94318 183.9 10.6364 184.212 11.4716C184.525 12.3011 184.681 13.2727 184.681 14.3864V15.3835H173.627V13.1335H181.263C181.263 12.6108 181.15 12.1477 180.923 11.7443C180.695 11.3409 180.38 11.0256 179.977 10.7983C179.579 10.5653 179.116 10.4489 178.587 10.4489C178.036 10.4489 177.548 10.5767 177.121 10.8324C176.701 11.0824 176.371 11.4205 176.133 11.8466C175.894 12.267 175.772 12.7358 175.766 13.2528V15.392C175.766 16.0398 175.886 16.5994 176.124 17.071C176.369 17.5426 176.712 17.9062 177.156 18.1619C177.599 18.4176 178.124 18.5455 178.732 18.5455C179.136 18.5455 179.505 18.4886 179.84 18.375C180.175 18.2614 180.462 18.0909 180.701 17.8636C180.94 17.6364 181.121 17.358 181.246 17.0284L184.604 17.25C184.434 18.0568 184.085 18.7614 183.556 19.3636C183.033 19.9602 182.357 20.4261 181.528 20.7614C180.704 21.0909 179.752 21.2557 178.673 21.2557ZM197.429 21.2131C196.435 21.2131 195.534 20.9574 194.727 20.446C193.926 19.929 193.29 19.1705 192.818 18.1705C192.352 17.1648 192.119 15.9318 192.119 14.4716C192.119 12.9716 192.361 11.7244 192.844 10.7301C193.327 9.73011 193.969 8.98295 194.77 8.48864C195.577 7.98864 196.46 7.73864 197.42 7.73864C198.153 7.73864 198.764 7.86364 199.253 8.11364C199.747 8.35795 200.145 8.66477 200.446 9.03409C200.753 9.39773 200.986 9.75568 201.145 10.108H201.256V3.54545H204.878V21H201.298V18.9034H201.145C200.974 19.267 200.733 19.6278 200.42 19.9858C200.114 20.3381 199.713 20.6307 199.219 20.8636C198.73 21.0966 198.134 21.2131 197.429 21.2131ZM198.58 18.3239C199.165 18.3239 199.659 18.1648 200.062 17.8466C200.472 17.5227 200.784 17.071 201 16.4915C201.222 15.9119 201.332 15.233 201.332 14.4545C201.332 13.6761 201.224 13 201.009 12.4261C200.793 11.8523 200.48 11.4091 200.071 11.0966C199.662 10.7841 199.165 10.6278 198.58 10.6278C197.983 10.6278 197.48 10.7898 197.071 11.1136C196.662 11.4375 196.352 11.8864 196.142 12.4602C195.932 13.0341 195.827 13.6989 195.827 14.4545C195.827 15.2159 195.932 15.8892 196.142 16.4744C196.358 17.054 196.668 17.5085 197.071 17.8381C197.48 18.1619 197.983 18.3239 198.58 18.3239ZM213.778 21.2557C212.454 21.2557 211.309 20.9744 210.343 20.4119C209.383 19.8437 208.641 19.054 208.119 18.0426C207.596 17.0256 207.335 15.8466 207.335 14.5057C207.335 13.1534 207.596 11.9716 208.119 10.9602C208.641 9.94318 209.383 9.15341 210.343 8.59091C211.309 8.02273 212.454 7.73864 213.778 7.73864C215.102 7.73864 216.244 8.02273 217.204 8.59091C218.17 9.15341 218.914 9.94318 219.437 10.9602C219.96 11.9716 220.221 13.1534 220.221 14.5057C220.221 15.8466 219.96 17.0256 219.437 18.0426C218.914 19.054 218.17 19.8437 217.204 20.4119C216.244 20.9744 215.102 21.2557 213.778 21.2557ZM213.795 18.4432C214.397 18.4432 214.9 18.2727 215.303 17.9318C215.707 17.5852 216.011 17.1136 216.215 16.517C216.425 15.9205 216.531 15.2415 216.531 14.4801C216.531 13.7188 216.425 13.0398 216.215 12.4432C216.011 11.8466 215.707 11.375 215.303 11.0284C214.9 10.6818 214.397 10.5085 213.795 10.5085C213.187 10.5085 212.675 10.6818 212.261 11.0284C211.852 11.375 211.542 11.8466 211.332 12.4432C211.127 13.0398 211.025 13.7188 211.025 14.4801C211.025 15.2415 211.127 15.9205 211.332 16.517C211.542 17.1136 211.852 17.5852 212.261 17.9318C212.675 18.2727 213.187 18.4432 213.795 18.4432ZM118.517 52V34.5455H125.403C126.727 34.5455 127.855 34.7983 128.787 35.304C129.719 35.804 130.429 36.5 130.918 37.392C131.412 38.2784 131.659 39.3011 131.659 40.4602C131.659 41.6193 131.409 42.642 130.909 43.5284C130.409 44.4148 129.685 45.1051 128.736 45.5994C127.793 46.0937 126.651 46.3409 125.31 46.3409H120.92V43.3835H124.713C125.423 43.3835 126.009 43.2614 126.469 43.017C126.935 42.767 127.281 42.4233 127.509 41.9858C127.741 41.5426 127.858 41.0341 127.858 40.4602C127.858 39.8807 127.741 39.375 127.509 38.9432C127.281 38.5057 126.935 38.1676 126.469 37.929C126.003 37.6847 125.412 37.5625 124.696 37.5625H122.207V52H118.517ZM133.988 52V38.9091H137.508V41.1932H137.644C137.883 40.3807 138.283 39.767 138.846 39.3523C139.408 38.9318 140.056 38.7216 140.789 38.7216C140.971 38.7216 141.167 38.733 141.377 38.7557C141.587 38.7784 141.772 38.8097 141.931 38.8494V42.071C141.761 42.0199 141.525 41.9744 141.224 41.9347C140.923 41.8949 140.647 41.875 140.397 41.875C139.863 41.875 139.386 41.9915 138.965 42.2244C138.55 42.4517 138.221 42.7699 137.977 43.179C137.738 43.5881 137.619 44.0597 137.619 44.5938V52H133.988ZM149.114 52.2557C147.79 52.2557 146.645 51.9744 145.679 51.4119C144.719 50.8437 143.977 50.054 143.455 49.0426C142.932 48.0256 142.67 46.8466 142.67 45.5057C142.67 44.1534 142.932 42.9716 143.455 41.9602C143.977 40.9432 144.719 40.1534 145.679 39.5909C146.645 39.0227 147.79 38.7386 149.114 38.7386C150.438 38.7386 151.58 39.0227 152.54 39.5909C153.506 40.1534 154.25 40.9432 154.773 41.9602C155.295 42.9716 155.557 44.1534 155.557 45.5057C155.557 46.8466 155.295 48.0256 154.773 49.0426C154.25 50.054 153.506 50.8437 152.54 51.4119C151.58 51.9744 150.438 52.2557 149.114 52.2557ZM149.131 49.4432C149.733 49.4432 150.236 49.2727 150.639 48.9318C151.043 48.5852 151.347 48.1136 151.551 47.517C151.761 46.9205 151.866 46.2415 151.866 45.4801C151.866 44.7188 151.761 44.0398 151.551 43.4432C151.347 42.8466 151.043 42.375 150.639 42.0284C150.236 41.6818 149.733 41.5085 149.131 41.5085C148.523 41.5085 148.011 41.6818 147.597 42.0284C147.188 42.375 146.878 42.8466 146.668 43.4432C146.463 44.0398 146.361 44.7188 146.361 45.4801C146.361 46.2415 146.463 46.9205 146.668 47.517C146.878 48.1136 147.188 48.5852 147.597 48.9318C148.011 49.2727 148.523 49.4432 149.131 49.4432ZM164.957 38.9091V41.6364H156.878V38.9091H164.957ZM158.727 52V37.9631C158.727 37.0142 158.912 36.2273 159.281 35.6023C159.656 34.9773 160.168 34.5085 160.815 34.196C161.463 33.8835 162.199 33.7273 163.023 33.7273C163.58 33.7273 164.088 33.7699 164.548 33.8551C165.014 33.9403 165.361 34.017 165.588 34.0852L164.94 36.8125C164.798 36.767 164.622 36.7244 164.412 36.6847C164.207 36.6449 163.997 36.625 163.781 36.625C163.247 36.625 162.875 36.75 162.665 37C162.455 37.2443 162.349 37.5881 162.349 38.0312V52H158.727ZM172.673 52.2557C171.326 52.2557 170.167 51.983 169.195 51.4375C168.229 50.8864 167.485 50.108 166.962 49.1023C166.44 48.0909 166.178 46.8949 166.178 45.5142C166.178 44.1676 166.44 42.9858 166.962 41.9688C167.485 40.9517 168.221 40.1591 169.17 39.5909C170.124 39.0227 171.244 38.7386 172.528 38.7386C173.391 38.7386 174.195 38.8778 174.94 39.1562C175.69 39.429 176.343 39.8409 176.9 40.392C177.462 40.9432 177.9 41.6364 178.212 42.4716C178.525 43.3011 178.681 44.2727 178.681 45.3864V46.3835H167.627V44.1335H175.263C175.263 43.6108 175.15 43.1477 174.923 42.7443C174.695 42.3409 174.38 42.0256 173.977 41.7983C173.579 41.5653 173.116 41.4489 172.587 41.4489C172.036 41.4489 171.548 41.5767 171.121 41.8324C170.701 42.0824 170.371 42.4205 170.133 42.8466C169.894 43.267 169.772 43.7358 169.766 44.2528V46.392C169.766 47.0398 169.886 47.5994 170.124 48.071C170.369 48.5426 170.712 48.9062 171.156 49.1619C171.599 49.4176 172.124 49.5455 172.732 49.5455C173.136 49.5455 173.505 49.4886 173.84 49.375C174.175 49.2614 174.462 49.0909 174.701 48.8636C174.94 48.6364 175.121 48.358 175.246 48.0284L178.604 48.25C178.434 49.0568 178.085 49.7614 177.556 50.3636C177.033 50.9602 176.357 51.4261 175.528 51.7614C174.704 52.0909 173.752 52.2557 172.673 52.2557ZM191.942 42.642L188.619 42.8466C188.562 42.5625 188.44 42.3068 188.252 42.0795C188.065 41.8466 187.817 41.6619 187.511 41.5256C187.21 41.3835 186.849 41.3125 186.428 41.3125C185.866 41.3125 185.391 41.4318 185.005 41.6705C184.619 41.9034 184.425 42.2159 184.425 42.608C184.425 42.9205 184.55 43.1847 184.8 43.4006C185.05 43.6165 185.479 43.7898 186.087 43.9205L188.457 44.3977C189.729 44.6591 190.678 45.0795 191.303 45.6591C191.928 46.2386 192.241 47 192.241 47.9432C192.241 48.8011 191.988 49.554 191.482 50.2017C190.982 50.8494 190.295 51.3551 189.42 51.7188C188.55 52.0767 187.548 52.2557 186.411 52.2557C184.678 52.2557 183.298 51.8949 182.269 51.1733C181.246 50.446 180.647 49.4574 180.471 48.2074L184.042 48.0199C184.15 48.5483 184.411 48.9517 184.826 49.2301C185.241 49.5028 185.772 49.6392 186.42 49.6392C187.056 49.6392 187.567 49.517 187.954 49.2727C188.346 49.0227 188.545 48.7017 188.55 48.3097C188.545 47.9801 188.406 47.7102 188.133 47.5C187.86 47.2841 187.44 47.1193 186.871 47.0057L184.604 46.554C183.326 46.2983 182.374 45.8551 181.749 45.2244C181.13 44.5937 180.82 43.7898 180.82 42.8125C180.82 41.9716 181.048 41.2472 181.502 40.6392C181.962 40.0312 182.607 39.5625 183.437 39.233C184.272 38.9034 185.249 38.7386 186.369 38.7386C188.022 38.7386 189.323 39.0881 190.272 39.7869C191.227 40.4858 191.783 41.4375 191.942 42.642ZM205.419 42.642L202.095 42.8466C202.038 42.5625 201.916 42.3068 201.729 42.0795C201.541 41.8466 201.294 41.6619 200.987 41.5256C200.686 41.3835 200.325 41.3125 199.905 41.3125C199.342 41.3125 198.868 41.4318 198.482 41.6705C198.095 41.9034 197.902 42.2159 197.902 42.608C197.902 42.9205 198.027 43.1847 198.277 43.4006C198.527 43.6165 198.956 43.7898 199.564 43.9205L201.933 44.3977C203.206 44.6591 204.155 45.0795 204.78 45.6591C205.405 46.2386 205.717 47 205.717 47.9432C205.717 48.8011 205.464 49.554 204.959 50.2017C204.459 50.8494 203.771 51.3551 202.896 51.7188C202.027 52.0767 201.024 52.2557 199.888 52.2557C198.155 52.2557 196.774 51.8949 195.746 51.1733C194.723 50.446 194.124 49.4574 193.947 48.2074L197.518 48.0199C197.626 48.5483 197.888 48.9517 198.303 49.2301C198.717 49.5028 199.249 49.6392 199.896 49.6392C200.533 49.6392 201.044 49.517 201.43 49.2727C201.822 49.0227 202.021 48.7017 202.027 48.3097C202.021 47.9801 201.882 47.7102 201.609 47.5C201.337 47.2841 200.916 47.1193 200.348 47.0057L198.081 46.554C196.803 46.2983 195.851 45.8551 195.226 45.2244C194.607 44.5937 194.297 43.7898 194.297 42.8125C194.297 41.9716 194.524 41.2472 194.979 40.6392C195.439 40.0312 196.084 39.5625 196.913 39.233C197.749 38.9034 198.726 38.7386 199.845 38.7386C201.499 38.7386 202.8 39.0881 203.749 39.7869C204.703 40.4858 205.26 41.4375 205.419 42.642ZM213.918 52.2557C212.594 52.2557 211.45 51.9744 210.484 51.4119C209.523 50.8437 208.782 50.054 208.259 49.0426C207.737 48.0256 207.475 46.8466 207.475 45.5057C207.475 44.1534 207.737 42.9716 208.259 41.9602C208.782 40.9432 209.523 40.1534 210.484 39.5909C211.45 39.0227 212.594 38.7386 213.918 38.7386C215.242 38.7386 216.384 39.0227 217.344 39.5909C218.31 40.1534 219.055 40.9432 219.577 41.9602C220.1 42.9716 220.362 44.1534 220.362 45.5057C220.362 46.8466 220.1 48.0256 219.577 49.0426C219.055 50.054 218.31 50.8437 217.344 51.4119C216.384 51.9744 215.242 52.2557 213.918 52.2557ZM213.935 49.4432C214.538 49.4432 215.04 49.2727 215.444 48.9318C215.847 48.5852 216.151 48.1136 216.356 47.517C216.566 46.9205 216.671 46.2415 216.671 45.4801C216.671 44.7188 216.566 44.0398 216.356 43.4432C216.151 42.8466 215.847 42.375 215.444 42.0284C215.04 41.6818 214.538 41.5085 213.935 41.5085C213.327 41.5085 212.816 41.6818 212.401 42.0284C211.992 42.375 211.683 42.8466 211.472 43.4432C211.268 44.0398 211.165 44.7188 211.165 45.4801C211.165 46.2415 211.268 46.9205 211.472 47.517C211.683 48.1136 211.992 48.5852 212.401 48.9318C212.816 49.2727 213.327 49.4432 213.935 49.4432ZM222.722 52V38.9091H226.242V41.1932H226.379C226.617 40.3807 227.018 39.767 227.58 39.3523C228.143 38.9318 228.79 38.7216 229.523 38.7216C229.705 38.7216 229.901 38.733 230.112 38.7557C230.322 38.7784 230.506 38.8097 230.665 38.8494V42.071C230.495 42.0199 230.259 41.9744 229.958 41.9347C229.657 41.8949 229.381 41.875 229.131 41.875C228.597 41.875 228.12 41.9915 227.7 42.2244C227.285 42.4517 226.955 42.7699 226.711 43.179C226.472 43.5881 226.353 44.0597 226.353 44.5938V52H222.722Z" fill="white"/>
<g id="Classcode">
<path d="M0 50C0 22.3858 22.3858 0 50 0H105V6C105 33.6142 82.6142 56 55 56H0V50Z" fill="#0BC28B"/>
<path id="C&#195;&#179;digo Disciplina" d="M29.6076 23.2727V32H27.7624V23.2727H29.6076ZM38.4254 23.2727V32H36.8317L33.0348 26.5071H32.9709V32H31.1257V23.2727H32.745L36.5121 28.7614H36.5888V23.2727H38.4254ZM39.9499 32V23.2727H45.7283V24.794H41.7951V26.8736H45.3448V28.3949H41.7951V32H39.9499ZM50.3402 32.1918C49.6072 32.1889 48.9766 32.0085 48.4482 31.6506C47.9226 31.2926 47.5178 30.7741 47.2337 30.0952C46.9524 29.4162 46.8132 28.5994 46.8161 27.6449C46.8161 26.6932 46.9567 25.8821 47.2379 25.2116C47.522 24.5412 47.9268 24.0312 48.4524 23.6818C48.9808 23.3295 49.6101 23.1534 50.3402 23.1534C51.0703 23.1534 51.6982 23.3295 52.2237 23.6818C52.7521 24.0341 53.1584 24.5455 53.4425 25.2159C53.7266 25.8835 53.8672 26.6932 53.8643 27.6449C53.8643 28.6023 53.7223 29.4205 53.4382 30.0994C53.157 30.7784 52.7536 31.2969 52.228 31.6548C51.7024 32.0128 51.0732 32.1918 50.3402 32.1918ZM50.3402 30.6619C50.8402 30.6619 51.2393 30.4105 51.5376 29.9077C51.8359 29.4048 51.9837 28.6506 51.9808 27.6449C51.9808 26.983 51.9126 26.4318 51.7763 25.9915C51.6428 25.5511 51.4524 25.2202 51.2053 24.9986C50.9609 24.777 50.6726 24.6662 50.3402 24.6662C49.843 24.6662 49.4453 24.9148 49.147 25.4119C48.8487 25.9091 48.6982 26.6534 48.6953 27.6449C48.6953 28.3153 48.7621 28.875 48.8956 29.3239C49.032 29.7699 49.2237 30.1051 49.4709 30.3295C49.718 30.5511 50.0078 30.6619 50.3402 30.6619ZM58.9769 23.2727V32H57.1317V25.0241H57.0806L55.082 26.277V24.6406L57.2425 23.2727H58.9769ZM64.848 23.2727V32H63.0028V25.0241H62.9517L60.9531 26.277V24.6406L63.1136 23.2727H64.848ZM70.1481 32.1193C69.5117 32.1193 68.945 32.0099 68.4478 31.7912C67.9535 31.5696 67.5629 31.2656 67.2759 30.8793C66.9918 30.4901 66.8455 30.0412 66.837 29.5327H68.695C68.7063 29.7457 68.7759 29.9332 68.9038 30.0952C69.0344 30.2543 69.2077 30.3778 69.4237 30.4659C69.6396 30.554 69.8825 30.598 70.1523 30.598C70.4336 30.598 70.6822 30.5483 70.8981 30.4489C71.114 30.3494 71.283 30.2116 71.4052 30.0355C71.5273 29.8594 71.5884 29.6562 71.5884 29.4261C71.5884 29.1932 71.5231 28.9872 71.3924 28.8082C71.2646 28.6264 71.0799 28.4844 70.8384 28.3821C70.5998 28.2798 70.3157 28.2287 69.9862 28.2287H69.1722V26.8736H69.9862C70.2646 26.8736 70.5103 26.8253 70.7234 26.7287C70.9393 26.6321 71.1069 26.4986 71.2262 26.3281C71.3455 26.1548 71.4052 25.9531 71.4052 25.723C71.4052 25.5043 71.3526 25.3125 71.2475 25.1477C71.1452 24.9801 71.0004 24.8494 70.8129 24.7557C70.6282 24.6619 70.4123 24.6151 70.1651 24.6151C69.9151 24.6151 69.6864 24.6605 69.479 24.7514C69.2717 24.8395 69.1055 24.9659 68.9805 25.1307C68.8555 25.2955 68.7887 25.4886 68.7802 25.7102H67.0117C67.0202 25.2074 67.1637 24.7642 67.4421 24.3807C67.7205 23.9972 68.0955 23.6974 68.5671 23.4815C69.0415 23.2628 69.5771 23.1534 70.1737 23.1534C70.7759 23.1534 71.3029 23.2628 71.7546 23.4815C72.2063 23.7003 72.5572 23.9957 72.8072 24.3679C73.06 24.7372 73.185 25.152 73.1822 25.6122C73.185 26.1009 73.033 26.5085 72.7262 26.8352C72.4222 27.1619 72.0259 27.3693 71.5373 27.4574V27.5256C72.1793 27.608 72.668 27.831 73.0032 28.1946C73.3413 28.5554 73.5089 29.0071 73.506 29.5497C73.5089 30.0469 73.3654 30.4886 73.0756 30.875C72.7887 31.2614 72.3924 31.5653 71.8867 31.7869C71.381 32.0085 70.8015 32.1193 70.1481 32.1193ZM78.6293 23.2727V32H76.7841V25.0241H76.733L74.7344 26.277V24.6406L76.8949 23.2727H78.6293Z" fill="white"/>
</g>
</g>
<g id="Collapse" filter="url(#filter2_d_40_362)">
<g id="Collapse_2">
<g id="Collapse Group">
<path id="Arrow base" d="M280 25.9286V13.0714" stroke="white" stroke-width="1.71429" stroke-linecap="round" stroke-linejoin="round"/>
<path id="Arrow" d="M285.357 18.4286L280 13.0714L274.643 18.4286" stroke="white" stroke-width="1.71429" stroke-linecap="round" stroke-linejoin="round"/>
<path id="Base" d="M293.929 38.7857V33.4286C293.929 32.8602 293.703 32.3152 293.301 31.9133C292.899 31.5115 292.354 31.2857 291.786 31.2857L268.214 31.2857C267.646 31.2857 267.101 31.5115 266.699 31.9133C266.297 32.3152 266.071 32.8602 266.071 33.4286V38.7857C266.071 39.354 266.297 39.8991 266.699 40.3009C267.101 40.7028 267.646 40.9286 268.214 40.9286H291.786C292.354 40.9286 292.899 40.7028 293.301 40.3009C293.703 39.8991 293.929 39.354 293.929 38.7857Z" stroke="white" stroke-width="1.71429" stroke-linecap="round" stroke-linejoin="round"/>
</g>
</g>
</g>
</g>
<defs>
<filter id="filter0_d_40_362" x="27" y="157" width="38" height="38" filterUnits="userSpaceOnUse" color-interpolation-filters="sRGB">
<feFlood flood-opacity="0" result="BackgroundImageFix"/>
<feColorMatrix in="SourceAlpha" type="matrix" values="0 0 0 0 0 0 0 0 0 0 0 0 0 0 0 0 0 0 127 0" result="hardAlpha"/>
<feOffset dy="4"/>
<feGaussianBlur stdDeviation="2"/>
<feComposite in2="hardAlpha" operator="out"/>
<feColorMatrix type="matrix" values="0 0 0 0 0 0 0 0 0 0 0 0 0 0 0 0 0 0 0.25 0"/>
<feBlend mode="normal" in2="BackgroundImageFix" result="effect1_dropShadow_40_362"/>
<feBlend mode="normal" in="SourceGraphic" in2="effect1_dropShadow_40_362" result="shape"/>
</filter>
<filter id="filter1_d_40_362" x="74.2142" y="156.212" width="37.5616" height="37.5733" filterUnits="userSpaceOnUse" color-interpolation-filters="sRGB">
<feFlood flood-opacity="0" result="BackgroundImageFix"/>
<feColorMatrix in="SourceAlpha" type="matrix" values="0 0 0 0 0 0 0 0 0 0 0 0 0 0 0 0 0 0 127 0" result="hardAlpha"/>
<feOffset dy="4"/>
<feGaussianBlur stdDeviation="2"/>
<feComposite in2="hardAlpha" operator="out"/>
<feColorMatrix type="matrix" values="0 0 0 0 0 0 0 0 0 0 0 0 0 0 0 0 0 0 0.25 0"/>
<feBlend mode="normal" in2="BackgroundImageFix" result="effect1_dropShadow_40_362"/>
<feBlend mode="normal" in="SourceGraphic" in2="effect1_dropShadow_40_362" result="shape"/>
</filter>
<filter id="filter2_d_40_362" x="261" y="12" width="38" height="38" filterUnits="userSpaceOnUse" color-interpolation-filters="sRGB">
<feFlood flood-opacity="0" result="BackgroundImageFix"/>
<feColorMatrix in="SourceAlpha" type="matrix" values="0 0 0 0 0 0 0 0 0 0 0 0 0 0 0 0 0 0 127 0" result="hardAlpha"/>
<feOffset dy="4"/>
<feGaussianBlur stdDeviation="2"/>
<feComposite in2="hardAlpha" operator="out"/>
<feColorMatrix type="matrix" values="0 0 0 0 0 0 0 0 0 0 0 0 0 0 0 0 0 0 0.25 0"/>
<feBlend mode="normal" in2="BackgroundImageFix" result="effect1_dropShadow_40_362"/>
<feBlend mode="normal" in="SourceGraphic" in2="effect1_dropShadow_40_362" result="shape"/>
</filter>
</defs>
</svg>
