<svg width="251" height="30" viewBox="0 0 251 30" fill="none" xmlns="http://www.w3.org/2000/svg">
<g id="Property 1=Smallest">
<g id="Bottom">
<path d="M0.5 15H250.5C250.5 23.2843 243.784 30 235.5 30H15.5C7.21573 30 0.5 23.2843 0.5 15Z" fill="#6C5555"/>
<g id="Fita de conflitos">
<path d="M161.923 30C161.923 21.7157 168.639 15 176.923 15H251C251 23.2843 244.284 30 236 30H161.923Z" fill="#A11C1C"/>
<g id="Conflicts">
<path id="N&#195;&#186;mero de conflitos" d="M176.785 18.2727V27H175.728V19.3807H175.677L173.547 20.7955V19.7216L175.728 18.2727H176.785ZM182.244 27.1193C181.682 27.1193 181.18 27.0227 180.74 26.8295C180.302 26.6364 179.954 26.3679 179.696 26.0241C179.44 25.6776 179.301 25.2756 179.278 24.8182H180.352C180.375 25.0994 180.471 25.3423 180.642 25.5469C180.812 25.7486 181.035 25.9048 181.311 26.0156C181.586 26.1264 181.892 26.1818 182.227 26.1818C182.602 26.1818 182.934 26.1165 183.224 25.9858C183.514 25.8551 183.741 25.6733 183.906 25.4403C184.071 25.2074 184.153 24.9375 184.153 24.6307C184.153 24.3097 184.074 24.027 183.915 23.7827C183.755 23.5355 183.523 23.3423 183.216 23.2031C182.909 23.0639 182.534 22.9943 182.091 22.9943H181.392V22.0568H182.091C182.437 22.0568 182.741 21.9943 183.003 21.8693C183.267 21.7443 183.473 21.5682 183.621 21.3409C183.771 21.1136 183.846 20.8466 183.846 20.5398C183.846 20.2443 183.781 19.9872 183.65 19.7685C183.52 19.5497 183.335 19.3793 183.096 19.2571C182.861 19.1349 182.582 19.0739 182.261 19.0739C181.96 19.0739 181.676 19.1293 181.409 19.2401C181.145 19.348 180.929 19.5057 180.761 19.7131C180.594 19.9176 180.503 20.1648 180.488 20.4545H179.466C179.483 19.9972 179.621 19.5966 179.879 19.2528C180.138 18.9062 180.476 18.6364 180.893 18.4432C181.314 18.25 181.775 18.1534 182.278 18.1534C182.818 18.1534 183.281 18.2628 183.667 18.4815C184.054 18.6974 184.351 18.983 184.558 19.3381C184.765 19.6932 184.869 20.0767 184.869 20.4886C184.869 20.9801 184.74 21.3991 184.481 21.7457C184.226 22.0923 183.878 22.3324 183.437 22.4659V22.5341C183.988 22.625 184.419 22.8594 184.728 23.2372C185.038 23.6122 185.193 24.0767 185.193 24.6307C185.193 25.1051 185.064 25.5312 184.805 25.9091C184.55 26.2841 184.2 26.5795 183.757 26.7955C183.314 27.0114 182.809 27.1193 182.244 27.1193Z" fill="white"/>
<g id="Student Conflicts">
<g id="user-remove-subtract--actions-remove-close-geometric-human-person-minus-single-up-user">
<path id="Vector" d="M192.28 21.2857C192.849 21.2857 193.394 21.0599 193.795 20.6581C194.197 20.2562 194.423 19.7112 194.423 19.1429C194.423 18.5745 194.197 18.0295 193.795 17.6276C193.394 17.2258 192.849 17 192.28 17C191.712 17 191.167 17.2258 190.765 17.6276C190.363 18.0295 190.137 18.5745 190.137 19.1429C190.137 19.7112 190.363 20.2562 190.765 20.6581C191.167 21.0599 191.712 21.2857 192.28 21.2857Z" stroke="white" stroke-width="1.71429" stroke-linecap="round" stroke-linejoin="round"/>
<path id="Vector_2" d="M193.566 27.2857H188.423V26.8211C188.429 26.3029 188.538 25.7911 188.745 25.3162C188.953 24.8412 189.253 24.4127 189.629 24.0563C190.006 23.6998 190.45 23.4226 190.935 23.2411C191.42 23.0597 191.937 22.9777 192.455 23C192.968 23.0242 193.471 23.1504 193.934 23.3712C194.398 23.5919 194.813 23.9028 195.155 24.2857" stroke="white" stroke-width="1.71429" stroke-linecap="round" stroke-linejoin="round"/>
</g>
<g id="X">
<path id="Vector_3" d="M195.155 25.5L198.155 28.5" stroke="white" stroke-width="1.71429" stroke-linecap="round" stroke-linejoin="round"/>
<path id="Vector_3_2" d="M198.155 25.5L195.155 28.5" stroke="white" stroke-width="1.71429" stroke-linecap="round" stroke-linejoin="round"/>
</g>
</g>
</g>
<g id="Fita de inscritos">
<path d="M203.923 30C203.923 21.7157 210.639 15 218.923 15H251C251 23.2843 244.284 30 236 30H203.923Z" fill="#7F7F7F"/>
<path id="N&#195;&#186;mero de alunos inscritos" d="M215.266 27V26.233L218.147 23.0795C218.485 22.7102 218.763 22.3892 218.982 22.1165C219.201 21.8409 219.363 21.5824 219.468 21.3409C219.576 21.0966 219.63 20.8409 219.63 20.5739C219.63 20.267 219.556 20.0014 219.408 19.777C219.263 19.5526 219.064 19.3793 218.811 19.2571C218.559 19.1349 218.274 19.0739 217.959 19.0739C217.624 19.0739 217.331 19.1435 217.081 19.2827C216.834 19.419 216.642 19.6108 216.506 19.858C216.372 20.1051 216.306 20.3949 216.306 20.7273H215.3C215.3 20.2159 215.418 19.767 215.654 19.3807C215.89 18.9943 216.211 18.6932 216.617 18.4773C217.026 18.2614 217.485 18.1534 217.993 18.1534C218.505 18.1534 218.958 18.2614 219.353 18.4773C219.747 18.6932 220.057 18.9844 220.282 19.3509C220.506 19.7173 220.618 20.125 220.618 20.5739C220.618 20.8949 220.56 21.2088 220.444 21.5156C220.33 21.8196 220.131 22.1591 219.847 22.5341C219.566 22.9062 219.175 23.3608 218.675 23.8977L216.715 25.9943V26.0625H220.772V27H215.266ZM222.804 27L226.708 19.2784V19.2102H222.208V18.2727H227.799V19.2614L223.912 27H222.804Z" fill="white"/>
<g id="Students">
<path id="Vector_4" d="M233.879 22.0714C234.404 22.0714 234.907 21.8457 235.278 21.4438C235.649 21.0419 235.857 20.4969 235.857 19.9286C235.857 19.3602 235.649 18.8152 235.278 18.4133C234.907 18.0115 234.404 17.7857 233.879 17.7857C233.355 17.7857 232.851 18.0115 232.48 18.4133C232.11 18.8152 231.901 19.3602 231.901 19.9286C231.901 20.4969 232.11 21.0419 232.48 21.4438C232.851 21.8457 233.355 22.0714 233.879 22.0714Z" stroke="white" stroke-width="1.71429" stroke-linecap="round" stroke-linejoin="round"/>
<path id="Vector_2_2" d="M230.319 28.0714H237.44V27.6068C237.435 27.0886 237.333 26.5768 237.142 26.1019C236.951 25.6269 236.673 25.1984 236.326 24.842C235.979 24.4855 235.569 24.2083 235.121 24.0268C234.673 23.8454 234.196 23.7634 233.718 23.7857C232.808 23.8325 231.949 24.2542 231.317 24.9646C230.685 25.675 230.328 26.6203 230.319 27.6068V28.0714Z" stroke="white" stroke-width="1.71429" stroke-linecap="round" stroke-linejoin="round"/>
<path id="Vector_3_3" d="M237.044 22.0714C237.569 22.0714 238.072 21.8457 238.443 21.4438C238.814 21.0419 239.022 20.4969 239.022 19.9286C239.022 19.3602 238.814 18.8152 238.443 18.4133C238.072 18.0115 237.569 17.7857 237.044 17.7857" stroke="white" stroke-width="1.71429" stroke-linecap="round" stroke-linejoin="round"/>
<path id="Vector_4_2" d="M239.022 28.0714H240.604V27.6069C240.596 26.7391 240.318 25.8996 239.816 25.2236C239.314 24.5476 238.616 24.0743 237.835 23.88" stroke="white" stroke-width="1.71429" stroke-linecap="round" stroke-linejoin="round"/>
</g>
</g>
</g>
<g id="Expand">
<g id="Expand Group">
<path id="Arrow base" d="M38.5 22.4286V27.5714" stroke="white" stroke-width="1.71429" stroke-linecap="round" stroke-linejoin="round"/>
<path id="Arrow" d="M36.3572 25.4286L38.5 27.5714L40.6429 25.4286" stroke="white" stroke-width="1.71429" stroke-linecap="round" stroke-linejoin="round"/>
<path id="Base" d="M32.9286 17.2857V19.4286C32.9286 19.6559 33.0189 19.8739 33.1796 20.0347C33.3404 20.1954 33.5584 20.2857 33.7857 20.2857H43.2143C43.4416 20.2857 43.6596 20.1954 43.8204 20.0347C43.9811 19.8739 44.0714 19.6559 44.0714 19.4286V17.2857C44.0714 17.0584 43.9811 16.8404 43.8204 16.6796C43.6596 16.5189 43.4416 16.4286 43.2143 16.4286H33.7857C33.5584 16.4286 33.3404 16.5189 33.1796 16.6796C33.0189 16.8404 32.9286 17.0584 32.9286 17.2857Z" stroke="white" stroke-width="1.71429" stroke-linecap="round" stroke-linejoin="round"/>
</g>
</g>
<g id="Class Lock Icon">
<g id="browser-lock--secure-password-window-browser-lock-security-login-encryption">
<path id="Vector 2567" d="M19.5715 25V23.2857C19.5715 23.1721 19.6166 23.0631 19.697 22.9827C19.7774 22.9023 19.8864 22.8572 20 22.8572H23C23.1137 22.8572 23.2227 22.9023 23.3031 22.9827C23.3835 23.0631 23.4286 23.1721 23.4286 23.2857V25C23.4286 25.1137 23.3835 25.2227 23.3031 25.3031C23.2227 25.3835 23.1137 25.4286 23 25.4286H20C19.8864 25.4286 19.7774 25.3835 19.697 25.3031C19.6166 25.2227 19.5715 25.1137 19.5715 25Z" stroke="white" stroke-width="1.71429" stroke-linejoin="round"/>
<path id="Vector 2568" d="M20.2143 22.8572V22C20.2143 21.659 20.3498 21.332 20.5909 21.0909C20.832 20.8498 21.159 20.7143 21.5 20.7143C21.841 20.7143 22.168 20.8498 22.4091 21.0909C22.6503 21.332 22.7857 21.659 22.7857 22V22.8572" stroke="white" stroke-width="1.71429" stroke-linecap="round" stroke-linejoin="round"/>
<path id="Vector_5" d="M15.9286 18.9949H27.0714" stroke="white" stroke-width="1.71429" stroke-linecap="round" stroke-linejoin="round"/>
<path id="Vector_2_3" d="M26.2143 16.4286H16.7857C16.5584 16.4286 16.3404 16.5189 16.1796 16.6796C16.0189 16.8404 15.9286 17.0584 15.9286 17.2857V26.7143C15.9286 26.9416 16.0189 27.1596 16.1796 27.3204C16.3404 27.4811 16.5584 27.5714 16.7857 27.5714H26.2143C26.4416 27.5714 26.6596 27.4811 26.8204 27.3204C26.9811 27.1596 27.0714 26.9416 27.0714 26.7143V17.2857C27.0714 17.0584 26.9811 16.8404 26.8204 16.6796C26.6596 16.5189 26.4416 16.4286 26.2143 16.4286Z" stroke="white" stroke-width="1.71429" stroke-linecap="round" stroke-linejoin="round"/>
</g>
</g>
<g id="Pencil">
<g id="pencil--change-edit-modify-pencil-write-writing">
<path id="Vector_6" d="M52.7857 26.4914L48.9286 27.5714L50.0086 23.7143L57.0714 16.6857C57.1513 16.604 57.2466 16.5392 57.3518 16.4949C57.4571 16.4506 57.5701 16.4278 57.6843 16.4278C57.7985 16.4278 57.9115 16.4506 58.0168 16.4949C58.122 16.5392 58.2173 16.604 58.2972 16.6857L59.8143 18.2114C59.8945 18.2911 59.9582 18.386 60.0017 18.4904C60.0451 18.5948 60.0675 18.7069 60.0675 18.82C60.0675 18.9331 60.0451 19.0451 60.0017 19.1495C59.9582 19.254 59.8945 19.3488 59.8143 19.4285L52.7857 26.4914Z" stroke="white" stroke-width="1.71429" stroke-linecap="round" stroke-linejoin="round"/>
</g>
</g>
</g>
<g id="Top">
<g clip-path="url(#clip0_74_2658)">
<path d="M0.5 15C0.5 6.71573 7.21573 0 15.5 0H235.5C243.784 0 250.5 6.71573 250.5 15H0.5Z" fill="#4984AE"/>
<g id="Classcode">
<path d="M0.5 15C0.5 6.71573 7.21573 0 15.5 0H66.5C66.5 8.28427 59.7843 15 51.5 15H0.5Z" fill="#0BC28B"/>
<path id="C&#195;&#179;digo Disciplina" d="M10.0492 3.27273V12H8.99237V3.27273H10.0492ZM19.0886 3.27273V12H18.0659L13.3102 5.14773H13.225V12H12.1681V3.27273H13.1909L17.9636 10.142H18.0488V3.27273H19.0886ZM21.2033 12V3.27273H26.4363V4.21023H22.2601V7.15909H26.0442V8.09659H22.2601V12H21.2033ZM30.9395 12.1193C30.2974 12.1193 29.7505 11.9446 29.2988 11.5952C28.8471 11.2429 28.502 10.733 28.2633 10.0653C28.0247 9.39489 27.9054 8.58523 27.9054 7.63636C27.9054 6.69318 28.0247 5.88778 28.2633 5.22017C28.5048 4.54972 28.8514 4.03835 29.3031 3.68608C29.7576 3.33097 30.3031 3.15341 30.9395 3.15341C31.5758 3.15341 32.1199 3.33097 32.5716 3.68608C33.0261 4.03835 33.3727 4.54972 33.6113 5.22017C33.8528 5.88778 33.9735 6.69318 33.9735 7.63636C33.9735 8.58523 33.8542 9.39489 33.6156 10.0653C33.377 10.733 33.0318 11.2429 32.5801 11.5952C32.1284 11.9446 31.5815 12.1193 30.9395 12.1193ZM30.9395 11.1818C31.5758 11.1818 32.0701 10.875 32.4224 10.2614C32.7747 9.64773 32.9508 8.77273 32.9508 7.63636C32.9508 6.88068 32.8699 6.23722 32.7079 5.70597C32.5488 5.17472 32.3187 4.76989 32.0176 4.49148C31.7193 4.21307 31.3599 4.07386 30.9395 4.07386C30.3088 4.07386 29.8159 4.38494 29.4608 5.0071C29.1056 5.62642 28.9281 6.50284 28.9281 7.63636C28.9281 8.39205 29.0076 9.03409 29.1667 9.5625C29.3258 10.0909 29.5545 10.4929 29.8528 10.7685C30.1539 11.044 30.5162 11.1818 30.9395 11.1818ZM38.661 3.27273V12H37.6042V4.38068H37.5531L35.4224 5.79545V4.72159L37.6042 3.27273H38.661ZM44.2392 3.27273V12H43.1824V4.38068H43.1312L41.0005 5.79545V4.72159L43.1824 3.27273H44.2392ZM49.698 12.1193C49.1355 12.1193 48.6341 12.0227 48.1937 11.8295C47.7562 11.6364 47.4082 11.3679 47.1497 11.0241C46.894 10.6776 46.7548 10.2756 46.7321 9.81818H47.8059C47.8287 10.0994 47.9252 10.3423 48.0957 10.5469C48.2662 10.7486 48.4892 10.9048 48.7647 11.0156C49.0403 11.1264 49.3457 11.1818 49.6809 11.1818C50.0559 11.1818 50.3883 11.1165 50.6781 10.9858C50.9679 10.8551 51.1951 10.6733 51.3599 10.4403C51.5247 10.2074 51.6071 9.9375 51.6071 9.63068C51.6071 9.30966 51.5275 9.02699 51.3684 8.78267C51.2093 8.53551 50.9764 8.34233 50.6696 8.20312C50.3627 8.06392 49.9877 7.99432 49.5446 7.99432H48.8457V7.05682H49.5446C49.8912 7.05682 50.1951 6.99432 50.4565 6.86932C50.7207 6.74432 50.9267 6.56818 51.0744 6.34091C51.225 6.11364 51.3002 5.84659 51.3002 5.53977C51.3002 5.24432 51.2349 4.98722 51.1042 4.76847C50.9735 4.54972 50.7889 4.37926 50.5502 4.2571C50.3145 4.13494 50.036 4.07386 49.715 4.07386C49.4139 4.07386 49.1298 4.12926 48.8627 4.24006C48.5985 4.34801 48.3826 4.50568 48.215 4.71307C48.0474 4.91761 47.9565 5.16477 47.9423 5.45455H46.9196C46.9366 4.99716 47.0744 4.59659 47.3329 4.25284C47.5914 3.90625 47.9295 3.63636 48.3471 3.44318C48.7676 3.25 49.2292 3.15341 49.7321 3.15341C50.2718 3.15341 50.7349 3.26278 51.1213 3.48153C51.5076 3.69744 51.8045 3.98295 52.0119 4.33807C52.2193 4.69318 52.323 5.0767 52.323 5.48864C52.323 5.98011 52.1937 6.39915 51.9352 6.74574C51.6795 7.09233 51.3315 7.33239 50.8912 7.46591V7.53409C51.4423 7.625 51.8727 7.85937 52.1824 8.23722C52.492 8.61222 52.6468 9.0767 52.6468 9.63068C52.6468 10.1051 52.5176 10.5312 52.2591 10.9091C52.0034 11.2841 51.6539 11.5795 51.2108 11.7955C50.7676 12.0114 50.2633 12.1193 49.698 12.1193ZM57.4579 3.27273V12H56.4011V4.38068H56.35L54.2193 5.79545V4.72159L56.4011 3.27273H57.4579Z" fill="white"/>
</g>
<path id="Nome do Professor" d="M77.4773 3.27273V12H76.4545L71.6989 5.14773H71.6136V12H70.5568V3.27273H71.5795L76.3523 10.142H76.4375V3.27273H77.4773ZM82.1147 12.1364C81.5238 12.1364 81.0053 11.9957 80.5593 11.7145C80.1161 11.4332 79.7695 11.0398 79.5195 10.5341C79.2724 10.0284 79.1488 9.4375 79.1488 8.76136C79.1488 8.07955 79.2724 7.48437 79.5195 6.97585C79.7695 6.46733 80.1161 6.07244 80.5593 5.79119C81.0053 5.50994 81.5238 5.36932 82.1147 5.36932C82.7056 5.36932 83.2227 5.50994 83.6658 5.79119C84.1119 6.07244 84.4585 6.46733 84.7056 6.97585C84.9556 7.48437 85.0806 8.07955 85.0806 8.76136C85.0806 9.4375 84.9556 10.0284 84.7056 10.5341C84.4585 11.0398 84.1119 11.4332 83.6658 11.7145C83.2227 11.9957 82.7056 12.1364 82.1147 12.1364ZM82.1147 11.233C82.5636 11.233 82.9329 11.1179 83.2227 10.8878C83.5124 10.6577 83.7269 10.3551 83.8661 9.98011C84.0053 9.60511 84.0749 9.19886 84.0749 8.76136C84.0749 8.32386 84.0053 7.91619 83.8661 7.53835C83.7269 7.16051 83.5124 6.85511 83.2227 6.62216C82.9329 6.3892 82.5636 6.27273 82.1147 6.27273C81.6658 6.27273 81.2965 6.3892 81.0067 6.62216C80.717 6.85511 80.5025 7.16051 80.3633 7.53835C80.2241 7.91619 80.1545 8.32386 80.1545 8.76136C80.1545 9.19886 80.2241 9.60511 80.3633 9.98011C80.5025 10.3551 80.717 10.6577 81.0067 10.8878C81.2965 11.1179 81.6658 11.233 82.1147 11.233ZM86.6158 12V5.45455H87.5874V6.47727H87.6726C87.8089 6.12784 88.0291 5.85653 88.3331 5.66335C88.6371 5.46733 89.0021 5.36932 89.4283 5.36932C89.8601 5.36932 90.2195 5.46733 90.5064 5.66335C90.7962 5.85653 91.022 6.12784 91.1839 6.47727H91.2521C91.4197 6.1392 91.6712 5.87074 92.0064 5.67188C92.3416 5.47017 92.7436 5.36932 93.2124 5.36932C93.7976 5.36932 94.2763 5.55256 94.6484 5.91903C95.0206 6.28267 95.2067 6.84943 95.2067 7.61932V12H94.201V7.61932C94.201 7.13636 94.0689 6.79119 93.8047 6.58381C93.5405 6.37642 93.2294 6.27273 92.8714 6.27273C92.4112 6.27273 92.0547 6.41193 91.8018 6.69034C91.549 6.96591 91.4226 7.31534 91.4226 7.73864V12H90.3999V7.51705C90.3999 7.14489 90.2791 6.84517 90.0376 6.6179C89.7962 6.38778 89.4851 6.27273 89.1044 6.27273C88.843 6.27273 88.5987 6.34233 88.3714 6.48153C88.147 6.62074 87.9652 6.81392 87.826 7.06108C87.6896 7.3054 87.6214 7.58807 87.6214 7.90909V12H86.6158ZM99.7898 12.1364C99.1591 12.1364 98.6151 11.9972 98.1577 11.7188C97.7031 11.4375 97.3523 11.0455 97.1051 10.5426C96.8608 10.0369 96.7386 9.44886 96.7386 8.77841C96.7386 8.10795 96.8608 7.51705 97.1051 7.00568C97.3523 6.49148 97.696 6.09091 98.1364 5.80398C98.5795 5.5142 99.0966 5.36932 99.6875 5.36932C100.028 5.36932 100.365 5.42614 100.697 5.53977C101.03 5.65341 101.332 5.83807 101.605 6.09375C101.878 6.34659 102.095 6.68182 102.257 7.09943C102.419 7.51705 102.5 8.03125 102.5 8.64205V9.06818H97.4545V8.19886H101.477C101.477 7.82955 101.403 7.5 101.256 7.21023C101.111 6.92045 100.903 6.69176 100.634 6.52415C100.366 6.35653 100.051 6.27273 99.6875 6.27273C99.2869 6.27273 98.9403 6.37216 98.6477 6.57102C98.358 6.76705 98.1349 7.02273 97.9787 7.33807C97.8224 7.65341 97.7443 7.99148 97.7443 8.35227V8.93182C97.7443 9.42614 97.8295 9.84517 98 10.1889C98.1733 10.5298 98.4134 10.7898 98.7202 10.9688C99.027 11.1449 99.3835 11.233 99.7898 11.233C100.054 11.233 100.293 11.196 100.506 11.1222C100.722 11.0455 100.908 10.9318 101.064 10.7812C101.22 10.6278 101.341 10.4375 101.426 10.2102L102.398 10.483C102.295 10.8125 102.124 11.1023 101.882 11.3523C101.641 11.5994 101.342 11.7926 100.987 11.9318C100.632 12.0682 100.233 12.1364 99.7898 12.1364ZM109.876 12.1364C109.331 12.1364 108.849 11.9986 108.432 11.723C108.014 11.4446 107.688 11.0526 107.452 10.5469C107.216 10.0384 107.098 9.4375 107.098 8.74432C107.098 8.05682 107.216 7.46023 107.452 6.95455C107.688 6.44886 108.016 6.05824 108.436 5.78267C108.857 5.5071 109.342 5.36932 109.893 5.36932C110.32 5.36932 110.656 5.44034 110.903 5.58239C111.153 5.72159 111.344 5.88068 111.474 6.05966C111.608 6.2358 111.712 6.38068 111.786 6.49432H111.871V3.27273H112.876V12H111.905V10.9943H111.786C111.712 11.1136 111.607 11.2642 111.47 11.446C111.334 11.625 111.139 11.7855 110.886 11.9276C110.634 12.0668 110.297 12.1364 109.876 12.1364ZM110.013 11.233C110.416 11.233 110.757 11.1278 111.036 10.9176C111.314 10.7045 111.526 10.4105 111.67 10.0355C111.815 9.65767 111.888 9.22159 111.888 8.72727C111.888 8.23864 111.817 7.81108 111.675 7.4446C111.533 7.07528 111.322 6.78835 111.044 6.58381C110.766 6.37642 110.422 6.27273 110.013 6.27273C109.587 6.27273 109.232 6.3821 108.947 6.60085C108.666 6.81676 108.455 7.1108 108.312 7.48295C108.173 7.85227 108.104 8.26705 108.104 8.72727C108.104 9.19318 108.175 9.61648 108.317 9.99716C108.462 10.375 108.675 10.6761 108.956 10.9006C109.24 11.1222 109.592 11.233 110.013 11.233ZM117.517 12.1364C116.926 12.1364 116.408 11.9957 115.962 11.7145C115.518 11.4332 115.172 11.0398 114.922 10.5341C114.675 10.0284 114.551 9.4375 114.551 8.76136C114.551 8.07955 114.675 7.48437 114.922 6.97585C115.172 6.46733 115.518 6.07244 115.962 5.79119C116.408 5.50994 116.926 5.36932 117.517 5.36932C118.108 5.36932 118.625 5.50994 119.068 5.79119C119.514 6.07244 119.861 6.46733 120.108 6.97585C120.358 7.48437 120.483 8.07955 120.483 8.76136C120.483 9.4375 120.358 10.0284 120.108 10.5341C119.861 11.0398 119.514 11.4332 119.068 11.7145C118.625 11.9957 118.108 12.1364 117.517 12.1364ZM117.517 11.233C117.966 11.233 118.335 11.1179 118.625 10.8878C118.915 10.6577 119.129 10.3551 119.268 9.98011C119.408 9.60511 119.477 9.19886 119.477 8.76136C119.477 8.32386 119.408 7.91619 119.268 7.53835C119.129 7.16051 118.915 6.85511 118.625 6.62216C118.335 6.3892 117.966 6.27273 117.517 6.27273C117.068 6.27273 116.699 6.3892 116.409 6.62216C116.119 6.85511 115.905 7.16051 115.766 7.53835C115.626 7.91619 115.557 8.32386 115.557 8.76136C115.557 9.19886 115.626 9.60511 115.766 9.98011C115.905 10.3551 116.119 10.6577 116.409 10.8878C116.699 11.1179 117.068 11.233 117.517 11.233ZM125.529 12V3.27273H128.478C129.163 3.27273 129.723 3.39631 130.157 3.64347C130.595 3.88778 130.919 4.21875 131.129 4.63636C131.339 5.05398 131.444 5.51989 131.444 6.03409C131.444 6.5483 131.339 7.01562 131.129 7.43608C130.922 7.85653 130.6 8.19176 130.166 8.44176C129.731 8.68892 129.174 8.8125 128.495 8.8125H126.382V7.875H128.461C128.93 7.875 129.306 7.79403 129.591 7.6321C129.875 7.47017 130.081 7.25142 130.208 6.97585C130.339 6.69744 130.404 6.38352 130.404 6.03409C130.404 5.68466 130.339 5.37216 130.208 5.09659C130.081 4.82102 129.873 4.60511 129.586 4.44886C129.299 4.28977 128.919 4.21023 128.444 4.21023H126.586V12H125.529ZM133.01 12V5.45455H133.982V6.44318H134.05C134.169 6.11932 134.385 5.85653 134.698 5.65483C135.01 5.45312 135.363 5.35227 135.755 5.35227C135.828 5.35227 135.921 5.35369 136.032 5.35653C136.142 5.35937 136.226 5.36364 136.283 5.36932V6.39205C136.249 6.38352 136.171 6.37074 136.049 6.35369C135.929 6.33381 135.803 6.32386 135.669 6.32386C135.351 6.32386 135.067 6.39062 134.817 6.52415C134.57 6.65483 134.374 6.83665 134.229 7.0696C134.087 7.29972 134.016 7.5625 134.016 7.85795V12H133.01ZM139.935 12.1364C139.344 12.1364 138.826 11.9957 138.38 11.7145C137.936 11.4332 137.59 11.0398 137.34 10.5341C137.093 10.0284 136.969 9.4375 136.969 8.76136C136.969 8.07955 137.093 7.48437 137.34 6.97585C137.59 6.46733 137.936 6.07244 138.38 5.79119C138.826 5.50994 139.344 5.36932 139.935 5.36932C140.526 5.36932 141.043 5.50994 141.486 5.79119C141.932 6.07244 142.279 6.46733 142.526 6.97585C142.776 7.48437 142.901 8.07955 142.901 8.76136C142.901 9.4375 142.776 10.0284 142.526 10.5341C142.279 11.0398 141.932 11.4332 141.486 11.7145C141.043 11.9957 140.526 12.1364 139.935 12.1364ZM139.935 11.233C140.384 11.233 140.753 11.1179 141.043 10.8878C141.333 10.6577 141.547 10.3551 141.686 9.98011C141.826 9.60511 141.895 9.19886 141.895 8.76136C141.895 8.32386 141.826 7.91619 141.686 7.53835C141.547 7.16051 141.333 6.85511 141.043 6.62216C140.753 6.3892 140.384 6.27273 139.935 6.27273C139.486 6.27273 139.117 6.3892 138.827 6.62216C138.537 6.85511 138.323 7.16051 138.184 7.53835C138.044 7.91619 137.975 8.32386 137.975 8.76136C137.975 9.19886 138.044 9.60511 138.184 9.98011C138.323 10.3551 138.537 10.6577 138.827 10.8878C139.117 11.1179 139.486 11.233 139.935 11.233ZM147.351 5.45455V6.30682H143.822V5.45455H147.351ZM144.879 12V4.55114C144.879 4.17614 144.967 3.86364 145.143 3.61364C145.32 3.36364 145.548 3.17614 145.83 3.05114C146.111 2.92614 146.408 2.86364 146.72 2.86364C146.967 2.86364 147.169 2.88352 147.325 2.9233C147.482 2.96307 147.598 3 147.675 3.03409L147.385 3.90341C147.334 3.88636 147.263 3.86506 147.172 3.83949C147.084 3.81392 146.967 3.80114 146.822 3.80114C146.49 3.80114 146.25 3.88494 146.102 4.05256C145.957 4.22017 145.885 4.46591 145.885 4.78977V12H144.879ZM151.235 12.1364C150.604 12.1364 150.06 11.9972 149.603 11.7188C149.148 11.4375 148.798 11.0455 148.55 10.5426C148.306 10.0369 148.184 9.44886 148.184 8.77841C148.184 8.10795 148.306 7.51705 148.55 7.00568C148.798 6.49148 149.141 6.09091 149.582 5.80398C150.025 5.5142 150.542 5.36932 151.133 5.36932C151.474 5.36932 151.81 5.42614 152.143 5.53977C152.475 5.65341 152.778 5.83807 153.05 6.09375C153.323 6.34659 153.54 6.68182 153.702 7.09943C153.864 7.51705 153.945 8.03125 153.945 8.64205V9.06818H148.9V8.19886H152.923C152.923 7.82955 152.849 7.5 152.701 7.21023C152.556 6.92045 152.349 6.69176 152.079 6.52415C151.812 6.35653 151.496 6.27273 151.133 6.27273C150.732 6.27273 150.386 6.37216 150.093 6.57102C149.803 6.76705 149.58 7.02273 149.424 7.33807C149.268 7.65341 149.19 7.99148 149.19 8.35227V8.93182C149.19 9.42614 149.275 9.84517 149.445 10.1889C149.619 10.5298 149.859 10.7898 150.165 10.9688C150.472 11.1449 150.829 11.233 151.235 11.233C151.499 11.233 151.738 11.196 151.951 11.1222C152.167 11.0455 152.353 10.9318 152.509 10.7812C152.665 10.6278 152.786 10.4375 152.871 10.2102L153.843 10.483C153.741 10.8125 153.569 11.1023 153.327 11.3523C153.086 11.5994 152.788 11.7926 152.433 11.9318C152.077 12.0682 151.678 12.1364 151.235 12.1364ZM160.112 6.92045L159.208 7.17614C159.151 7.02557 159.067 6.87926 158.957 6.73722C158.849 6.59233 158.701 6.47301 158.513 6.37926C158.326 6.28551 158.086 6.23864 157.793 6.23864C157.393 6.23864 157.059 6.33097 156.792 6.51562C156.528 6.69744 156.396 6.92898 156.396 7.21023C156.396 7.46023 156.487 7.65767 156.668 7.80256C156.85 7.94744 157.134 8.06818 157.521 8.16477L158.492 8.40341C159.077 8.54545 159.513 8.76278 159.8 9.0554C160.087 9.34517 160.231 9.71875 160.231 10.1761C160.231 10.5511 160.123 10.8864 159.907 11.1818C159.694 11.4773 159.396 11.7102 159.012 11.8807C158.629 12.0511 158.183 12.1364 157.674 12.1364C157.006 12.1364 156.454 11.9915 156.016 11.7017C155.579 11.4119 155.302 10.9886 155.185 10.4318L156.14 10.1932C156.231 10.5455 156.403 10.8097 156.656 10.9858C156.911 11.1619 157.245 11.25 157.657 11.25C158.126 11.25 158.498 11.1506 158.773 10.9517C159.052 10.75 159.191 10.5085 159.191 10.2273C159.191 10 159.112 9.80966 158.952 9.65625C158.793 9.5 158.549 9.38352 158.219 9.30682L157.129 9.05114C156.529 8.90909 156.089 8.68892 155.808 8.39062C155.529 8.08949 155.39 7.71307 155.39 7.26136C155.39 6.89205 155.494 6.56534 155.701 6.28125C155.911 5.99716 156.197 5.77415 156.558 5.61222C156.921 5.45028 157.333 5.36932 157.793 5.36932C158.441 5.36932 158.95 5.51136 159.319 5.79545C159.691 6.07955 159.955 6.45455 160.112 6.92045ZM166.381 6.92045L165.478 7.17614C165.421 7.02557 165.337 6.87926 165.226 6.73722C165.118 6.59233 164.971 6.47301 164.783 6.37926C164.596 6.28551 164.355 6.23864 164.063 6.23864C163.662 6.23864 163.328 6.33097 163.061 6.51562C162.797 6.69744 162.665 6.92898 162.665 7.21023C162.665 7.46023 162.756 7.65767 162.938 7.80256C163.12 7.94744 163.404 8.06818 163.79 8.16477L164.762 8.40341C165.347 8.54545 165.783 8.76278 166.07 9.0554C166.357 9.34517 166.5 9.71875 166.5 10.1761C166.5 10.5511 166.392 10.8864 166.176 11.1818C165.963 11.4773 165.665 11.7102 165.282 11.8807C164.898 12.0511 164.452 12.1364 163.944 12.1364C163.276 12.1364 162.723 11.9915 162.286 11.7017C161.848 11.4119 161.571 10.9886 161.455 10.4318L162.409 10.1932C162.5 10.5455 162.672 10.8097 162.925 10.9858C163.181 11.1619 163.515 11.25 163.926 11.25C164.395 11.25 164.767 11.1506 165.043 10.9517C165.321 10.75 165.461 10.5085 165.461 10.2273C165.461 10 165.381 9.80966 165.222 9.65625C165.063 9.5 164.819 9.38352 164.489 9.30682L163.398 9.05114C162.799 8.90909 162.358 8.68892 162.077 8.39062C161.799 8.08949 161.659 7.71307 161.659 7.26136C161.659 6.89205 161.763 6.56534 161.971 6.28125C162.181 5.99716 162.466 5.77415 162.827 5.61222C163.191 5.45028 163.603 5.36932 164.063 5.36932C164.711 5.36932 165.219 5.51136 165.588 5.79545C165.961 6.07955 166.225 6.45455 166.381 6.92045ZM170.673 12.1364C170.082 12.1364 169.564 11.9957 169.118 11.7145C168.675 11.4332 168.328 11.0398 168.078 10.5341C167.831 10.0284 167.707 9.4375 167.707 8.76136C167.707 8.07955 167.831 7.48437 168.078 6.97585C168.328 6.46733 168.675 6.07244 169.118 5.79119C169.564 5.50994 170.082 5.36932 170.673 5.36932C171.264 5.36932 171.781 5.50994 172.224 5.79119C172.67 6.07244 173.017 6.46733 173.264 6.97585C173.514 7.48437 173.639 8.07955 173.639 8.76136C173.639 9.4375 173.514 10.0284 173.264 10.5341C173.017 11.0398 172.67 11.4332 172.224 11.7145C171.781 11.9957 171.264 12.1364 170.673 12.1364ZM170.673 11.233C171.122 11.233 171.491 11.1179 171.781 10.8878C172.071 10.6577 172.286 10.3551 172.425 9.98011C172.564 9.60511 172.634 9.19886 172.634 8.76136C172.634 8.32386 172.564 7.91619 172.425 7.53835C172.286 7.16051 172.071 6.85511 171.781 6.62216C171.491 6.3892 171.122 6.27273 170.673 6.27273C170.224 6.27273 169.855 6.3892 169.565 6.62216C169.276 6.85511 169.061 7.16051 168.922 7.53835C168.783 7.91619 168.713 8.32386 168.713 8.76136C168.713 9.19886 168.783 9.60511 168.922 9.98011C169.061 10.3551 169.276 10.6577 169.565 10.8878C169.855 11.1179 170.224 11.233 170.673 11.233ZM175.174 12V5.45455H176.146V6.44318H176.214C176.333 6.11932 176.549 5.85653 176.862 5.65483C177.174 5.45312 177.527 5.35227 177.919 5.35227C177.993 5.35227 178.085 5.35369 178.196 5.35653C178.306 5.35937 178.39 5.36364 178.447 5.36932V6.39205C178.413 6.38352 178.335 6.37074 178.213 6.35369C178.093 6.33381 177.967 6.32386 177.833 6.32386C177.515 6.32386 177.231 6.39062 176.981 6.52415C176.734 6.65483 176.538 6.83665 176.393 7.0696C176.251 7.29972 176.18 7.5625 176.18 7.85795V12H175.174Z" fill="white"/>
<g id="Classroom code">
<path d="M250.5 15C250.5 6.71573 243.784 0 235.5 0H186.5C186.5 8.28427 193.216 15 201.5 15H250.5Z" fill="#89BC48"/>
<path id="C&#195;&#179;digo Disciplina_2" d="M199.708 6H198.652C198.589 5.69602 198.48 5.42898 198.324 5.19886C198.17 4.96875 197.983 4.77557 197.761 4.61932C197.542 4.46023 197.299 4.34091 197.032 4.26136C196.765 4.18182 196.487 4.14205 196.197 4.14205C195.669 4.14205 195.19 4.27557 194.761 4.54261C194.335 4.80966 193.995 5.20312 193.743 5.72301C193.493 6.2429 193.368 6.88068 193.368 7.63636C193.368 8.39205 193.493 9.02983 193.743 9.54972C193.995 10.0696 194.335 10.4631 194.761 10.7301C195.19 10.9972 195.669 11.1307 196.197 11.1307C196.487 11.1307 196.765 11.0909 197.032 11.0114C197.299 10.9318 197.542 10.8139 197.761 10.6577C197.983 10.4986 198.17 10.304 198.324 10.0739C198.48 9.84091 198.589 9.57386 198.652 9.27273H199.708C199.629 9.71875 199.484 10.1179 199.274 10.4702C199.064 10.8224 198.802 11.1222 198.49 11.3693C198.177 11.6136 197.826 11.7997 197.437 11.9276C197.051 12.0554 196.637 12.1193 196.197 12.1193C195.453 12.1193 194.791 11.9375 194.211 11.5739C193.632 11.2102 193.176 10.6932 192.843 10.0227C192.511 9.35227 192.345 8.55682 192.345 7.63636C192.345 6.71591 192.511 5.92045 192.843 5.25C193.176 4.57955 193.632 4.0625 194.211 3.69886C194.791 3.33523 195.453 3.15341 196.197 3.15341C196.637 3.15341 197.051 3.21733 197.437 3.34517C197.826 3.47301 198.177 3.66051 198.49 3.90767C198.802 4.15199 199.064 4.45028 199.274 4.80256C199.484 5.15199 199.629 5.55114 199.708 6ZM208.439 6H207.382C207.32 5.69602 207.21 5.42898 207.054 5.19886C206.901 4.96875 206.713 4.77557 206.491 4.61932C206.273 4.46023 206.03 4.34091 205.763 4.26136C205.496 4.18182 205.217 4.14205 204.928 4.14205C204.399 4.14205 203.92 4.27557 203.491 4.54261C203.065 4.80966 202.726 5.20312 202.473 5.72301C202.223 6.2429 202.098 6.88068 202.098 7.63636C202.098 8.39205 202.223 9.02983 202.473 9.54972C202.726 10.0696 203.065 10.4631 203.491 10.7301C203.92 10.9972 204.399 11.1307 204.928 11.1307C205.217 11.1307 205.496 11.0909 205.763 11.0114C206.03 10.9318 206.273 10.8139 206.491 10.6577C206.713 10.4986 206.901 10.304 207.054 10.0739C207.21 9.84091 207.32 9.57386 207.382 9.27273H208.439C208.359 9.71875 208.214 10.1179 208.004 10.4702C207.794 10.8224 207.533 11.1222 207.22 11.3693C206.908 11.6136 206.557 11.7997 206.168 11.9276C205.781 12.0554 205.368 12.1193 204.928 12.1193C204.183 12.1193 203.521 11.9375 202.942 11.5739C202.362 11.2102 201.906 10.6932 201.574 10.0227C201.241 9.35227 201.075 8.55682 201.075 7.63636C201.075 6.71591 201.241 5.92045 201.574 5.25C201.906 4.57955 202.362 4.0625 202.942 3.69886C203.521 3.33523 204.183 3.15341 204.928 3.15341C205.368 3.15341 205.781 3.21733 206.168 3.34517C206.557 3.47301 206.908 3.66051 207.22 3.90767C207.533 4.15199 207.794 4.45028 208.004 4.80256C208.214 5.15199 208.359 5.55114 208.439 6ZM209.669 4.21023V3.27273H216.215V4.21023H213.471V12H212.414V4.21023H209.669ZM220.761 3.27273V12H219.704V4.38068H219.653L217.522 5.79545V4.72159L219.704 3.27273H220.761ZM226.117 12.1193C225.475 12.1193 224.928 11.9446 224.477 11.5952C224.025 11.2429 223.68 10.733 223.441 10.0653C223.202 9.39489 223.083 8.58523 223.083 7.63636C223.083 6.69318 223.202 5.88778 223.441 5.22017C223.683 4.54972 224.029 4.03835 224.481 3.68608C224.935 3.33097 225.481 3.15341 226.117 3.15341C226.754 3.15341 227.298 3.33097 227.749 3.68608C228.204 4.03835 228.55 4.54972 228.789 5.22017C229.031 5.88778 229.151 6.69318 229.151 7.63636C229.151 8.58523 229.032 9.39489 228.793 10.0653C228.555 10.733 228.21 11.2429 227.758 11.5952C227.306 11.9446 226.759 12.1193 226.117 12.1193ZM226.117 11.1818C226.754 11.1818 227.248 10.875 227.6 10.2614C227.952 9.64773 228.129 8.77273 228.129 7.63636C228.129 6.88068 228.048 6.23722 227.886 5.70597C227.727 5.17472 227.496 4.76989 227.195 4.49148C226.897 4.21307 226.538 4.07386 226.117 4.07386C225.487 4.07386 224.994 4.38494 224.638 5.0071C224.283 5.62642 224.106 6.50284 224.106 7.63636C224.106 8.39205 224.185 9.03409 224.344 9.5625C224.504 10.0909 224.732 10.4929 225.031 10.7685C225.332 11.044 225.694 11.1818 226.117 11.1818ZM230.566 10.2102V9.34091L234.401 3.27273H235.032V4.61932H234.606L231.708 9.20455V9.27273H236.873V10.2102H230.566ZM234.674 12V9.94602V9.54119V3.27273H235.68V12H234.674ZM238.623 12V3.27273H241.674C242.282 3.27273 242.784 3.37784 243.179 3.58807C243.574 3.79545 243.868 4.07528 244.061 4.42756C244.254 4.77699 244.35 5.16477 244.35 5.59091C244.35 5.96591 244.284 6.27557 244.15 6.51989C244.02 6.7642 243.846 6.95739 243.63 7.09943C243.417 7.24148 243.186 7.34659 242.936 7.41477V7.5C243.203 7.51705 243.471 7.6108 243.741 7.78125C244.011 7.9517 244.237 8.19602 244.419 8.5142C244.6 8.83239 244.691 9.22159 244.691 9.68182C244.691 10.1193 244.592 10.5128 244.393 10.8622C244.194 11.2116 243.88 11.4886 243.451 11.6932C243.022 11.8977 242.464 12 241.777 12H238.623ZM239.68 11.0625H241.777C242.467 11.0625 242.957 10.929 243.247 10.6619C243.539 10.392 243.686 10.0653 243.686 9.68182C243.686 9.38636 243.61 9.11364 243.46 8.86364C243.309 8.6108 243.095 8.40909 242.816 8.25852C242.538 8.10511 242.208 8.02841 241.828 8.02841H239.68V11.0625ZM239.68 7.10795H241.64C241.958 7.10795 242.245 7.04545 242.501 6.92045C242.76 6.79545 242.964 6.61932 243.115 6.39205C243.268 6.16477 243.345 5.89773 243.345 5.59091C243.345 5.20739 243.211 4.8821 242.944 4.61506C242.677 4.34517 242.254 4.21023 241.674 4.21023H239.68V7.10795Z" fill="white"/>
</g>
</g>
</g>
</g>
<defs>
<clipPath id="clip0_74_2658">
<path d="M0.5 15C0.5 6.71573 7.21573 0 15.5 0H235.5C243.784 0 250.5 6.71573 250.5 15H0.5Z" fill="white"/>
</clipPath>
</defs>
</svg>
