<svg width="283" height="58" viewBox="0 0 283 58" fill="none" xmlns="http://www.w3.org/2000/svg">
<g id="Property 1=Smaller Colapsada">
<g id="Bottom">
<g clip-path="url(#clip0_41_2300)">
<path d="M0.5 30H282.5V38C282.5 49.0457 273.546 58 262.5 58H20.5C9.4543 58 0.5 49.0457 0.5 38V30Z" fill="#6C5555"/>
<g id="Fita de conflitos">
<path d="M135.5 48C135.5 36.9543 144.454 28 155.5 28H282.5C282.5 44.5685 269.069 58 252.5 58H135.5V48Z" fill="#A11C1C"/>
<g id="Conflict Counter">
<path id="N&#195;&#186;mero de conflitos" d="M157.523 35.4545V50H154.447V38.3736H154.362L151.031 40.4616V37.7344L154.632 35.4545H157.523ZM166.356 50.1989C165.296 50.1989 164.351 50.0166 163.522 49.652C162.699 49.2827 162.047 48.776 161.569 48.1321C161.096 47.4834 160.852 46.7353 160.838 45.8878H163.934C163.953 46.2429 164.069 46.5554 164.282 46.8253C164.5 47.0904 164.789 47.2964 165.149 47.4432C165.509 47.59 165.913 47.6634 166.363 47.6634C166.832 47.6634 167.246 47.5805 167.606 47.4148C167.966 47.2491 168.248 47.0194 168.451 46.7259C168.655 46.4323 168.757 46.0937 168.757 45.7102C168.757 45.322 168.648 44.9787 168.43 44.6804C168.217 44.3774 167.909 44.1406 167.507 43.9702C167.109 43.7997 166.636 43.7145 166.086 43.7145H164.73V41.456H166.086C166.55 41.456 166.96 41.3755 167.315 41.2145C167.675 41.0535 167.954 40.831 168.153 40.5469C168.352 40.258 168.451 39.9219 168.451 39.5384C168.451 39.1738 168.364 38.8542 168.189 38.5795C168.018 38.3002 167.777 38.0824 167.464 37.9261C167.156 37.7699 166.797 37.6918 166.385 37.6918C165.968 37.6918 165.587 37.7675 165.241 37.919C164.895 38.0658 164.618 38.2765 164.41 38.5511C164.202 38.8258 164.091 39.1477 164.076 39.517H161.129C161.143 38.679 161.382 37.9403 161.846 37.3011C162.31 36.6619 162.935 36.1624 163.721 35.8026C164.512 35.438 165.404 35.2557 166.399 35.2557C167.403 35.2557 168.281 35.438 169.034 35.8026C169.787 36.1671 170.371 36.6596 170.788 37.2798C171.209 37.8954 171.418 38.5866 171.413 39.3537C171.418 40.1681 171.164 40.8475 170.653 41.392C170.146 41.9366 169.486 42.2822 168.672 42.429V42.5426C169.742 42.6799 170.556 43.0516 171.115 43.6577C171.678 44.259 171.958 45.0118 171.953 45.9162C171.958 46.7448 171.718 47.4811 171.235 48.125C170.757 48.7689 170.097 49.2756 169.254 49.6449C168.411 50.0142 167.445 50.1989 166.356 50.1989Z" fill="white"/>
</g>
<g id="User Remove Subtract">
<g id="user-remove-subtract--actions-remove-close-geometric-human-person-minus-single-up-user">
<path id="Vector" d="M185.429 40.9762C186.376 40.9762 187.284 40.5999 187.954 39.9301C188.624 39.2603 189 38.3519 189 37.4047C189 36.4575 188.624 35.5491 187.954 34.8794C187.284 34.2096 186.376 33.8333 185.429 33.8333C184.481 33.8333 183.573 34.2096 182.903 34.8794C182.233 35.5491 181.857 36.4575 181.857 37.4047C181.857 38.3519 182.233 39.2603 182.903 39.9301C183.573 40.5999 184.481 40.9762 185.429 40.9762Z" stroke="white" stroke-width="1.71429" stroke-linecap="round" stroke-linejoin="round"/>
<path id="Vector_2" d="M187.571 50.9762H179V50.2019C179.009 49.3382 179.192 48.4852 179.537 47.6936C179.883 46.902 180.384 46.1879 181.011 45.5938C181.638 44.9996 182.377 44.5376 183.187 44.2352C183.996 43.9328 184.857 43.7961 185.72 43.8333C186.575 43.8737 187.413 44.0841 188.186 44.452C188.958 44.8199 189.65 45.338 190.22 45.9762" stroke="white" stroke-width="1.71429" stroke-linecap="round" stroke-linejoin="round"/>
</g>
<g id="X">
<path id="Vector_3" d="M189 48L194 53" stroke="white" stroke-width="1.71429" stroke-linecap="round" stroke-linejoin="round"/>
<path id="Vector_3_2" d="M194 48L189 53" stroke="white" stroke-width="1.71429" stroke-linecap="round" stroke-linejoin="round"/>
</g>
</g>
</g>
<g id="Fita de inscritos">
<path d="M197.5 48C197.5 36.9543 206.454 28 217.5 28H282.5V38C282.5 49.0457 273.546 58 262.5 58H197.5V48Z" fill="#7F7F7F"/>
<g id="Participants Number">
<path id="N&#195;&#186;mero de alunos inscritos" d="M216.933 50V47.7841L222.11 42.9901C222.551 42.5639 222.92 42.1804 223.218 41.8395C223.521 41.4986 223.751 41.1648 223.907 40.8381C224.064 40.5066 224.142 40.1491 224.142 39.7656C224.142 39.3395 224.045 38.9725 223.85 38.6648C223.656 38.3523 223.391 38.1132 223.055 37.9474C222.719 37.777 222.338 37.6918 221.912 37.6918C221.467 37.6918 221.078 37.7817 220.747 37.9616C220.415 38.1416 220.16 38.3996 219.98 38.7358C219.8 39.072 219.71 39.4721 219.71 39.9361H216.791C216.791 38.9844 217.006 38.1581 217.437 37.4574C217.868 36.7566 218.472 36.2145 219.248 35.831C220.025 35.4474 220.92 35.2557 221.933 35.2557C222.975 35.2557 223.881 35.4403 224.653 35.8097C225.43 36.1742 226.033 36.6809 226.464 37.3295C226.895 37.9782 227.11 38.7216 227.11 39.5597C227.11 40.1089 227.002 40.651 226.784 41.1861C226.571 41.7211 226.19 42.3153 225.64 42.9688C225.091 43.6174 224.317 44.3963 223.318 45.3054L221.194 47.3864V47.4858H227.302V50H216.933ZM230.106 50L236.136 38.0682V37.9688H229.112V35.4545H239.317V38.0043L233.281 50H230.106Z" fill="white"/>
</g>
<g id="User Multiple Group" clip-path="url(#clip1_41_2300)">
<g id="user-multiple-group--close-geometric-human-multiple-person-up-user">
<path id="Vector_4" d="M251.643 42.2857C252.59 42.2857 253.498 41.9095 254.168 41.2397C254.838 40.5699 255.214 39.6615 255.214 38.7143C255.214 37.7671 254.838 36.8587 254.168 36.1889C253.498 35.5192 252.59 35.1429 251.643 35.1429C250.696 35.1429 249.787 35.5192 249.117 36.1889C248.448 36.8587 248.071 37.7671 248.071 38.7143C248.071 39.6615 248.448 40.5699 249.117 41.2397C249.787 41.9095 250.696 42.2857 251.643 42.2857Z" stroke="white" stroke-width="1.71429" stroke-linecap="round" stroke-linejoin="round"/>
<path id="Vector_2_2" d="M245.214 52.2857H258.071V51.5115C258.062 50.6478 257.88 49.7948 257.534 49.0032C257.189 48.2115 256.688 47.4975 256.061 46.9033C255.434 46.3092 254.694 45.8472 253.885 45.5448C253.076 45.2424 252.214 45.1057 251.351 45.1429C249.709 45.2208 248.158 45.9238 247.017 47.1078C245.876 48.2918 245.231 49.8672 245.214 51.5115V52.2857Z" stroke="white" stroke-width="1.71429" stroke-linecap="round" stroke-linejoin="round"/>
<path id="Vector_3_3" d="M257.357 42.2857C258.304 42.2857 259.213 41.9095 259.882 41.2397C260.552 40.5699 260.928 39.6615 260.928 38.7143C260.928 37.7671 260.552 36.8587 259.882 36.1889C259.213 35.5192 258.304 35.1429 257.357 35.1429" stroke="white" stroke-width="1.71429" stroke-linecap="round" stroke-linejoin="round"/>
<path id="Vector_4_2" d="M260.929 52.2858H263.786V51.5115C263.77 50.0652 263.269 48.6661 262.362 47.5393C261.455 46.4126 260.195 45.6239 258.786 45.3" stroke="white" stroke-width="1.71429" stroke-linecap="round" stroke-linejoin="round"/>
</g>
</g>
</g>
<g id="Class Lock Icon" filter="url(#filter0_d_41_2300)">
<g id="browser-lock--secure-password-window-browser-lock-security-login-encryption">
<path id="Vector 2567" d="M35.2857 48V45.1429C35.2857 44.9534 35.361 44.7718 35.4949 44.6378C35.6289 44.5038 35.8106 44.4286 36 44.4286H41C41.1894 44.4286 41.3711 44.5038 41.5051 44.6378C41.639 44.7718 41.7143 44.9534 41.7143 45.1429V48C41.7143 48.1895 41.639 48.3711 41.5051 48.5051C41.3711 48.639 41.1894 48.7143 41 48.7143H36C35.8106 48.7143 35.6289 48.639 35.4949 48.5051C35.361 48.3711 35.2857 48.1895 35.2857 48Z" stroke="white" stroke-width="1.71429" stroke-linejoin="round"/>
<path id="Vector 2568" d="M36.3572 44.4286V43C36.3572 42.4317 36.5829 41.8867 36.9848 41.4848C37.3867 41.0829 37.9317 40.8572 38.5 40.8572C39.0684 40.8572 39.6134 41.0829 40.0153 41.4848C40.4171 41.8867 40.6429 42.4317 40.6429 43V44.4286" stroke="white" stroke-width="1.71429" stroke-linecap="round" stroke-linejoin="round"/>
<path id="Vector_5" d="M29.2143 37.9915H47.7857" stroke="white" stroke-width="1.71429" stroke-linecap="round" stroke-linejoin="round"/>
<path id="Vector_2_3" d="M46.3572 33.7143H30.6429C30.264 33.7143 29.9006 33.8648 29.6327 34.1327C29.3648 34.4006 29.2143 34.764 29.2143 35.1429V50.8572C29.2143 51.236 29.3648 51.5994 29.6327 51.8673C29.9006 52.1352 30.264 52.2857 30.6429 52.2857H46.3572C46.736 52.2857 47.0994 52.1352 47.3673 51.8673C47.6352 51.5994 47.7857 51.236 47.7857 50.8572V35.1429C47.7857 34.764 47.6352 34.4006 47.3673 34.1327C47.0994 33.8648 46.736 33.7143 46.3572 33.7143Z" stroke="white" stroke-width="1.71429" stroke-linecap="round" stroke-linejoin="round"/>
</g>
</g>
<g id="Pencil">
<g id="pencil--change-edit-modify-pencil-write-writing">
<g id="Vector_6" filter="url(#filter1_d_41_2300)">
<path d="M65.6429 50.4857L59.2143 52.2857L61.0143 45.8571L72.7857 34.1428C72.9188 34.0068 73.0777 33.8987 73.2531 33.8248C73.4285 33.751 73.6169 33.713 73.8072 33.713C73.9975 33.713 74.1858 33.751 74.3612 33.8248C74.5366 33.8987 74.6955 34.0068 74.8286 34.1428L77.3572 36.6857C77.4909 36.8186 77.597 36.9766 77.6694 37.1507C77.7418 37.3248 77.7791 37.5114 77.7791 37.7C77.7791 37.8885 77.7418 38.0752 77.6694 38.2493C77.597 38.4233 77.4909 38.5814 77.3572 38.7143L65.6429 50.4857Z" stroke="white" stroke-width="1.71429" stroke-linecap="round" stroke-linejoin="round" shape-rendering="crispEdges"/>
</g>
</g>
</g>
<g id="Expand" filter="url(#filter2_d_41_2300)">
<g id="Expand Group">
<path id="Arrow base" d="M98.5 43.7143V52.2857" stroke="white" stroke-width="1.71429" stroke-linecap="round" stroke-linejoin="round"/>
<path id="Arrow" d="M94.9286 48.7143L98.5 52.2857L102.071 48.7143" stroke="white" stroke-width="1.71429" stroke-linecap="round" stroke-linejoin="round"/>
<path id="Base" d="M89.2143 35.1428V38.7143C89.2143 39.0931 89.3648 39.4565 89.6327 39.7244C89.9006 39.9923 90.264 40.1428 90.6429 40.1428H106.357C106.736 40.1428 107.099 39.9923 107.367 39.7244C107.635 39.4565 107.786 39.0931 107.786 38.7143V35.1428C107.786 34.7639 107.635 34.4006 107.367 34.1327C107.099 33.8648 106.736 33.7143 106.357 33.7143H90.6429C90.264 33.7143 89.9006 33.8648 89.6327 34.1327C89.3648 34.4006 89.2143 34.7639 89.2143 35.1428Z" stroke="white" stroke-width="1.71429" stroke-linecap="round" stroke-linejoin="round"/>
</g>
</g>
</g>
</g>
<g id="Top">
<g clip-path="url(#clip2_41_2300)">
<path d="M0.5 30C0.5 20.6812 0.5 16.0218 2.02241 12.3463C4.05229 7.44577 7.94577 3.55229 12.8463 1.52241C16.5218 0 21.1812 0 30.5 0H252.5C261.819 0 266.478 0 270.154 1.52241C275.054 3.55229 278.948 7.44577 280.978 12.3463C282.5 16.0218 282.5 20.6812 282.5 30H0.5Z" fill="#4984AE"/>
<g id="Name Frame">
<path id="Nome do Professor" d="M81.5728 9.09091V20H79.5806L74.8345 13.1339H74.7546V20H72.4482V9.09091H74.4723L79.1811 15.9517H79.277V9.09091H81.5728ZM87.1325 20.1598C86.3051 20.1598 85.5896 19.984 84.9859 19.6325C84.3857 19.2773 83.9223 18.7837 83.5956 18.1516C83.2689 17.516 83.1056 16.7791 83.1056 15.9411C83.1056 15.0959 83.2689 14.3572 83.5956 13.7251C83.9223 13.0895 84.3857 12.5959 84.9859 12.2443C85.5896 11.8892 86.3051 11.7116 87.1325 11.7116C87.96 11.7116 88.6737 11.8892 89.2739 12.2443C89.8776 12.5959 90.3428 13.0895 90.6695 13.7251C90.9962 14.3572 91.1595 15.0959 91.1595 15.9411C91.1595 16.7791 90.9962 17.516 90.6695 18.1516C90.3428 18.7837 89.8776 19.2773 89.2739 19.6325C88.6737 19.984 87.96 20.1598 87.1325 20.1598ZM87.1432 18.402C87.5196 18.402 87.8339 18.2955 88.086 18.0824C88.3382 17.8658 88.5281 17.571 88.656 17.1982C88.7874 16.8253 88.8531 16.4009 88.8531 15.9251C88.8531 15.4492 88.7874 15.0249 88.656 14.652C88.5281 14.2791 88.3382 13.9844 88.086 13.7678C87.8339 13.5511 87.5196 13.4428 87.1432 13.4428C86.7632 13.4428 86.4436 13.5511 86.1844 13.7678C85.9287 13.9844 85.7352 14.2791 85.6038 14.652C85.4759 15.0249 85.412 15.4492 85.412 15.9251C85.412 16.4009 85.4759 16.8253 85.6038 17.1982C85.7352 17.571 85.9287 17.8658 86.1844 18.0824C86.4436 18.2955 86.7632 18.402 87.1432 18.402ZM92.635 20V11.8182H94.7977V13.2617H94.8936C95.064 12.7823 95.3481 12.4041 95.7458 12.1271C96.1436 11.8501 96.6194 11.7116 97.1734 11.7116C97.7345 11.7116 98.2121 11.8519 98.6063 12.1325C99.0004 12.4094 99.2632 12.7859 99.3946 13.2617H99.4798C99.6468 12.793 99.9486 12.4183 100.385 12.1378C100.826 11.8537 101.346 11.7116 101.946 11.7116C102.71 11.7116 103.329 11.9549 103.805 12.4414C104.285 12.9244 104.524 13.6097 104.524 14.4975V20H102.26V14.945C102.26 14.4904 102.14 14.1495 101.898 13.9222C101.657 13.695 101.355 13.5813 100.993 13.5813C100.581 13.5813 100.259 13.7127 100.028 13.9755C99.7977 14.2347 99.6823 14.5774 99.6823 15.0036V20H97.4823V14.897C97.4823 14.4957 97.3669 14.1761 97.1361 13.9382C96.9088 13.7003 96.6088 13.5813 96.2359 13.5813C95.9838 13.5813 95.7565 13.6452 95.5541 13.7731C95.3552 13.8974 95.1972 14.0732 95.08 14.3004C94.9628 14.5241 94.9042 14.7869 94.9042 15.0888V20H92.635ZM110.045 20.1598C109.204 20.1598 108.479 19.9893 107.872 19.6484C107.268 19.304 106.803 18.8175 106.476 18.1889C106.15 17.5568 105.986 16.8093 105.986 15.9464C105.986 15.1048 106.15 14.3661 106.476 13.7305C106.803 13.0948 107.263 12.5994 107.856 12.2443C108.453 11.8892 109.152 11.7116 109.955 11.7116C110.495 11.7116 110.997 11.7987 111.462 11.9727C111.931 12.1431 112.339 12.4006 112.687 12.745C113.039 13.0895 113.312 13.5227 113.508 14.0447C113.703 14.5632 113.801 15.1705 113.801 15.8665V16.4897H106.892V15.0835H111.665C111.665 14.7567 111.594 14.4673 111.452 14.2152C111.31 13.9631 111.112 13.766 110.86 13.6239C110.612 13.4783 110.322 13.4055 109.992 13.4055C109.648 13.4055 109.342 13.4854 109.076 13.6452C108.813 13.8015 108.607 14.0128 108.458 14.2791C108.309 14.5419 108.233 14.8349 108.229 15.158V16.495C108.229 16.8999 108.304 17.2496 108.453 17.5444C108.605 17.8391 108.82 18.0664 109.097 18.2262C109.374 18.386 109.703 18.4659 110.083 18.4659C110.335 18.4659 110.566 18.4304 110.775 18.3594C110.985 18.2884 111.164 18.1818 111.313 18.0398C111.462 17.8977 111.576 17.7237 111.654 17.5178L113.753 17.6562C113.646 18.1605 113.428 18.6009 113.098 18.9773C112.771 19.3501 112.348 19.6413 111.83 19.8509C111.315 20.0568 110.72 20.1598 110.045 20.1598ZM121.768 20.1332C121.147 20.1332 120.584 19.9734 120.08 19.6538C119.579 19.3306 119.181 18.8565 118.886 18.2315C118.595 17.603 118.45 16.8324 118.45 15.9197C118.45 14.9822 118.6 14.2028 118.902 13.5813C119.204 12.9563 119.605 12.4893 120.106 12.1804C120.61 11.8679 121.163 11.7116 121.763 11.7116C122.221 11.7116 122.603 11.7898 122.908 11.946C123.217 12.0987 123.466 12.2905 123.654 12.5213C123.846 12.7486 123.991 12.9723 124.091 13.1925H124.16V9.09091H126.424V20H124.186V18.6896H124.091C123.984 18.9169 123.833 19.1424 123.638 19.3661C123.446 19.5863 123.196 19.7692 122.887 19.9148C122.581 20.0604 122.208 20.1332 121.768 20.1332ZM122.487 18.3274C122.853 18.3274 123.162 18.228 123.414 18.0291C123.67 17.8267 123.865 17.5444 124 17.1822C124.138 16.82 124.208 16.3956 124.208 15.9091C124.208 15.4226 124.14 15 124.005 14.6413C123.87 14.2827 123.675 14.0057 123.419 13.8104C123.164 13.6151 122.853 13.5174 122.487 13.5174C122.114 13.5174 121.8 13.6186 121.544 13.821C121.289 14.0234 121.095 14.304 120.964 14.6626C120.832 15.0213 120.767 15.4368 120.767 15.9091C120.767 16.3849 120.832 16.8058 120.964 17.1715C121.099 17.5337 121.292 17.8178 121.544 18.0238C121.8 18.2262 122.114 18.3274 122.487 18.3274ZM131.986 20.1598C131.159 20.1598 130.443 19.984 129.839 19.6325C129.239 19.2773 128.776 18.7837 128.449 18.1516C128.122 17.516 127.959 16.7791 127.959 15.9411C127.959 15.0959 128.122 14.3572 128.449 13.7251C128.776 13.0895 129.239 12.5959 129.839 12.2443C130.443 11.8892 131.159 11.7116 131.986 11.7116C132.813 11.7116 133.527 11.8892 134.127 12.2443C134.731 12.5959 135.196 13.0895 135.523 13.7251C135.85 14.3572 136.013 15.0959 136.013 15.9411C136.013 16.7791 135.85 17.516 135.523 18.1516C135.196 18.7837 134.731 19.2773 134.127 19.6325C133.527 19.984 132.813 20.1598 131.986 20.1598ZM131.997 18.402C132.373 18.402 132.687 18.2955 132.94 18.0824C133.192 17.8658 133.382 17.571 133.509 17.1982C133.641 16.8253 133.707 16.4009 133.707 15.9251C133.707 15.4492 133.641 15.0249 133.509 14.652C133.382 14.2791 133.192 13.9844 132.94 13.7678C132.687 13.5511 132.373 13.4428 131.997 13.4428C131.617 13.4428 131.297 13.5511 131.038 13.7678C130.782 13.9844 130.589 14.2791 130.457 14.652C130.329 15.0249 130.266 15.4492 130.266 15.9251C130.266 16.4009 130.329 16.8253 130.457 17.1982C130.589 17.571 130.782 17.8658 131.038 18.0824C131.297 18.2955 131.617 18.402 131.997 18.402ZM141.003 20V9.09091H145.307C146.134 9.09091 146.839 9.24893 147.422 9.56499C148.004 9.87749 148.448 10.3125 148.753 10.87C149.062 11.424 149.217 12.0632 149.217 12.7876C149.217 13.5121 149.06 14.1513 148.748 14.7053C148.435 15.2592 147.983 15.6907 147.39 15.9996C146.8 16.3086 146.086 16.4631 145.248 16.4631H142.505V14.6147H144.875C145.319 14.6147 145.685 14.5384 145.973 14.3857C146.264 14.2294 146.48 14.0146 146.623 13.7411C146.768 13.4641 146.841 13.1463 146.841 12.7876C146.841 12.4254 146.768 12.1094 146.623 11.8395C146.48 11.5661 146.264 11.3548 145.973 11.2056C145.681 11.0529 145.312 10.9766 144.865 10.9766H143.309V20H141.003ZM150.672 20V11.8182H152.872V13.2457H152.957C153.106 12.7379 153.357 12.3544 153.708 12.0952C154.06 11.8324 154.465 11.701 154.923 11.701C155.036 11.701 155.159 11.7081 155.29 11.7223C155.422 11.7365 155.537 11.756 155.637 11.7809V13.7944C155.53 13.7624 155.383 13.734 155.195 13.7092C155.006 13.6843 154.834 13.6719 154.678 13.6719C154.344 13.6719 154.046 13.7447 153.783 13.8903C153.524 14.0323 153.318 14.2312 153.165 14.4869C153.016 14.7425 152.941 15.0373 152.941 15.3711V20H150.672ZM160.126 20.1598C159.298 20.1598 158.583 19.984 157.979 19.6325C157.379 19.2773 156.915 18.7837 156.589 18.1516C156.262 17.516 156.099 16.7791 156.099 15.9411C156.099 15.0959 156.262 14.3572 156.589 13.7251C156.915 13.0895 157.379 12.5959 157.979 12.2443C158.583 11.8892 159.298 11.7116 160.126 11.7116C160.953 11.7116 161.667 11.8892 162.267 12.2443C162.871 12.5959 163.336 13.0895 163.663 13.7251C163.989 14.3572 164.153 15.0959 164.153 15.9411C164.153 16.7791 163.989 17.516 163.663 18.1516C163.336 18.7837 162.871 19.2773 162.267 19.6325C161.667 19.984 160.953 20.1598 160.126 20.1598ZM160.136 18.402C160.513 18.402 160.827 18.2955 161.079 18.0824C161.331 17.8658 161.521 17.571 161.649 17.1982C161.781 16.8253 161.846 16.4009 161.846 15.9251C161.846 15.4492 161.781 15.0249 161.649 14.652C161.521 14.2791 161.331 13.9844 161.079 13.7678C160.827 13.5511 160.513 13.4428 160.136 13.4428C159.756 13.4428 159.437 13.5511 159.178 13.7678C158.922 13.9844 158.728 14.2791 158.597 14.652C158.469 15.0249 158.405 15.4492 158.405 15.9251C158.405 16.4009 158.469 16.8253 158.597 17.1982C158.728 17.571 158.922 17.8658 159.178 18.0824C159.437 18.2955 159.756 18.402 160.136 18.402ZM170.028 11.8182V13.5227H164.978V11.8182H170.028ZM166.134 20V11.2269C166.134 10.6339 166.25 10.142 166.48 9.75142C166.715 9.36079 167.034 9.06783 167.439 8.87251C167.844 8.6772 168.304 8.57954 168.819 8.57954C169.167 8.57954 169.485 8.60618 169.772 8.65945C170.064 8.71271 170.28 8.76065 170.422 8.80327L170.017 10.5078C169.929 10.4794 169.819 10.4528 169.687 10.4279C169.559 10.4031 169.428 10.3906 169.293 10.3906C168.959 10.3906 168.727 10.4688 168.595 10.625C168.464 10.7777 168.398 10.9925 168.398 11.2695V20H166.134ZM174.85 20.1598C174.008 20.1598 173.284 19.9893 172.677 19.6484C172.073 19.304 171.608 18.8175 171.281 18.1889C170.954 17.5568 170.791 16.8093 170.791 15.9464C170.791 15.1048 170.954 14.3661 171.281 13.7305C171.608 13.0948 172.068 12.5994 172.661 12.2443C173.257 11.8892 173.957 11.7116 174.759 11.7116C175.299 11.7116 175.802 11.7987 176.267 11.9727C176.736 12.1431 177.144 12.4006 177.492 12.745C177.844 13.0895 178.117 13.5227 178.312 14.0447C178.508 14.5632 178.605 15.1705 178.605 15.8665V16.4897H171.697V15.0835H176.469C176.469 14.7567 176.398 14.4673 176.256 14.2152C176.114 13.9631 175.917 13.766 175.665 13.6239C175.416 13.4783 175.127 13.4055 174.797 13.4055C174.452 13.4055 174.147 13.4854 173.881 13.6452C173.618 13.8015 173.412 14.0128 173.263 14.2791C173.114 14.5419 173.037 14.8349 173.034 15.158V16.495C173.034 16.8999 173.108 17.2496 173.257 17.5444C173.41 17.8391 173.625 18.0664 173.902 18.2262C174.179 18.386 174.507 18.4659 174.887 18.4659C175.139 18.4659 175.37 18.4304 175.58 18.3594C175.789 18.2884 175.969 18.1818 176.118 18.0398C176.267 17.8977 176.381 17.7237 176.459 17.5178L178.557 17.6562C178.451 18.1605 178.233 18.6009 177.902 18.9773C177.576 19.3501 177.153 19.6413 176.634 19.8509C176.12 20.0568 175.525 20.1598 174.85 20.1598ZM186.894 14.1513L184.816 14.2791C184.781 14.1016 184.704 13.9418 184.587 13.7997C184.47 13.6541 184.316 13.5387 184.124 13.4535C183.936 13.3647 183.71 13.3203 183.447 13.3203C183.096 13.3203 182.799 13.3949 182.558 13.544C182.316 13.6896 182.196 13.8849 182.196 14.13C182.196 14.3253 182.274 14.4904 182.43 14.6254C182.586 14.7603 182.854 14.8686 183.234 14.9503L184.715 15.2486C185.511 15.4119 186.104 15.6747 186.494 16.0369C186.885 16.3991 187.08 16.875 187.08 17.4645C187.08 18.0007 186.922 18.4712 186.606 18.8761C186.294 19.2809 185.864 19.5969 185.317 19.8242C184.774 20.0479 184.147 20.1598 183.437 20.1598C182.354 20.1598 181.491 19.9343 180.848 19.4833C180.209 19.0288 179.834 18.4109 179.724 17.6296L181.956 17.5124C182.023 17.8427 182.187 18.0948 182.446 18.2688C182.705 18.4393 183.037 18.5245 183.442 18.5245C183.84 18.5245 184.159 18.4482 184.401 18.2955C184.646 18.1392 184.77 17.9386 184.774 17.6935C184.77 17.4876 184.683 17.3189 184.513 17.1875C184.342 17.0526 184.079 16.9496 183.724 16.8786L182.307 16.5962C181.508 16.4364 180.914 16.1594 180.523 15.7653C180.136 15.3711 179.942 14.8686 179.942 14.2578C179.942 13.7322 180.084 13.2795 180.369 12.8995C180.656 12.5195 181.059 12.2266 181.578 12.0206C182.1 11.8146 182.71 11.7116 183.41 11.7116C184.443 11.7116 185.257 11.93 185.85 12.3668C186.446 12.8036 186.794 13.3984 186.894 14.1513ZM195.317 14.1513L193.239 14.2791C193.204 14.1016 193.127 13.9418 193.01 13.7997C192.893 13.6541 192.738 13.5387 192.547 13.4535C192.358 13.3647 192.133 13.3203 191.87 13.3203C191.519 13.3203 191.222 13.3949 190.981 13.544C190.739 13.6896 190.618 13.8849 190.618 14.13C190.618 14.3253 190.697 14.4904 190.853 14.6254C191.009 14.7603 191.277 14.8686 191.657 14.9503L193.138 15.2486C193.933 15.4119 194.526 15.6747 194.917 16.0369C195.308 16.3991 195.503 16.875 195.503 17.4645C195.503 18.0007 195.345 18.4712 195.029 18.8761C194.716 19.2809 194.287 19.5969 193.74 19.8242C193.197 20.0479 192.57 20.1598 191.86 20.1598C190.776 20.1598 189.914 19.9343 189.271 19.4833C188.632 19.0288 188.257 18.4109 188.147 17.6296L190.379 17.5124C190.446 17.8427 190.61 18.0948 190.869 18.2688C191.128 18.4393 191.46 18.5245 191.865 18.5245C192.263 18.5245 192.582 18.4482 192.824 18.2955C193.069 18.1392 193.193 17.9386 193.197 17.6935C193.193 17.4876 193.106 17.3189 192.936 17.1875C192.765 17.0526 192.502 16.9496 192.147 16.8786L190.73 16.5962C189.931 16.4364 189.336 16.1594 188.946 15.7653C188.559 15.3711 188.365 14.8686 188.365 14.2578C188.365 13.7322 188.507 13.2795 188.791 12.8995C189.079 12.5195 189.482 12.2266 190.001 12.0206C190.523 11.8146 191.133 11.7116 191.833 11.7116C192.866 11.7116 193.68 11.93 194.273 12.3668C194.869 12.8036 195.217 13.3984 195.317 14.1513ZM200.629 20.1598C199.801 20.1598 199.086 19.984 198.482 19.6325C197.882 19.2773 197.418 18.7837 197.092 18.1516C196.765 17.516 196.602 16.7791 196.602 15.9411C196.602 15.0959 196.765 14.3572 197.092 13.7251C197.418 13.0895 197.882 12.5959 198.482 12.2443C199.086 11.8892 199.801 11.7116 200.629 11.7116C201.456 11.7116 202.17 11.8892 202.77 12.2443C203.374 12.5959 203.839 13.0895 204.166 13.7251C204.492 14.3572 204.656 15.0959 204.656 15.9411C204.656 16.7791 204.492 17.516 204.166 18.1516C203.839 18.7837 203.374 19.2773 202.77 19.6325C202.17 19.984 201.456 20.1598 200.629 20.1598ZM200.639 18.402C201.016 18.402 201.33 18.2955 201.582 18.0824C201.834 17.8658 202.024 17.571 202.152 17.1982C202.283 16.8253 202.349 16.4009 202.349 15.9251C202.349 15.4492 202.283 15.0249 202.152 14.652C202.024 14.2791 201.834 13.9844 201.582 13.7678C201.33 13.5511 201.016 13.4428 200.639 13.4428C200.259 13.4428 199.94 13.5511 199.68 13.7678C199.425 13.9844 199.231 14.2791 199.1 14.652C198.972 15.0249 198.908 15.4492 198.908 15.9251C198.908 16.4009 198.972 16.8253 199.1 17.1982C199.231 17.571 199.425 17.8658 199.68 18.0824C199.94 18.2955 200.259 18.402 200.639 18.402ZM206.131 20V11.8182H208.331V13.2457H208.416C208.565 12.7379 208.816 12.3544 209.167 12.0952C209.519 11.8324 209.924 11.701 210.382 11.701C210.495 11.701 210.618 11.7081 210.749 11.7223C210.881 11.7365 210.996 11.756 211.096 11.7809V13.7944C210.989 13.7624 210.842 13.734 210.653 13.7092C210.465 13.6843 210.293 13.6719 210.137 13.6719C209.803 13.6719 209.505 13.7447 209.242 13.8903C208.983 14.0323 208.777 14.2312 208.624 14.4869C208.475 14.7425 208.4 15.0373 208.4 15.3711V20H206.131Z" fill="white"/>
</g>
<g id="Classcode">
<path d="M0.5 20C0.5 8.9543 9.45431 0 20.5 0H58.5V10C58.5 21.0457 49.5457 30 38.5 30H0.5V20Z" fill="#0BC28B"/>
<path id="C&#195;&#179;digo Disciplina" d="M9.58967 11.2273V18.5H8.05202V11.2273H9.58967ZM16.9379 11.2273V18.5H15.6097L12.4457 13.9226H12.3924V18.5H10.8548V11.2273H12.2042L15.3434 15.8011H15.4073V11.2273H16.9379ZM18.2083 18.5V11.2273H23.0236V12.495H19.7459V14.228H22.704V15.4957H19.7459V18.5H18.2083ZM26.8668 18.6598C26.256 18.6574 25.7305 18.5071 25.2901 18.2088C24.8522 17.9105 24.5148 17.4785 24.2781 16.9126C24.0437 16.3468 23.9277 15.6662 23.93 14.8707C23.93 14.0777 24.0472 13.4018 24.2816 12.843C24.5183 12.2843 24.8557 11.8594 25.2937 11.5682C25.734 11.2746 26.2584 11.1278 26.8668 11.1278C27.4753 11.1278 27.9985 11.2746 28.4364 11.5682C28.8768 11.8617 29.2153 12.2879 29.4521 12.8466C29.6888 13.4029 29.806 14.0777 29.8036 14.8707C29.8036 15.6686 29.6853 16.3504 29.4485 16.9162C29.2141 17.482 28.878 17.9141 28.44 18.2124C28.002 18.5107 27.4776 18.6598 26.8668 18.6598ZM26.8668 17.3849C27.2835 17.3849 27.6161 17.1754 27.8647 16.7564C28.1133 16.3374 28.2364 15.7088 28.234 14.8707C28.234 14.3191 28.1772 13.8598 28.0636 13.4929C27.9523 13.1259 27.7937 12.8501 27.5877 12.6655C27.3841 12.4808 27.1438 12.3885 26.8668 12.3885C26.4525 12.3885 26.1211 12.5956 25.8725 13.0099C25.6239 13.4242 25.4985 14.0445 25.4961 14.8707C25.4961 15.4295 25.5517 15.8958 25.663 16.2699C25.7766 16.6416 25.9364 16.9209 26.1424 17.108C26.3484 17.2926 26.5898 17.3849 26.8668 17.3849ZM34.0641 11.2273V18.5H32.5265V12.6868H32.4838L30.8184 13.7308V12.3672L32.6188 11.2273H34.0641ZM38.9567 11.2273V18.5H37.419V12.6868H37.3764L35.7109 13.7308V12.3672L37.5114 11.2273H38.9567ZM43.3734 18.5994C42.8431 18.5994 42.3708 18.5083 41.9565 18.326C41.5446 18.1413 41.219 17.888 40.9799 17.5661C40.7432 17.2417 40.6213 16.8677 40.6142 16.4439H42.1625C42.1719 16.6214 42.2299 16.7777 42.3365 16.9126C42.4454 17.0452 42.5898 17.1482 42.7697 17.2216C42.9496 17.295 43.152 17.3317 43.377 17.3317C43.6113 17.3317 43.8185 17.2902 43.9984 17.2074C44.1783 17.1245 44.3192 17.0097 44.421 16.8629C44.5228 16.7161 44.5737 16.5469 44.5737 16.3551C44.5737 16.161 44.5192 15.9893 44.4103 15.8402C44.3038 15.6887 44.1499 15.5703 43.9487 15.4851C43.7498 15.3999 43.5131 15.3572 43.2385 15.3572H42.5602V14.228H43.2385C43.4705 14.228 43.6752 14.1877 43.8528 14.1072C44.0327 14.0268 44.1724 13.9155 44.2718 13.7734C44.3713 13.629 44.421 13.4609 44.421 13.2692C44.421 13.0869 44.3772 12.9271 44.2896 12.7898C44.2044 12.6501 44.0836 12.5412 43.9274 12.4631C43.7735 12.3849 43.5936 12.3459 43.3876 12.3459C43.1793 12.3459 42.9887 12.3838 42.8159 12.4595C42.6431 12.5329 42.5046 12.6383 42.4004 12.7756C42.2962 12.9129 42.2406 13.0739 42.2335 13.2585H40.7598C40.7669 12.8395 40.8864 12.4702 41.1184 12.1506C41.3504 11.831 41.6629 11.5812 42.0559 11.4013C42.4513 11.219 42.8975 11.1278 43.3947 11.1278C43.8966 11.1278 44.3358 11.219 44.7122 11.4013C45.0886 11.5836 45.381 11.8298 45.5893 12.1399C45.8 12.4477 45.9042 12.7933 45.9018 13.1768C45.9042 13.584 45.7775 13.9238 45.5218 14.196C45.2685 14.4683 44.9383 14.6411 44.5311 14.7145V14.7713C45.0661 14.84 45.4733 15.0258 45.7527 15.3288C46.0344 15.6295 46.1741 16.0059 46.1717 16.4581C46.1741 16.8724 46.0545 17.2405 45.813 17.5625C45.5739 17.8845 45.2437 18.1378 44.8223 18.3224C44.4009 18.5071 43.9179 18.5994 43.3734 18.5994ZM50.4411 11.2273V18.5H48.9034V12.6868H48.8608L47.1953 13.7308V12.3672L48.9957 11.2273H50.4411Z" fill="white"/>
</g>
<g id="Classcode_2">
<path d="M282.5 20C282.5 8.9543 273.546 0 262.5 0H214.5V10C214.5 21.0457 223.454 30 234.5 30H282.5V20Z" fill="#89BC48"/>
<path id="C&#195;&#179;digo Disciplina_2" d="M235.412 13.7734H233.857C233.828 13.5722 233.77 13.3935 233.683 13.2372C233.595 13.0786 233.483 12.9437 233.346 12.8324C233.208 12.7211 233.05 12.6359 232.87 12.5767C232.692 12.5175 232.499 12.4879 232.291 12.4879C231.914 12.4879 231.587 12.5814 231.307 12.7685C231.028 12.9531 230.811 13.223 230.657 13.5781C230.503 13.9309 230.426 14.3594 230.426 14.8636C230.426 15.3821 230.503 15.8177 230.657 16.1705C230.814 16.5232 231.031 16.7895 231.311 16.9695C231.59 17.1494 231.913 17.2393 232.28 17.2393C232.486 17.2393 232.677 17.2121 232.852 17.1577C233.029 17.1032 233.187 17.0239 233.324 16.9197C233.462 16.8132 233.575 16.6842 233.665 16.5327C233.757 16.3812 233.821 16.2083 233.857 16.0142L235.412 16.0213C235.372 16.3551 235.271 16.6771 235.11 16.9872C234.952 17.295 234.738 17.5708 234.468 17.8146C234.2 18.0561 233.881 18.2479 233.509 18.3899C233.14 18.5296 232.722 18.5994 232.255 18.5994C231.607 18.5994 231.027 18.4527 230.515 18.1591C230.006 17.8655 229.604 17.4406 229.308 16.8842C229.014 16.3279 228.868 15.6544 228.868 14.8636C228.868 14.0705 229.017 13.3958 229.315 12.8395C229.613 12.2831 230.018 11.8594 230.529 11.5682C231.041 11.2746 231.616 11.1278 232.255 11.1278C232.677 11.1278 233.067 11.187 233.427 11.3054C233.789 11.4238 234.11 11.5966 234.39 11.8239C234.669 12.0488 234.896 12.3246 235.071 12.6513C235.249 12.978 235.363 13.352 235.412 13.7734ZM242.932 13.7734H241.376C241.348 13.5722 241.29 13.3935 241.202 13.2372C241.115 13.0786 241.002 12.9437 240.865 12.8324C240.728 12.7211 240.569 12.6359 240.389 12.5767C240.212 12.5175 240.019 12.4879 239.81 12.4879C239.434 12.4879 239.106 12.5814 238.827 12.7685C238.547 12.9531 238.331 13.223 238.177 13.5781C238.023 13.9309 237.946 14.3594 237.946 14.8636C237.946 15.3821 238.023 15.8177 238.177 16.1705C238.333 16.5232 238.551 16.7895 238.83 16.9695C239.11 17.1494 239.433 17.2393 239.8 17.2393C240.006 17.2393 240.196 17.2121 240.371 17.1577C240.549 17.1032 240.706 17.0239 240.844 16.9197C240.981 16.8132 241.095 16.6842 241.185 16.5327C241.277 16.3812 241.341 16.2083 241.376 16.0142L242.932 16.0213C242.892 16.3551 242.791 16.6771 242.63 16.9872C242.471 17.295 242.257 17.5708 241.987 17.8146C241.72 18.0561 241.4 18.2479 241.028 18.3899C240.659 18.5296 240.241 18.5994 239.775 18.5994C239.126 18.5994 238.546 18.4527 238.035 18.1591C237.526 17.8655 237.123 17.4406 236.827 16.8842C236.534 16.3279 236.387 15.6544 236.387 14.8636C236.387 14.0705 236.536 13.3958 236.835 12.8395C237.133 12.2831 237.538 11.8594 238.049 11.5682C238.56 11.2746 239.136 11.1278 239.775 11.1278C240.196 11.1278 240.587 11.187 240.947 11.3054C241.309 11.4238 241.63 11.5966 241.909 11.8239C242.188 12.0488 242.416 12.3246 242.591 12.6513C242.768 12.978 242.882 13.352 242.932 13.7734ZM243.757 12.495V11.2273H249.73V12.495H247.504V18.5H245.984V12.495H243.757ZM253.836 11.2273V18.5H252.298V12.6868H252.255L250.59 13.7308V12.3672L252.39 11.2273H253.836ZM258.416 18.6598C257.805 18.6574 257.279 18.5071 256.839 18.2088C256.401 17.9105 256.064 17.4785 255.827 16.9126C255.593 16.3468 255.477 15.6662 255.479 14.8707C255.479 14.0777 255.596 13.4018 255.83 12.843C256.067 12.2843 256.405 11.8594 256.843 11.5682C257.283 11.2746 257.807 11.1278 258.416 11.1278C259.024 11.1278 259.547 11.2746 259.985 11.5682C260.426 11.8617 260.764 12.2879 261.001 12.8466C261.238 13.4029 261.355 14.0777 261.352 14.8707C261.352 15.6686 261.234 16.3504 260.997 16.9162C260.763 17.482 260.427 17.9141 259.989 18.2124C259.551 18.5107 259.026 18.6598 258.416 18.6598ZM258.416 17.3849C258.832 17.3849 259.165 17.1754 259.414 16.7564C259.662 16.3374 259.785 15.7088 259.783 14.8707C259.783 14.3191 259.726 13.8598 259.612 13.4929C259.501 13.1259 259.343 12.8501 259.137 12.6655C258.933 12.4808 258.693 12.3885 258.416 12.3885C258.001 12.3885 257.67 12.5956 257.421 13.0099C257.173 13.4242 257.047 14.0445 257.045 14.8707C257.045 15.4295 257.101 15.8958 257.212 16.2699C257.325 16.6416 257.485 16.9209 257.691 17.108C257.897 17.2926 258.139 17.3849 258.416 17.3849ZM262.339 17.2216V16.0107L265.375 11.2273H266.419V12.9034H265.801L263.887 15.9325V15.9893H268.202V17.2216H262.339ZM265.83 18.5V16.8523L265.858 16.3161V11.2273H267.3V18.5H265.83Z" fill="white"/>
</g>
</g>
</g>
</g>
<defs>
<filter id="filter0_d_41_2300" x="24.3572" y="32.8572" width="28.2857" height="28.2857" filterUnits="userSpaceOnUse" color-interpolation-filters="sRGB">
<feFlood flood-opacity="0" result="BackgroundImageFix"/>
<feColorMatrix in="SourceAlpha" type="matrix" values="0 0 0 0 0 0 0 0 0 0 0 0 0 0 0 0 0 0 127 0" result="hardAlpha"/>
<feOffset dy="4"/>
<feGaussianBlur stdDeviation="2"/>
<feComposite in2="hardAlpha" operator="out"/>
<feColorMatrix type="matrix" values="0 0 0 0 0 0 0 0 0 0 0 0 0 0 0 0 0 0 0.25 0"/>
<feBlend mode="normal" in2="BackgroundImageFix" result="effect1_dropShadow_41_2300"/>
<feBlend mode="normal" in="SourceGraphic" in2="effect1_dropShadow_41_2300" result="shape"/>
</filter>
<filter id="filter1_d_41_2300" x="54.3571" y="32.8559" width="28.2792" height="28.287" filterUnits="userSpaceOnUse" color-interpolation-filters="sRGB">
<feFlood flood-opacity="0" result="BackgroundImageFix"/>
<feColorMatrix in="SourceAlpha" type="matrix" values="0 0 0 0 0 0 0 0 0 0 0 0 0 0 0 0 0 0 127 0" result="hardAlpha"/>
<feOffset dy="4"/>
<feGaussianBlur stdDeviation="2"/>
<feComposite in2="hardAlpha" operator="out"/>
<feColorMatrix type="matrix" values="0 0 0 0 0 0 0 0 0 0 0 0 0 0 0 0 0 0 0.25 0"/>
<feBlend mode="normal" in2="BackgroundImageFix" result="effect1_dropShadow_41_2300"/>
<feBlend mode="normal" in="SourceGraphic" in2="effect1_dropShadow_41_2300" result="shape"/>
</filter>
<filter id="filter2_d_41_2300" x="84.3572" y="32.8571" width="28.2857" height="28.2857" filterUnits="userSpaceOnUse" color-interpolation-filters="sRGB">
<feFlood flood-opacity="0" result="BackgroundImageFix"/>
<feColorMatrix in="SourceAlpha" type="matrix" values="0 0 0 0 0 0 0 0 0 0 0 0 0 0 0 0 0 0 127 0" result="hardAlpha"/>
<feOffset dy="4"/>
<feGaussianBlur stdDeviation="2"/>
<feComposite in2="hardAlpha" operator="out"/>
<feColorMatrix type="matrix" values="0 0 0 0 0 0 0 0 0 0 0 0 0 0 0 0 0 0 0.25 0"/>
<feBlend mode="normal" in2="BackgroundImageFix" result="effect1_dropShadow_41_2300"/>
<feBlend mode="normal" in="SourceGraphic" in2="effect1_dropShadow_41_2300" result="shape"/>
</filter>
<clipPath id="clip0_41_2300">
<path d="M0.5 30H282.5V38C282.5 49.0457 273.546 58 262.5 58H20.5C9.4543 58 0.5 49.0457 0.5 38V30Z" fill="white"/>
</clipPath>
<clipPath id="clip1_41_2300">
<rect width="20" height="20" fill="white" transform="translate(244.5 33)"/>
</clipPath>
<clipPath id="clip2_41_2300">
<path d="M0.5 30C0.5 20.6812 0.5 16.0218 2.02241 12.3463C4.05229 7.44577 7.94577 3.55229 12.8463 1.52241C16.5218 0 21.1812 0 30.5 0H252.5C261.819 0 266.478 0 270.154 1.52241C275.054 3.55229 278.948 7.44577 280.978 12.3463C282.5 16.0218 282.5 20.6812 282.5 30H0.5Z" fill="white"/>
</clipPath>
</defs>
</svg>
