<?xml version="1.0" encoding="UTF-8"?>
<!DOCTYPE svg PUBLIC "-//W3C//DTD SVG 1.1//EN" "http://www.w3.org/Graphics/SVG/1.1/DTD/svg11.dtd">
<svg xmlns="http://www.w3.org/2000/svg" version="1.1" width="512px" height="512px" style="shape-rendering:geometricPrecision; text-rendering:geometricPrecision; image-rendering:optimizeQuality; fill-rule:evenodd; clip-rule:evenodd" xmlns:xlink="http://www.w3.org/1999/xlink">
<g><path style="opacity:0.986" fill="#010101" d="M 511.5,36.5 C 511.5,182.5 511.5,328.5 511.5,474.5C 508.281,482.881 502.281,488.381 493.5,491C 397.833,491.667 302.167,491.667 206.5,491C 185.667,471.5 165.5,451.333 146,430.5C 145.501,425.845 145.334,421.179 145.5,416.5C 106.468,421.542 68.1349,418.376 30.5,407C 20.2713,403.641 11.438,398.141 4,390.5C 2.20496,387.901 0.704964,385.234 -0.5,382.5C -0.5,335.833 -0.5,289.167 -0.5,242.5C 3.22911,234.269 9.22911,228.102 17.5,224C 41.3633,213.493 66.3633,207.826 92.5,207C 110.213,206.149 127.879,206.649 145.5,208.5C 145.5,202.833 145.5,197.167 145.5,191.5C 135.478,191.905 128.312,187.572 124,178.5C 122.852,160.063 122.352,141.563 122.5,123C 122.352,104.437 122.852,85.9372 124,67.5C 128.312,58.4282 135.478,54.0949 145.5,54.5C 143.384,43.2372 146.051,33.4039 153.5,25C 156.789,22.5224 160.456,20.8558 164.5,20C 274.167,19.3333 383.833,19.3333 493.5,20C 502.281,22.6193 508.281,28.1193 511.5,36.5 Z"/></g>
<g><path style="opacity:1" fill="#def5fc" d="M 167.5,35.5 C 270.833,35.5 374.167,35.5 477.5,35.5C 477.687,37.5643 478.187,39.5643 479,41.5C 479.667,184.167 479.667,326.833 479,469.5C 478.187,471.436 477.687,473.436 477.5,475.5C 390.833,475.5 304.167,475.5 217.5,475.5C 217.667,459.497 217.5,443.497 217,427.5C 215.73,423.23 212.896,420.73 208.5,420C 192.503,419.5 176.503,419.333 160.5,419.5C 160.244,417.208 160.577,415.041 161.5,413C 176.616,410.409 190.616,405.075 203.5,397C 209.601,392.563 213.767,386.73 216,379.5C 216.667,334.5 216.667,289.5 216,244.5C 209.577,231.681 199.41,223.181 185.5,219C 177.949,216.363 170.282,214.196 162.5,212.5C 161.538,205.588 161.205,198.588 161.5,191.5C 238.878,191.988 316.211,191.488 393.5,190C 401.574,186.92 406.407,181.087 408,172.5C 408.667,138.833 408.667,105.167 408,71.5C 405.167,63.3333 399.667,57.8333 391.5,55C 314.501,54.5 237.501,54.3333 160.5,54.5C 160.334,50.1539 160.501,45.8206 161,41.5C 161.754,37.9106 163.921,35.9106 167.5,35.5 Z"/></g>
<g><path style="opacity:1" fill="#d0e4f4" d="M 167.5,35.5 C 274.999,34.3341 382.666,34.1674 490.5,35C 493,36.1667 494.833,38 496,40.5C 496.995,184.556 496.662,328.556 495,472.5C 493.786,474.049 492.286,475.215 490.5,476C 399.332,476.832 308.332,476.666 217.5,475.5C 304.167,475.5 390.833,475.5 477.5,475.5C 477.687,473.436 478.187,471.436 479,469.5C 479.667,326.833 479.667,184.167 479,41.5C 478.187,39.5643 477.687,37.5643 477.5,35.5C 374.167,35.5 270.833,35.5 167.5,35.5 Z"/></g>
<g><path style="opacity:1" fill="#fa5492" d="M 389.5,70.5 C 384.456,70.1725 379.456,70.5059 374.5,71.5C 375.82,106.488 375.82,141.488 374.5,176.5C 296.833,176.667 219.166,176.5 141.5,176C 139.951,174.786 138.785,173.286 138,171.5C 137.333,139.167 137.333,106.833 138,74.5C 138.785,72.714 139.951,71.214 141.5,70C 224.334,69.1677 307.001,69.3343 389.5,70.5 Z"/></g>
<g><path style="opacity:1" fill="#f7337e" d="M 389.5,70.5 C 391.173,71.343 392.34,72.6763 393,74.5C 393.667,106.833 393.667,139.167 393,171.5C 392.167,173.667 390.667,175.167 388.5,176C 383.845,176.499 379.179,176.666 374.5,176.5C 375.82,141.488 375.82,106.488 374.5,71.5C 379.456,70.5059 384.456,70.1725 389.5,70.5 Z"/></g>
<g><path style="opacity:1" fill="#060203" d="M 190.5,86.5 C 201.868,85.5668 211.702,88.9001 220,96.5C 221.326,104.171 218.159,107.671 210.5,107C 204.207,101.675 197.207,100.341 189.5,103C 187.006,105.423 187.006,107.756 189.5,110C 197.249,113.139 204.916,116.472 212.5,120C 225.741,132.334 225.408,144.334 211.5,156C 196.288,162.551 182.788,160.051 171,148.5C 168.268,139.894 171.434,136.061 180.5,137C 186.14,143.324 193.14,145.658 201.5,144C 208.429,140.963 209.096,136.963 203.5,132C 194.8,129.103 186.467,125.436 178.5,121C 170.038,110.472 170.704,100.472 180.5,91C 183.815,89.1702 187.149,87.6702 190.5,86.5 Z"/></g>
<g><path style="opacity:1" fill="#050102" d="M 265.5,86.5 C 287.729,84.2511 302.563,93.5844 310,114.5C 311.706,124.391 310.206,133.724 305.5,142.5C 310.722,146.896 311.722,152.062 308.5,158C 305.923,159.25 303.257,159.584 300.5,159C 298.65,156.982 296.65,155.149 294.5,153.5C 274.211,164.209 257.045,160.543 243,142.5C 231.916,116.337 239.416,97.6706 265.5,86.5 Z"/></g>
<g><path style="opacity:1" fill="#090304" d="M 330.5,86.5 C 335.28,85.6409 338.78,87.3075 341,91.5C 341.5,109.164 341.667,126.83 341.5,144.5C 346.511,144.334 351.511,144.501 356.5,145C 362.729,149.171 363.062,153.837 357.5,159C 348.5,159.667 339.5,159.667 330.5,159C 328.667,158.5 327.5,157.333 327,155.5C 326.333,133.833 326.333,112.167 327,90.5C 327.69,88.6498 328.856,87.3164 330.5,86.5 Z"/></g>
<g><path style="opacity:1" fill="#fa5491" d="M 267.5,101.5 C 280.503,99.5832 289.67,104.583 295,116.5C 295.826,121.589 295.492,126.589 294,131.5C 290.552,126.303 286.052,124.803 280.5,127C 276.283,131.94 276.783,136.44 282,140.5C 282.483,141.448 282.649,142.448 282.5,143.5C 268.208,147.105 258.375,142.105 253,128.5C 251.036,115.758 255.869,106.758 267.5,101.5 Z"/></g>
<g><path style="opacity:1" fill="#7e8b8f" d="M 161.5,191.5 C 161.205,198.588 161.538,205.588 162.5,212.5C 161.179,209.402 160.512,205.902 160.5,202C 160.501,198.317 160.835,194.817 161.5,191.5 Z"/></g>
<g><path style="opacity:1" fill="#040505" d="M 367.5,221.5 C 375.33,220.495 378.496,223.828 377,231.5C 368.127,254.619 358.96,277.619 349.5,300.5C 344.912,304.812 340.745,304.479 337,299.5C 336.333,297.167 336.333,294.833 337,292.5C 345.667,270.5 354.333,248.5 363,226.5C 364.025,224.313 365.525,222.646 367.5,221.5 Z"/></g>
<g><path style="opacity:1" fill="#88b9d3" d="M 186.5,235.5 C 187.833,244.833 187.833,254.167 186.5,263.5C 155.312,275.407 122.979,279.907 89.5,277C 70.6491,275.896 52.3158,272.23 34.5,266C 7.61458,254.475 7.94792,243.475 35.5,233C 50.0705,227.752 65.0705,224.419 80.5,223C 116.871,219.168 152.204,223.334 186.5,235.5 Z"/></g>
<g><path style="opacity:1" fill="#050506" d="M 308.5,224.5 C 318.773,225.194 321.273,230.194 316,239.5C 311.116,246.768 306.616,254.268 302.5,262C 308.556,271.946 314.223,282.113 319.5,292.5C 316.508,301.095 311.675,302.429 305,296.5C 300,287.833 295,279.167 290,270.5C 286.498,266.167 285.832,261.5 288,256.5C 294.594,245.635 301.428,234.969 308.5,224.5 Z"/></g>
<g><path style="opacity:1" fill="#050506" d="M 399.5,224.5 C 403.426,224.047 406.592,225.38 409,228.5C 415.711,239.262 421.878,250.262 427.5,261.5C 426.901,264.702 425.734,267.702 424,270.5C 419,279.167 414,287.833 409,296.5C 402.186,302.701 397.353,301.368 394.5,292.5C 399.777,282.113 405.444,271.946 411.5,262C 406.214,253.265 401.047,244.432 396,235.5C 394.663,230.872 395.83,227.205 399.5,224.5 Z"/></g>
<g><path style="opacity:1" fill="#69a7c5" d="M 186.5,235.5 C 206.408,244.99 206.408,254.323 186.5,263.5C 187.833,254.167 187.833,244.833 186.5,235.5 Z"/></g>
<g><path style="opacity:1" fill="#3590b9" d="M 183.5,281.5 C 183.5,289.833 183.5,298.167 183.5,306.5C 168.226,312.793 152.226,316.627 135.5,318C 105.454,321.423 75.7869,319.423 46.5,312C 34.718,309.31 24.5513,303.81 16,295.5C 14.8993,291.448 14.3993,287.281 14.5,283C 14.6667,279.5 14.8333,276 15,272.5C 24.1771,278.171 34.0104,282.337 44.5,285C 91.1538,295.834 137.487,294.667 183.5,281.5 Z"/></g>
<g><path style="opacity:1" fill="#077fac" d="M 183.5,306.5 C 183.5,298.167 183.5,289.833 183.5,281.5C 189.503,278.987 195.337,275.987 201,272.5C 206.202,289.817 200.369,301.15 183.5,306.5 Z"/></g>
<g><path style="opacity:1" fill="#88b8d2" d="M 182.5,323.5 C 183.493,331.65 183.826,339.983 183.5,348.5C 168.226,354.793 152.226,358.627 135.5,360C 105.453,363.426 75.7861,361.426 46.5,354C 34.718,351.31 24.5513,345.81 16,337.5C 14.8993,333.448 14.3993,329.281 14.5,325C 14.6667,321.5 14.8333,318 15,314.5C 28.2795,322.038 42.4462,327.205 57.5,330C 99.6876,337.505 141.354,335.338 182.5,323.5 Z"/></g>
<g><path style="opacity:1" fill="#6ba8c7" d="M 183.5,348.5 C 183.826,339.983 183.493,331.65 182.5,323.5C 188.774,320.947 194.941,317.947 201,314.5C 206.202,331.817 200.369,343.15 183.5,348.5 Z"/></g>
<g><path style="opacity:1" fill="#010101" d="M 249.5,321.5 C 320.834,321.333 392.167,321.5 463.5,322C 468.626,324.553 469.793,328.386 467,333.5C 466.097,334.701 464.931,335.535 463.5,336C 392.167,336.667 320.833,336.667 249.5,336C 244.202,331.092 244.202,326.258 249.5,321.5 Z"/></g>
<g><path style="opacity:1" fill="#010101" d="M 249.5,354.5 C 320.834,354.333 392.167,354.5 463.5,355C 468.626,357.553 469.793,361.386 467,366.5C 466.097,367.701 464.931,368.535 463.5,369C 392.167,369.667 320.833,369.667 249.5,369C 244.202,364.092 244.202,359.258 249.5,354.5 Z"/></g>
<g><path style="opacity:1" fill="#358fb9" d="M 182.5,365.5 C 183.759,374.025 183.759,382.692 182.5,391.5C 145.965,403.151 108.632,406.318 70.5,401C 54.3035,399.118 38.9702,394.452 24.5,387C 16.1421,382.951 12.8088,376.285 14.5,367C 14.6667,363.5 14.8333,360 15,356.5C 28.2795,364.038 42.4462,369.205 57.5,372C 99.6901,379.505 141.357,377.338 182.5,365.5 Z"/></g>
<g><path style="opacity:1" fill="#077fac" d="M 182.5,391.5 C 183.759,382.692 183.759,374.025 182.5,365.5C 188.774,362.947 194.941,359.947 201,356.5C 201.667,363.5 201.667,370.5 201,377.5C 196.265,383.962 190.099,388.629 182.5,391.5 Z"/></g>
<g><path style="opacity:1" fill="#010101" d="M 249.5,387.5 C 320.834,387.333 392.167,387.5 463.5,388C 468.626,390.553 469.793,394.386 467,399.5C 466.097,400.701 464.931,401.535 463.5,402C 392.167,402.667 320.833,402.667 249.5,402C 244.202,397.092 244.202,392.258 249.5,387.5 Z"/></g>
<g><path style="opacity:1" fill="#010101" d="M 249.5,420.5 C 320.834,420.333 392.167,420.5 463.5,421C 468.626,423.553 469.793,427.386 467,432.5C 466.097,433.701 464.931,434.535 463.5,435C 392.167,435.667 320.833,435.667 249.5,435C 244.202,430.092 244.202,425.258 249.5,420.5 Z"/></g>
<g><path style="opacity:1" fill="#d7ebfd" d="M 172.5,435.5 C 182.319,434.506 192.319,434.173 202.5,434.5C 202.666,444.506 202.5,454.506 202,464.5C 192.298,454.631 182.465,444.964 172.5,435.5 Z"/></g>
</svg>
