<?xml version="1.0" encoding="utf-8"?>
<!-- Svg Vector Icons : http://www.onlinewebfonts.com/icon -->
<!DOCTYPE svg PUBLIC "-//W3C//DTD SVG 1.1//EN" "http://www.w3.org/Graphics/SVG/1.1/DTD/svg11.dtd">
<svg version="1.1" xmlns="http://www.w3.org/2000/svg" xmlns:xlink="http://www.w3.org/1999/xlink" x="0px" y="0px" viewBox="0 0 256 256" enable-background="new 0 0 256 256" xml:space="preserve">
<metadata> Svg Vector Icons : http://www.onlinewebfonts.com/icon </metadata>
<g><g><g><path fill="#000000" d="M155,229.5c0.3,0,0.7,0.1,1,0.1h74.3c8.7,0,15.7-7.1,15.7-15.7V41.6c0-8.7-7.1-15.7-15.7-15.7H156c-0.3,0-0.7,0-1,0.1V5.3L10,24.7v206.2l145,19.9V229.5z M155,34.9c0.3-0.1,0.7-0.1,1-0.1h74.3c3.7,0,6.8,3,6.8,6.8v172.2c0,3.7-3,6.8-6.8,6.8H156c-0.3,0-0.7-0.1-1-0.1V34.9z M33.4,142.7c-4.9-0.1-9.7-1.6-12-3.1l1.9-8.5c2.6,1.5,6.6,3,10.7,3.1c4.5,0.1,6.9-1.9,6.9-4.9c0-2.9-2.1-4.6-7.3-6.6c-7.1-2.7-11.7-6.9-11.7-13.6c0-7.8,6-13.9,16.2-14.2c4.9-0.1,8.6,0.9,11.3,2.1l-2.3,8.6c-1.8-0.9-4.9-2.2-9.2-2.1c-4.3,0.1-6.3,2.2-6.3,4.6c0,3,2.4,4.2,8,6.5c7.8,3,11.5,7.4,11.5,14C51.1,136.5,45.4,143,33.4,142.7z M98.7,152.3c-7-2.3-12.8-4.6-19.2-7.5c-1.1-0.5-2.2-0.7-3.3-0.8c-10.5-1-20.2-9.1-20.2-24.7c0-14.2,8.7-25.2,22.7-25.6c14.8-0.4,23.1,10.9,23.1,24.6c0,11.3-5.2,19.2-11.7,22v0.3c3.8,1.2,8,2.2,11.9,3.1L98.7,152.3z M141.9,144.8l-32.7-0.8V93.7l11.6-0.3v41.2l21.1,0.3L141.9,144.8L141.9,144.8z"/><path fill="#000000" d="M78.4,102.5c-7.3,0.1-11.4,7.5-11.4,16.4c-0.1,9.1,4.2,16.2,11.3,16.3c7.3,0.1,11.6-6.9,11.6-16.5C89.9,109.7,85.7,102.3,78.4,102.5z"/><path fill="#000000" d="M192,168.8c17.5,0,31.1-6.2,31.1-14.2v-9c0-1.3-0.4-2.6-1.1-3.8l0-0.1c0.7-1.2,1.2-2.5,1.2-3.8v-9c0-1.3-0.4-2.6-1.1-3.8l-0.1-0.1c0.8-1.3,1.2-2.6,1.2-4v-9c0-1.2-0.3-2.5-1-3.7l-0.1-0.1c0.2-0.6,0.3-1.1,0.3-1.7c0-7.2-15.7-11.2-30.4-11.2c-14.7,0-30.4,3.9-30.4,11.2c0,0.6,0.2,1.2,0.4,1.7l-0.1,0.1c-0.7,1.2-1,2.5-1,3.7v8.9c0,1.4,0.4,2.7,1.2,4l-0.1,0.2c-0.7,1.3-1.1,2.6-1.1,3.8v9c0,1.3,0.4,2.6,1.2,3.8l0,0c-0.7,1.3-1.1,2.6-1.1,3.8v9C160.8,162.6,174.5,168.8,192,168.8z M164.2,113.5c5,4.2,16.6,6.4,27.8,6.4c11.2,0,22.8-2.2,27.8-6.4v7.5c0,5.1-11.4,10.9-27.8,10.9c-16.4,0-27.8-5.7-27.8-10.9V113.5z M164.2,129.5c5.1,4.7,15.6,7.7,27.8,7.7c12.2,0,22.7-3,27.8-7.7v8.4c0,5.1-11.4,10.9-27.8,10.9c-16.4,0-27.8-5.7-27.8-10.9V129.5z M164.2,146.2c5.1,4.7,15.6,7.7,27.8,7.7c12.2,0,22.7-3,27.8-7.7v8.4c0,5.1-11.4,10.9-27.8,10.9c-16.4,0-27.8-5.7-27.8-10.9V146.2z"/></g><g></g><g></g><g></g><g></g><g></g><g></g><g></g><g></g><g></g><g></g><g></g><g></g><g></g><g></g><g></g></g></g>
</svg>