<svg width="30" height="30" viewBox="0 0 30 30" fill="none" xmlns="http://www.w3.org/2000/svg">
<path d="M2.14287 6.42856C2.42703 6.42856 2.69955 6.31568 2.90048 6.11475C3.10142 5.91382 3.2143 5.64129 3.2143 5.35713C3.2143 5.07297 3.10142 4.80045 2.90048 4.59952C2.69955 4.39859 2.42703 4.28571 2.14287 4.28571C1.85871 4.28571 1.58619 4.39859 1.38526 4.59952C1.18432 4.80045 1.07144 5.07297 1.07144 5.35713C1.07144 5.64129 1.18432 5.91382 1.38526 6.11475C1.58619 6.31568 1.85871 6.42856 2.14287 6.42856Z" stroke="black" stroke-width="1.71429" stroke-linecap="round" stroke-linejoin="round"/>
<path d="M9.64288 5.35712H28.9286" stroke="black" stroke-width="1.71429" stroke-linecap="round" stroke-linejoin="round"/>
<path d="M2.14287 16.0714C2.42703 16.0714 2.69955 15.9586 2.90048 15.7576C3.10142 15.5567 3.2143 15.2842 3.2143 15C3.2143 14.7159 3.10142 14.4433 2.90048 14.2424C2.69955 14.0415 2.42703 13.9286 2.14287 13.9286C1.85871 13.9286 1.58619 14.0415 1.38526 14.2424C1.18432 14.4433 1.07144 14.7159 1.07144 15C1.07144 15.2842 1.18432 15.5567 1.38526 15.7576C1.58619 15.9586 1.85871 16.0714 2.14287 16.0714Z" stroke="black" stroke-width="1.71429" stroke-linecap="round" stroke-linejoin="round"/>
<path d="M9.64288 15H28.9286" stroke="black" stroke-width="1.71429" stroke-linecap="round" stroke-linejoin="round"/>
<path d="M2.14287 25.7143C2.42703 25.7143 2.69955 25.6014 2.90048 25.4005C3.10142 25.1995 3.2143 24.927 3.2143 24.6428C3.2143 24.3587 3.10142 24.0862 2.90048 23.8852C2.69955 23.6843 2.42703 23.5714 2.14287 23.5714C1.85871 23.5714 1.58619 23.6843 1.38526 23.8852C1.18432 24.0862 1.07144 24.3587 1.07144 24.6428C1.07144 24.927 1.18432 25.1995 1.38526 25.4005C1.58619 25.6014 1.85871 25.7143 2.14287 25.7143Z" stroke="black" stroke-width="1.71429" stroke-linecap="round" stroke-linejoin="round"/>
<path d="M9.64288 24.6428H28.9286" stroke="black" stroke-width="1.71429" stroke-linecap="round" stroke-linejoin="round"/>
</svg>
