<svg width="30" height="30" viewBox="0 0 30 30" fill="none" xmlns="http://www.w3.org/2000/svg">
<path d="M10.1786 22.5V18.2143C10.1786 17.9301 10.2915 17.6576 10.4924 17.4566C10.6933 17.2557 10.9659 17.1428 11.25 17.1428H18.75C19.0342 17.1428 19.3067 17.2557 19.5076 17.4566C19.7086 17.6576 19.8214 17.9301 19.8214 18.2143V22.5C19.8214 22.7841 19.7086 23.0566 19.5076 23.2576C19.3067 23.4585 19.0342 23.5714 18.75 23.5714H11.25C10.9659 23.5714 10.6933 23.4585 10.4924 23.2576C10.2915 23.0566 10.1786 22.7841 10.1786 22.5Z" stroke="black" stroke-width="1.71429" stroke-linejoin="round"/>
<path d="M11.7857 17.1428V15C11.7857 14.1475 12.1244 13.3299 12.7272 12.7271C13.33 12.1244 14.1475 11.7857 15 11.7857C15.8525 11.7857 16.6701 12.1244 17.2729 12.7271C17.8757 13.3299 18.2143 14.1475 18.2143 15V17.1428" stroke="black" stroke-width="1.71429" stroke-linecap="round" stroke-linejoin="round"/>
<path d="M1.07144 7.48712H28.9286" stroke="black" stroke-width="1.71429" stroke-linecap="round" stroke-linejoin="round"/>
<path d="M26.7857 1.07141H3.2143C2.64598 1.07141 2.10093 1.29718 1.69907 1.69904C1.29721 2.1009 1.07144 2.64595 1.07144 3.21427V26.7857C1.07144 27.354 1.29721 27.8991 1.69907 28.3009C2.10093 28.7028 2.64598 28.9286 3.2143 28.9286H26.7857C27.3541 28.9286 27.8991 28.7028 28.301 28.3009C28.7028 27.8991 28.9286 27.354 28.9286 26.7857V3.21427C28.9286 2.64595 28.7028 2.1009 28.301 1.69904C27.8991 1.29718 27.3541 1.07141 26.7857 1.07141Z" stroke="black" stroke-width="1.71429" stroke-linecap="round" stroke-linejoin="round"/>
</svg>
