<svg width="30" height="30" viewBox="0 0 30 30" fill="none" xmlns="http://www.w3.org/2000/svg">
<path d="M10.7143 26.2286L1.07144 28.9286L3.77144 19.2857L21.4286 1.71431C21.6282 1.51021 21.8665 1.34805 22.1296 1.23733C22.3927 1.12661 22.6753 1.06958 22.9607 1.06958C23.2462 1.06958 23.5288 1.12661 23.7919 1.23733C24.055 1.34805 24.2933 1.51021 24.4929 1.71431L28.2857 5.5286C28.4863 5.72795 28.6455 5.965 28.7541 6.22611C28.8628 6.48722 28.9187 6.76723 28.9187 7.05003C28.9187 7.33283 28.8628 7.61284 28.7541 7.87395C28.6455 8.13506 28.4863 8.37211 28.2857 8.57146L10.7143 26.2286Z" stroke="black" stroke-width="1.71429" stroke-linecap="round" stroke-linejoin="round"/>
</svg>
