<svg width="30" height="30" viewBox="0 0 30 30" fill="none" xmlns="http://www.w3.org/2000/svg">
<path  d="M10.7143 13.9286C12.1351 13.9286 13.4977 13.3642 14.5024 12.3595C15.507 11.3548 16.0714 9.99224 16.0714 8.57144C16.0714 7.15063 15.507 5.78802 14.5024 4.78337C13.4977 3.77871 12.1351 3.21429 10.7143 3.21429C9.29349 3.21429 7.93088 3.77871 6.92622 4.78337C5.92156 5.78802 5.35715 7.15063 5.35715 8.57144C5.35715 9.99224 5.92156 11.3548 6.92622 12.3595C7.93088 13.3642 9.29349 13.9286 10.7143 13.9286Z" stroke="#fff" stroke-width="1.71429" stroke-linecap="round" stroke-linejoin="round"/>
<path  d="M1.07144 28.9286H20.3572V27.7671C20.3434 26.4717 20.0694 25.1922 19.5512 24.0047C19.0331 22.8173 18.2816 21.7461 17.3412 20.855C16.4009 19.9638 15.2909 19.2708 14.0774 18.8171C12.8639 18.3635 11.5715 18.1585 10.2772 18.2143C7.81348 18.3312 5.48773 19.3856 3.77625 21.1616C2.06478 22.9377 1.09711 25.3008 1.07144 27.7671V28.9286Z" stroke="#fff" stroke-width="1.71429" stroke-linecap="round" stroke-linejoin="round"/>
<path  d="M19.2857 13.9286C20.7065 13.9286 22.0691 13.3642 23.0738 12.3595C24.0785 11.3548 24.6429 9.99224 24.6429 8.57144C24.6429 7.15063 24.0785 5.78802 23.0738 4.78337C22.0691 3.77871 20.7065 3.21429 19.2857 3.21429" stroke="#fff" stroke-width="1.71429" stroke-linecap="round" stroke-linejoin="round"/>
<path  d="M24.6429 28.9286H28.9286V27.7672C28.9057 25.5977 28.1535 23.499 26.7931 21.809C25.4327 20.1189 23.5431 18.9358 21.4286 18.45" stroke="#fff" stroke-width="1.71429" stroke-linecap="round" stroke-linejoin="round"/>
</svg>
