<svg width="30" height="31" viewBox="0 0 30 31" fill="none" xmlns="http://www.w3.org/2000/svg">
<path d="M13.3928 11.9643C14.8137 11.9643 16.1763 11.3999 17.1809 10.3952C18.1856 9.39056 18.75 8.02795 18.75 6.60714C18.75 5.18634 18.1856 3.82373 17.1809 2.81907C16.1763 1.81441 14.8137 1.25 13.3928 1.25C11.972 1.25 10.6094 1.81441 9.60478 2.81907C8.60012 3.82373 8.03571 5.18634 8.03571 6.60714C8.03571 8.02795 8.60012 9.39056 9.60478 10.3952C10.6094 11.3999 11.972 11.9643 13.3928 11.9643Z" stroke="black" stroke-width="1.71429" stroke-linecap="round" stroke-linejoin="round"/>
<path d="M16.6071 26.9643H3.75V25.8029C3.76374 24.5074 4.0378 23.2279 4.55591 22.0404C5.07402 20.853 5.82559 19.7819 6.76594 18.8907C7.70629 17.9995 8.81623 17.3065 10.0298 16.8529C11.2433 16.3992 12.5357 16.1942 13.83 16.25C15.1122 16.3106 16.3695 16.6261 17.5284 17.178C18.6873 17.7299 19.7247 18.5071 20.58 19.4643" stroke="black" stroke-width="1.71429" stroke-linecap="round" stroke-linejoin="round"/>
<path d="M20.58 22.5L28.08 30" stroke="black" stroke-width="1.71429" stroke-linecap="round" stroke-linejoin="round"/>
<path d="M28.08 22.5L20.58 30" stroke="black" stroke-width="1.71429" stroke-linecap="round" stroke-linejoin="round"/>
</svg>
